<svg width="4667" height="2667" viewBox="0 0 4667 2667" fill="none" xmlns="http://www.w3.org/2000/svg">
<g id="6447 1" clip-path="url(#clip0)">
<g id="g10">
<g id="g12">
<path id="path16" d="M3130.96 167.4C3741.03 541.653 3549.31 1177.8 3810.41 1368.19C4148.87 1614.97 4335.39 2634.32 3661.35 2654.64C2320.83 2695.04 588.513 2654.64 588.513 2654.64C588.513 2654.64 101.547 2216.39 388.148 1487.36C674.748 758.32 1416.03 948.493 1691.23 620.44C1966.43 292.386 2520.89 -206.853 3130.96 167.4" fill="#C388FF"/>
<path id="path18" d="M3705.67 2634.27H3016.55C3011.99 2628.93 2983.84 2596.88 2934.6 2560.69C2961.39 2527.23 2977.41 2484.76 2977.41 2438.55C2977.41 2401.79 2967.27 2367.39 2949.63 2338H3049.01V2317.27H2935.28C2899.45 2272 2844.01 2242.95 2781.81 2242.95C2756.71 2242.95 2732.72 2247.68 2710.67 2256.29L2725.57 2237.03V2182.61C2725.57 2172.85 2719.71 2163.96 2710.61 2160.4C2707.15 2159.03 2703.76 2157.35 2700.47 2155.36V2140.35H2681.99C2663.68 2121.4 2648.68 2092.97 2636.47 2061.19V2050.27H2632.44C2600.16 1959.73 2589.27 1848.35 2589.27 1848.35H2500.2C2515.09 1888.84 2527.61 1943.75 2537.91 2001.65V2004.96H2538.49C2546.45 2050.2 2553.05 2097.12 2558.39 2140.35H2537.91V2185.11H2563.63C2571.88 2259.57 2575.77 2314.4 2575.77 2314.4L2572.31 2320.49H2537.91V2361.85H2466.47C2464.83 2360.95 2463.29 2359.97 2461.91 2358.93L2452.25 2358.97L2459.97 2174.97L2411.52 2187.35L2411.05 2360.63C2410.71 2360.97 2410.4 2361.39 2410.13 2361.85H2357.25C2355.63 2360.95 2354.09 2359.97 2352.71 2358.93L2346.36 2358.96L2361.91 2192L2304.88 2187.35L2304.41 2359.16C2303.01 2359.41 2301.77 2360.4 2300.92 2361.85H2278.2C2102.09 2352.41 2096.01 2230.27 2124.36 2149.31C2152.69 2068.33 2187.72 2048.99 2187.72 2048.99C2187.72 2048.99 1755.73 2100.67 1696.95 2116.64H1673.51V2129.07C1651.05 2147.53 1637.41 2180.11 1629.79 2204.89C1624.65 2221.63 1637.05 2238.6 1654.56 2238.88L1673.51 2239.16V2256.49H1782.81C1736.51 2274.73 1698.84 2310.13 1677.64 2354.87H1673.51V2364.19C1664.08 2387.12 1658.88 2412.23 1658.88 2438.55C1658.88 2546.59 1746.45 2634.16 1854.48 2634.16C1865.43 2634.16 1876.17 2633.25 1886.63 2631.52C1887.01 2632.73 1887.39 2633.69 1887.61 2634.27H1747.85C1688.32 2588 1650.28 2575.88 1626.76 2575.88C1600.85 2575.88 1592.53 2590.59 1592.53 2590.59C1592.53 2590.59 1578.15 2544.71 1424.29 2526.72C1407.93 2524.81 1394.47 2523.96 1383.45 2523.96C1290.94 2523.96 1372.11 2584.28 1372.11 2584.28C1369.24 2584.25 1366.49 2584.24 1363.81 2584.24C1344.81 2584.24 1330.48 2584.99 1319.97 2586.29C1306.67 2566.51 1287.18 2545.68 1259.88 2533.83C1250.95 2529.95 1242.4 2528.29 1234.3 2528.29C1185.41 2528.29 1152.91 2588.83 1152.91 2588.83C1139.18 2544.93 1113.14 2534.41 1091.34 2534.41C1071.3 2534.41 1054.84 2543.31 1054.84 2543.31C1021.98 2472.68 989.735 2451.99 963.216 2451.99C925.651 2451.99 899.583 2493.53 899.583 2493.53C897.113 2493.27 894.756 2493.15 892.488 2493.15C843.555 2493.15 840.027 2551.6 840.027 2551.6L875.548 2634.27H625.447V2469.07H726.7V2449.53V2339.4H827.952V2403.35H874.137V2229.27H1034.01V2319.85H1078.42V1628.63L1604.23 1623.6V1930.57L1623.76 1930.83H1648.64V1665.88H1684.16V1589.31H1735.68V1365.77H1810.28V1589.31H1861.8V1665.88H1897.33V1906.87H1939.96V1320.24H1963.05V1241.6H2030.04C2030.91 1269.77 2039.43 1347.71 2107.16 1347.71C2107.17 1347.71 2107.17 1347.71 2107.19 1347.71C2107.19 1347.71 2107.68 1347.73 2108.57 1347.73C2111.48 1347.73 2118.67 1347.4 2126.91 1344.49C2129.49 1343.85 2137.39 1341.43 2145.68 1335.2L2126.04 1367.95L2180.99 1416.28C2180.99 1416.28 2184.09 1410.68 2188.65 1402.56V1692.93L2256.16 1691.16V1452.71H2448L2456.61 1900.95L2485.31 1899.16V1747.87H2547.48V1628.85H2584.79V1548.91H2730.44V1628.85H2767.75V1747.87H2829.92V2027.16L2883.21 2025.39V1748.39H3061.36V2008.99L3176.32 2007.6L3174.53 1682.13H3346.84V1952.15H3382.37V2378.48H3410.8V2449.53H3439.21V2357.16H3568.89V2449.53H3604.41V2403.35H3705.67V2634.27V2634.27ZM1395.19 2251V2331.59H1457.4V2251H1395.19ZM1217.41 2251V2331.59H1279.63V2251H1217.41ZM3244.67 2204.81V2249.59H3279.23V2204.81H3244.67ZM3186.88 2204.81V2249.59H3221.44V2204.81H3186.88ZM2893.95 2227.72V2248.47H3049.01V2227.72H2893.95ZM1473.41 2113.35V2193.93H1535.63V2113.35H1473.41ZM1313.01 2113.35V2193.93H1375.23V2113.35H1313.01ZM2729.91 2140.35V2185.11H2764.47V2140.35H2729.91ZM3302.47 2125.01V2169.77H3337.03V2125.01H3302.47ZM2893.95 2138.19V2158.93H3049.01V2138.19H2893.95V2138.19ZM3302.47 2045.21V2089.97H3337.03V2045.21H3302.47ZM3244.67 2045.21V2089.97H3279.23V2045.21H3244.67ZM1673.51 2057.08V2077.83H1864.32V2057.08H1673.51ZM2893.95 2048.65V2069.4H3049.01V2048.65H2893.95ZM2272.61 2043.92V2064.65H2427.68V2043.92H2272.61ZM1395.19 1937.93V2018.53H1457.4V1937.93H1395.19V1937.93ZM1217.41 1937.93V2018.53H1279.63V1937.93H1217.41ZM1121.8 1937.93V2018.53H1184.02V1937.93H1121.8ZM3186.88 1965.4V2010.17H3221.44V1965.4H3186.88ZM2729.91 1960.2V2004.96H2764.47V1960.2H2729.91ZM2665.91 1960.2V2004.96H2700.47V1960.2H2665.91ZM2272.61 1954.37V1975.12H2427.68V1954.37H2272.61ZM1673.51 1937.97V1958.72H1864.32V1937.97H1673.51ZM1977.91 1912.13V1956.91H2012.47V1912.13H1977.91ZM2893.95 1914.35V1935.09H3049.01V1914.35H2893.95ZM3302.47 1885.6V1930.37H3337.03V1885.6H3302.47ZM3186.88 1885.6V1930.37H3221.44V1885.6H3186.88ZM2601.91 1870.12V1914.89H2636.47V1870.12H2601.91ZM1217.41 1807.31V1887.91H1279.63V1807.31H1217.41ZM3302.47 1805.8V1850.57H3337.03V1805.8H3302.47ZM2893.95 1824.81V1845.56H3049.01V1824.81H2893.95ZM2272.61 1820.08V1840.81H2427.68V1820.08H2272.61ZM1673.51 1818.87V1839.6H1864.32V1818.87H1673.51ZM2729.91 1780.05V1824.81H2764.47V1780.05H2729.91ZM2537.91 1780.05V1824.81H2572.47V1780.05H2537.91ZM2893.95 1780.05V1800.79H3049.01V1780.05H2893.95ZM2121.71 1754.11V1798.88H2156.27V1754.11H2121.71ZM1673.51 1759.31V1780.05H1864.32V1759.31H1673.51ZM3302.47 1726V1770.76H3337.03V1726H3302.47ZM3186.88 1726V1770.76H3221.44V1726H3186.88ZM1473.41 1678.72V1759.31H1535.63V1678.72H1473.41ZM1313.01 1678.72V1759.31H1375.23V1678.72H1313.01ZM1217.41 1678.72V1759.31H1279.63V1678.72H1217.41ZM1121.8 1678.72V1759.31H1184.02V1678.72H1121.8ZM1673.51 1699.75V1720.49H1864.32V1699.75H1673.51ZM2049.8 1675.09V1719.87H2084.37V1675.09H2049.8ZM1977.91 1675.09V1719.87H2012.47V1675.09H1977.91ZM2272.61 1685.77V1706.52H2427.68V1685.77H2272.61ZM2705.6 1658.44V1703.21H2740.16V1658.44H2705.6ZM2631.35 1658.44V1703.21H2665.91V1658.44H2631.35ZM2272.61 1641V1661.75H2427.68V1641H2272.61ZM2121.71 1596.08V1640.85H2156.27V1596.08H2121.71ZM1977.91 1596.08V1640.85H2012.47V1596.08H1977.91ZM2272.61 1551.47V1572.21H2427.68V1551.47H2272.61ZM2121.71 1517.07V1561.84H2156.27V1517.07H2121.71ZM2049.8 1517.07V1561.84H2084.37V1517.07H2049.8ZM2272.61 1506.71V1527.44H2427.68V1506.71H2272.61ZM2121.71 1438.05V1482.83H2156.27V1438.05H2121.71ZM1977.91 1438.05V1482.83H2012.47V1438.05H1977.91ZM2049.8 1359.05V1403.81H2084.37V1359.05H2049.8ZM1977.91 1359.05V1403.81H2012.47V1359.05H1977.91ZM2585.59 2634.27H2326.45L2491.59 2633.07C2491.59 2633.07 2401.12 2580.97 2358.27 2580.97C2348.91 2580.97 2341.83 2583.45 2338.44 2589.49C2338.44 2589.49 2276.6 2576.71 2235.23 2576.71C2195.64 2576.71 2174.83 2588.41 2244.93 2634.27H2001.11C1985.91 2621 1972.95 2610.37 1961.96 2602.01C2015.04 2567.03 2050.08 2506.88 2050.08 2438.55C2050.08 2424.73 2048.65 2411.27 2045.93 2398.25C2073.73 2420.08 2100.31 2422 2108.76 2422C2110.56 2422 2111.53 2421.91 2111.53 2421.91H2582.52L2587.56 2415.4C2586.67 2422.99 2586.2 2430.72 2586.2 2438.55C2586.2 2485.09 2602.47 2527.85 2629.61 2561.43C2607.85 2573.92 2632.45 2605.59 2632.45 2605.59C2619.44 2603.01 2609.33 2601.92 2601.53 2601.92C2562.49 2601.92 2581.75 2629.28 2585.59 2634.27V2634.27ZM1366.92 2634.27H1343.61C1343.01 2632.41 1341.88 2629.08 1340.15 2624.71C1350.96 2628.91 1361.08 2632.35 1366.92 2634.27ZM1983.51 2291.53C1951.37 2263.31 1909.89 2245.45 1864.32 2243.19V2242.09L1973.88 2243.77C1976.41 2261.37 1979.67 2277.24 1983.51 2291.53" fill="#4E92E7"/>
<g id="cloud-2">
<path id="path24" d="M1903 714.32C1907.76 693.56 1926.33 678.08 1948.53 678.08C1952.61 678.08 1956.56 678.6 1960.33 679.586C1971.28 656.16 1995.07 639.92 2022.64 639.92C2029.76 639.92 2036.64 641 2043.11 643.013C2057.95 618.44 2084.92 602 2115.72 602C2152.37 602 2183.6 625.266 2195.43 657.84C2203.8 653.16 2213.44 650.493 2223.71 650.493C2255.84 650.493 2281.88 676.546 2281.88 708.666C2281.88 710.573 2281.79 712.453 2281.6 714.32H1903" fill="white"/>
</g>
<path id="path26" d="M3090 895.306C3094.76 874.56 3113.33 859.066 3135.53 859.066C3139.61 859.066 3143.56 859.6 3147.33 860.573C3158.29 837.146 3182.07 820.906 3209.64 820.906C3216.76 820.906 3223.64 822 3230.11 824.013C3244.95 799.426 3271.92 783 3302.72 783C3339.39 783 3370.6 806.253 3382.43 838.826C3390.8 834.16 3400.44 831.493 3410.71 831.493C3442.84 831.493 3468.88 857.533 3468.88 889.666C3468.88 891.56 3468.79 893.453 3468.6 895.306H3090" fill="white"/>
<g id="cloud-4">
<path id="path28" d="M573 1415.31C577.768 1394.56 596.339 1379.08 618.539 1379.08C622.613 1379.08 626.567 1379.6 630.335 1380.59C641.291 1357.15 665.068 1340.92 692.641 1340.92C699.769 1340.92 706.645 1342 713.111 1344.01C727.955 1319.44 754.921 1303 785.729 1303C822.384 1303 853.603 1326.27 865.432 1358.83C873.805 1354.16 883.445 1351.49 893.712 1351.49C925.841 1351.49 951.885 1377.53 951.885 1409.67C951.885 1411.57 951.788 1413.45 951.608 1415.31H573" fill="white"/>
</g>
<path id="path30" d="M1245.92 1279.75L1233 1269.31C1233.32 1268.89 1241.19 1259.19 1256.34 1242.49L1268.65 1253.65C1253.86 1269.96 1246 1279.65 1245.92 1279.75" fill="white"/>
<path id="path32" d="M2268.69 801.666C2245.24 800.266 2221.43 799.68 2198.01 799.906L2197.87 783.28C2221.64 783.066 2245.85 783.653 2269.68 785.066L2268.69 801.666V801.666ZM2057.13 810.866L2054.72 794.426C2078.4 790.96 2102.41 788.266 2126.11 786.426L2127.4 802.986C2104.08 804.813 2080.44 807.466 2057.13 810.866V810.866ZM2408.91 819.573C2385.76 815.026 2362.28 811.213 2339.09 808.253L2341.2 791.76C2364.76 794.773 2388.61 798.64 2412.11 803.266L2408.91 819.573V819.573ZM1918.84 840.426L1914.35 824.426C1937.43 817.933 1960.88 812.12 1984.04 807.16L1987.52 823.413C1964.71 828.293 1941.6 834.026 1918.84 840.426ZM2545.63 855.693C2523.16 848.226 2500.35 841.413 2477.83 835.453L2482.08 819.386C2504.93 825.44 2528.07 832.346 2550.87 839.92L2545.63 855.693V855.693ZM1785.16 886.92L1778.8 871.573C1800.99 862.36 1823.55 853.76 1845.87 845.986L1851.33 861.68C1829.32 869.346 1807.05 877.84 1785.16 886.92ZM2677.11 908.08C2655.57 898.066 2633.71 888.613 2612.11 880L2618.27 864.56C2640.15 873.293 2662.31 882.866 2684.12 893.013L2677.11 908.08V908.08ZM1657.48 948.28L1649.51 933.706C1670.57 922.173 1692.04 911.133 1713.31 900.893L1720.51 915.88C1699.51 925.986 1678.29 936.88 1657.48 948.28ZM2802.28 974.386C2781.84 962.226 2761.05 950.546 2740.52 939.653L2748.31 924.96C2769.08 935.986 2790.09 947.813 2810.77 960.106L2802.28 974.386ZM1536.63 1022.43L1527.27 1008.69C1547.07 995.2 1567.32 982.08 1587.47 969.706L1596.16 983.88C1576.24 996.106 1556.21 1009.08 1536.63 1022.43ZM2920.77 1052.27C2901.43 1038.35 2881.79 1024.8 2862.37 1012.03L2871.51 998.146C2891.12 1011.04 2910.96 1024.72 2930.48 1038.79L2920.77 1052.27ZM1423.16 1107.59L1412.6 1094.76C1431.03 1079.59 1449.99 1064.68 1468.96 1050.43L1478.95 1063.72C1460.16 1077.81 1441.4 1092.57 1423.16 1107.59ZM3032.6 1139.61C3014.37 1124.25 2995.83 1109.2 2977.51 1094.88L2987.73 1081.77C3006.23 1096.23 3024.92 1111.41 3043.31 1126.89L3032.6 1139.61ZM1317.72 1202.59L1306.04 1190.76C1322.76 1174.24 1340.33 1157.68 1358.25 1141.55L1369.37 1153.89C1351.64 1169.87 1334.27 1186.24 1317.72 1202.59ZM3138.11 1234.64C3120.89 1218.12 3103.41 1201.84 3086.12 1186.25L3097.25 1173.91C3114.67 1189.61 3132.28 1206.01 3149.61 1222.65L3138.11 1234.64Z" fill="white"/>
<path id="path34" d="M3213.07 1309.81C3205.04 1301.41 3196.85 1292.96 3188.73 1284.69L3200.59 1273.05C3208.76 1281.37 3217 1289.88 3225.08 1298.33L3213.07 1309.81" fill="white"/>
<path id="path36" d="M3150.76 179.813C3150.73 179.8 3150.71 179.787 3150.67 179.76C3150.71 179.773 3150.73 179.8 3150.76 179.813ZM3150.05 179.36C3150.01 179.347 3149.97 179.307 3149.93 179.28C3149.97 179.307 3150.01 179.333 3150.05 179.36ZM3148.08 178.107C3148.01 178.053 3147.96 178.027 3147.89 177.987C3147.95 178.013 3148.03 178.067 3148.08 178.107ZM3147.4 177.667C3147.29 177.6 3147.21 177.547 3147.11 177.48C3147.2 177.547 3147.31 177.613 3147.4 177.667ZM3146.64 177.187C3146.53 177.12 3146.41 177.04 3146.31 176.973C3146.41 177.04 3146.53 177.12 3146.64 177.187ZM3145.87 176.693C3145.72 176.6 3145.53 176.48 3145.39 176.387C3145.55 176.493 3145.71 176.6 3145.87 176.693ZM3144.84 176.053C3144.67 175.933 3144.52 175.853 3144.35 175.733C3144.51 175.84 3144.68 175.947 3144.84 176.053ZM3144 175.507C3143.85 175.413 3143.68 175.32 3143.53 175.227C3143.68 175.32 3143.85 175.413 3144 175.507ZM3143.19 175C3143.04 174.907 3142.84 174.787 3142.69 174.693C3142.87 174.8 3143.03 174.907 3143.19 175ZM3142.39 174.493C3142.13 174.333 3141.87 174.173 3141.61 174.013C3141.87 174.173 3142.13 174.333 3142.39 174.493ZM3141.51 173.947C3141.29 173.813 3141.03 173.64 3140.8 173.507C3141.04 173.653 3141.28 173.8 3141.51 173.947ZM3140.52 173.333C3140.35 173.213 3140.17 173.107 3139.99 172.987C3140.17 173.107 3140.35 173.213 3140.52 173.333ZM3139.69 172.813C3139.51 172.693 3139.31 172.56 3139.12 172.453C3139.32 172.573 3139.51 172.693 3139.69 172.813ZM3138.88 172.307C3138.37 171.987 3137.77 171.613 3137.25 171.28C3137.8 171.627 3138.35 171.96 3138.88 172.307ZM3137.01 171.147C3136.8 171 3136.65 170.92 3136.44 170.773C3136.63 170.893 3136.83 171.027 3137.01 171.147ZM3136.16 170.613C3135.95 170.467 3135.8 170.387 3135.57 170.24C3135.77 170.373 3135.96 170.48 3136.16 170.613ZM3135.33 170.093C3134.83 169.773 3134.23 169.413 3133.71 169.08C3134.25 169.427 3134.79 169.76 3135.33 170.093ZM3133.47 168.947C3133.25 168.813 3133.09 168.707 3132.87 168.573C3133.07 168.693 3133.27 168.827 3133.47 168.947ZM3132.6 168.413C3132.43 168.293 3132.2 168.16 3132.01 168.053C3132.21 168.173 3132.4 168.293 3132.6 168.413ZM3131.77 167.907C3131.52 167.747 3131.21 167.56 3130.96 167.4C3131.23 167.56 3131.51 167.733 3131.77 167.907ZM3130.49 167.12C3130.39 167.04 3130.28 166.987 3130.17 166.92C3130.28 166.987 3130.39 167.053 3130.49 167.12ZM3130.01 166.827C3129.91 166.747 3129.84 166.707 3129.72 166.64C3129.83 166.707 3129.92 166.76 3130.01 166.827ZM3129.52 166.52C3129.44 166.467 3129.35 166.413 3129.27 166.36C3129.35 166.413 3129.44 166.467 3129.52 166.52ZM3128.96 166.173C3128.92 166.16 3128.87 166.12 3128.83 166.093C3128.87 166.12 3128.92 166.147 3128.96 166.173Z" fill="white"/>
<g id="cloud-1">
<path id="path40" d="M3042.28 409.133H2869.56C2856.83 408.506 2844.08 408.24 2831.31 408.24C2816.28 408.24 2801.23 408.6 2786.19 409.133H2451.44C2451.16 406.226 2451 403.293 2451 400.32C2451 350.186 2491.65 309.533 2541.79 309.533C2557.81 309.533 2572.85 313.706 2585.92 320.986C2600.12 281.893 2632.23 251.386 2672.32 239.4C2679.91 239.586 2687.51 239.707 2695.11 239.707C2711.2 239.707 2727.29 239.213 2743.27 238C2777.25 246.72 2805.95 268.586 2823.63 297.866C2833.72 294.72 2844.45 293.026 2855.57 293.026C2898.6 293.026 2935.71 318.36 2952.81 354.933C2958.69 353.4 2964.85 352.586 2971.21 352.586C3005.87 352.586 3034.84 376.746 3042.28 409.133" fill="white"/>
</g>
<path id="path42" d="M2170.35 621.946C2162.68 618.013 2155.4 613.586 2148.63 608.626C2156.56 611.973 2163.87 616.48 2170.35 621.946Z" fill="white"/>
<path id="path46" d="M1671.2 642.6C1675.63 638.04 1679.95 633.386 1684.17 628.613C1679.95 633.4 1675.63 638.04 1671.2 642.6ZM1684.21 628.573C1684.31 628.466 1684.4 628.36 1684.49 628.266C1684.41 628.36 1684.31 628.48 1684.21 628.573ZM1684.56 628.186C1684.63 628.106 1684.69 628.026 1684.77 627.946C1684.69 628.026 1684.63 628.12 1684.56 628.186ZM1684.87 627.84C1684.92 627.786 1684.97 627.72 1685.03 627.666C1684.97 627.72 1684.92 627.786 1684.87 627.84ZM1685.27 627.373C1685.29 627.36 1685.31 627.333 1685.33 627.306C1685.32 627.333 1685.29 627.36 1685.27 627.373ZM1685.52 627.106C1685.52 627.093 1685.53 627.08 1685.53 627.08L1685.52 627.106ZM1690.4 621.426C1690.43 621.386 1690.45 621.36 1690.48 621.333C1690.47 621.346 1690.43 621.4 1690.4 621.426ZM1690.73 621.026C1690.77 620.973 1690.83 620.92 1690.87 620.866C1690.81 620.933 1690.79 620.973 1690.73 621.026ZM1690.97 620.746C1691.07 620.64 1691.15 620.546 1691.23 620.44C1691.15 620.546 1691.07 620.64 1690.97 620.746ZM1691.6 619.986C1691.64 619.946 1691.68 619.906 1691.72 619.853C1691.67 619.92 1691.65 619.933 1691.6 619.986ZM1692.03 619.493C1692.05 619.466 1692.08 619.426 1692.11 619.4C1692.08 619.426 1692.04 619.466 1692.03 619.493ZM1692.49 618.946C1692.51 618.92 1692.52 618.893 1692.55 618.88C1692.53 618.893 1692.51 618.92 1692.49 618.946ZM1692.92 618.426C1692.93 618.413 1692.93 618.4 1692.95 618.4L1692.92 618.426ZM1693.75 617.44C1693.77 617.413 1693.8 617.373 1693.83 617.346C1693.8 617.386 1693.79 617.4 1693.75 617.44ZM1695.92 614.866C1695.93 614.84 1695.96 614.826 1695.97 614.8C1695.96 614.826 1695.93 614.84 1695.92 614.866Z" fill="white"/>
<path id="path52" d="M1423.16 1107.59L1412.6 1094.76C1431.03 1079.59 1449.99 1064.68 1468.96 1050.43L1478.95 1063.72C1460.16 1077.81 1441.4 1092.57 1423.16 1107.59ZM1536.63 1022.43L1527.27 1008.69C1547.07 995.2 1567.32 982.08 1587.47 969.706L1596.16 983.88C1576.24 996.106 1556.21 1009.08 1536.63 1022.43ZM1657.48 948.28L1649.51 933.706C1670.57 922.173 1692.04 911.133 1713.31 900.893L1720.51 915.88C1699.51 925.986 1678.29 936.88 1657.48 948.28ZM1785.16 886.92L1778.8 871.573C1800.99 862.36 1823.55 853.76 1845.87 845.986L1851.33 861.68C1829.32 869.346 1807.05 877.84 1785.16 886.92Z" fill="white"/>
<path id="path54" d="M2272.61 1527.44H2427.68V1506.71H2272.61V1527.44Z" fill="#4A8FE6"/>
<path id="path56" d="M1121.8 1759.31H1184.02V1678.72H1121.8V1759.31Z" fill="#407EDE"/>
<path id="path58" d="M1121.8 2018.53H1184.02V1937.93H1121.8V2018.53Z" fill="#407EDE"/>
<path id="path60" d="M1217.41 1759.31H1279.63V1678.72H1217.41V1759.31Z" fill="#407EDE"/>
<path id="path62" d="M1313.01 1759.31H1375.23V1678.72H1313.01V1759.31Z" fill="#407EDE"/>
<path id="path64" d="M1313.01 2193.93H1375.23V2113.35H1313.01V2193.93Z" fill="#407EDE"/>
<path id="path66" d="M1217.41 1887.91H1279.63V1807.31H1217.41V1887.91Z" fill="#407EDE"/>
<path id="path68" d="M1217.41 2331.59H1279.63V2251H1217.41V2331.59Z" fill="#407EDE"/>
<path id="path70" d="M1217.41 2018.53H1279.63V1937.93H1217.41V2018.53Z" fill="#407EDE"/>
<path id="path72" d="M1395.19 2018.53H1457.4V1937.93H1395.19V2018.53Z" fill="#407EDE"/>
<path id="path74" d="M1395.19 2331.59H1457.4V2251H1395.19V2331.59Z" fill="#407EDE"/>
<path id="path76" d="M1473.41 1759.31H1535.63V1678.72H1473.41V1759.31Z" fill="#407EDE"/>
<path id="path78" d="M1977.91 1403.81H2012.47V1359.05H1977.91V1403.81Z" fill="#407EDE"/>
<path id="path80" d="M2049.8 1403.81H2084.37V1359.05H2049.8V1403.81Z" fill="#407EDE"/>
<path id="path82" d="M1977.91 1482.83H2012.47V1438.05H1977.91V1482.83Z" fill="#407EDE"/>
<path id="path84" d="M2121.71 1482.83H2156.27V1438.05H2121.71V1482.83Z" fill="#407EDE"/>
<path id="path86" d="M2049.8 1561.84H2084.37V1517.07H2049.8V1561.84Z" fill="#407EDE"/>
<path id="path88" d="M2121.71 1561.84H2156.27V1517.07H2121.71V1561.84Z" fill="#407EDE"/>
<path id="path90" d="M1977.91 1640.85H2012.47V1596.08H1977.91V1640.85Z" fill="#407EDE"/>
<path id="path92" d="M2121.71 1640.85H2156.27V1596.08H2121.71V1640.85Z" fill="#407EDE"/>
<path id="path94" d="M1977.91 1719.87H2012.47V1675.09H1977.91V1719.87Z" fill="#407EDE"/>
<path id="path96" d="M2049.8 1719.87H2084.37V1675.09H2049.8V1719.87Z" fill="#407EDE"/>
<path id="path98" d="M2121.71 1798.88H2156.27V1754.11H2121.71V1798.88Z" fill="#407EDE"/>
<path id="path100" d="M1977.91 1956.91H2012.47V1912.13H1977.91V1956.91Z" fill="#407EDE"/>
<path id="path102" d="M2537.91 1824.81H2572.47V1780.05H2537.91V1824.81Z" fill="#407EDE"/>
<path id="path104" d="M2729.91 1824.81H2764.47V1780.05H2729.91V1824.81Z" fill="#407EDE"/>
<path id="path106" d="M2631.35 1703.21H2665.91V1658.44H2631.35V1703.21Z" fill="#407EDE"/>
<path id="path108" d="M3186.88 1770.76H3221.44V1726H3186.88V1770.76Z" fill="#407EDE"/>
<path id="path110" d="M3302.47 1770.76H3337.03V1726H3302.47V1770.76Z" fill="#407EDE"/>
<path id="path112" d="M3302.47 1850.57H3337.03V1805.8H3302.47V1850.57Z" fill="#407EDE"/>
<path id="path114" d="M3186.88 1930.37H3221.44V1885.6H3186.88V1930.37Z" fill="#407EDE"/>
<path id="path116" d="M3302.47 1930.37H3337.03V1885.6H3302.47V1930.37Z" fill="#407EDE"/>
<path id="path118" d="M3186.88 2010.17H3221.44V1965.4H3186.88V2010.17Z" fill="#407EDE"/>
<path id="path120" d="M3244.67 2089.97H3279.23V2045.21H3244.67V2089.97Z" fill="#407EDE"/>
<path id="path122" d="M3302.47 2089.97H3337.03V2045.21H3302.47V2089.97Z" fill="#407EDE"/>
<path id="path124" d="M3302.47 2169.77H3337.03V2125.01H3302.47V2169.77Z" fill="#407EDE"/>
<path id="path126" d="M3186.88 2249.59H3221.44V2204.81H3186.88V2249.59Z" fill="#407EDE"/>
<path id="path128" d="M3244.67 2249.59H3279.23V2204.81H3244.67V2249.59Z" fill="#407EDE"/>
<path id="path130" d="M2705.6 1703.21H2740.16V1658.44H2705.6V1703.21Z" fill="#407EDE"/>
<path id="path132" d="M2601.91 1914.89H2636.47V1870.12H2601.91V1914.89Z" fill="#407EDE"/>
<path id="path134" d="M2538.49 2004.96H2537.91V2001.65C2538.11 2002.76 2538.31 2003.87 2538.49 2004.96Z" fill="#407EDE"/>
<path id="path136" d="M2665.91 2004.96H2700.47V1960.2H2665.91V2004.96Z" fill="#407EDE"/>
<path id="path138" d="M2729.91 2004.96H2764.47V1960.2H2729.91V2004.96Z" fill="#407EDE"/>
<path id="path140" d="M2636.47 2061.19C2635.09 2057.59 2633.75 2053.95 2632.44 2050.27H2636.47V2061.19Z" fill="#407EDE"/>
<path id="path142" d="M2563.63 2185.11H2537.91V2140.35H2558.39C2560.29 2155.83 2562.04 2170.83 2563.63 2185.11" fill="#407EDE"/>
<path id="path144" d="M2700.47 2155.36C2693.96 2151.45 2687.81 2146.37 2681.99 2140.35H2700.47V2155.36Z" fill="#407EDE"/>
<path id="path146" d="M2729.91 2185.11H2764.47V2140.35H2729.91V2185.11Z" fill="#407EDE"/>
<path id="path148" d="M2548.79 2361.85H2537.91V2320.49H2572.31L2548.79 2361.85Z" fill="#407EDE"/>
<path id="path150" d="M1473.41 2193.93H1535.63V2113.35H1473.41V2193.93Z" fill="#407EDE"/>
<path id="path152" d="M1673.51 1720.49H1864.32V1699.75H1673.51V1720.49Z" fill="#4284E2"/>
<path id="path154" d="M2272.61 1661.75H2427.68V1641H2272.61V1661.75Z" fill="#4284E2"/>
<path id="path156" d="M2272.61 1706.52H2427.68V1685.77H2272.61V1706.52Z" fill="#4284E2"/>
<path id="path158" d="M2272.61 1840.81H2427.68V1820.08H2272.61V1840.81Z" fill="#4284E2"/>
<path id="path160" d="M2893.95 1800.79H3049.01V1780.05H2893.95V1800.79Z" fill="#4284E2"/>
<path id="path162" d="M2893.95 1845.56H3049.01V1824.81H2893.95V1845.56Z" fill="#4284E2"/>
<path id="path164" d="M2893.95 1935.09H3049.01V1914.35H2893.95V1935.09Z" fill="#4284E2"/>
<path id="path166" d="M2893.95 2069.4H3049.01V2048.65H2893.95V2069.4Z" fill="#4284E2"/>
<path id="path168" d="M2893.95 2158.93H3049.01V2138.19H2893.95V2158.93Z" fill="#4284E2"/>
<path id="path170" d="M2893.95 2248.47H3049.01V2227.72H2893.95V2248.47Z" fill="#4284E2"/>
<path id="path172" d="M3049.01 2338H2949.63C2945.28 2330.77 2940.49 2323.85 2935.28 2317.27H3049.01V2338Z" fill="#4284E2"/>
<path id="path174" d="M2272.61 1975.12H2427.68V1954.37H2272.61V1975.12Z" fill="#4284E2"/>
<path id="path176" d="M2272.61 2064.65H2427.68V2043.92H2272.61V2064.65Z" fill="#4284E2"/>
<path id="path178" d="M1673.51 1780.05H1864.32V1759.31H1673.51V1780.05Z" fill="#4284E2"/>
<path id="path180" d="M1673.51 1839.6H1864.32V1818.87H1673.51V1839.6Z" fill="#4284E2"/>
<path id="path182" d="M1673.51 1958.72H1864.32V1937.97H1673.51V1958.72Z" fill="#4284E2"/>
<path id="path184" d="M1673.51 2077.83H1864.32V2057.08H1673.51V2077.83Z" fill="#4284E2"/>
<path id="path186" d="M1673.51 2129.07V2116.64H1696.95C1696.92 2116.65 1696.88 2116.65 1696.85 2116.67C1688.19 2119.04 1680.43 2123.39 1673.51 2129.07" fill="#4284E2"/>
<path id="path188" d="M1782.81 2256.49H1673.51V2239.16L1864.32 2242.09V2243.19C1861.05 2243.03 1857.79 2242.95 1854.48 2242.95C1829.19 2242.95 1805.01 2247.75 1782.81 2256.49" fill="#4284E2"/>
<path id="path190" d="M1673.51 2364.19V2354.87H1677.64C1676.19 2357.92 1674.8 2361.04 1673.51 2364.19Z" fill="#4284E2"/>
<path id="path192" d="M2272.61 1572.21H2427.68V1551.47H2272.61V1572.21Z" fill="#4A8FE6"/>
<path id="path194" d="M1190.54 1383.55C1190.7 1370.72 1201.23 1360.45 1214.05 1360.61C1226.88 1360.77 1237.14 1371.31 1236.98 1384.12C1236.82 1396.95 1226.29 1407.21 1213.47 1407.05C1200.64 1406.89 1190.38 1396.36 1190.54 1383.55ZM1167.63 1401.99L1212.41 1490.88L1259.42 1403.15C1273.34 1370.96 1251 1334.25 1215.97 1332.79C1215.45 1332.77 1214.93 1332.76 1214.4 1332.75C1213.88 1332.75 1213.36 1332.75 1212.84 1332.75C1177.79 1333.32 1154.53 1369.47 1167.63 1401.99" fill="#FF5B7E"/>
<path id="path200" d="M1201.05 2361.19C1245.55 2362.01 1289.43 2349.81 1326.71 2325.51C1356.68 2305.96 1384.77 2277.17 1389.96 2236.56C1401.83 2143.73 1348.35 2146.8 1335.24 2108.95C1322.12 2071.09 1361.03 2054.15 1344.23 1985.19C1335.21 1948.15 1306.67 1932.11 1262.16 1872.59C1217.64 1813.05 1163.72 1782.55 1124.37 1804.75C1085.03 1826.95 1086.61 1874.68 1057.35 1890.59C1028.09 1906.49 983.127 1961.97 1000.28 2067.49C1017.43 2173 901.405 2133.65 946.807 2255.72C980.093 2345.23 1125.71 2359.79 1201.05 2361.19" fill="#7F00FF"/>
<path id="path202" d="M1148.08 2281.39C1152.21 2340.01 1158.27 2573.49 1149.48 2593.79C1136.36 2624.05 1205.16 2586.35 1205.16 2586.35C1205.16 2586.35 1186.87 2446.95 1176.28 2378.87C1171.57 2348.56 1162.92 2257.39 1162.84 2249.45C1163.2 2248.73 1163.57 2248.01 1163.95 2247.29C1165.19 2244.95 1166.56 2242.64 1167.98 2240.36C1170.84 2235.81 1173.99 2231.39 1177.39 2227.13C1184.2 2218.63 1191.99 2210.81 1200.47 2203.73C1216.43 2190.01 1238.39 2178.27 1258.49 2170.88C1233.31 2177.24 1211.05 2187.8 1196.23 2198.04C1186.68 2204.44 1177.65 2211.76 1169.46 2220.05C1167.39 2222.15 1165.37 2224.29 1163.41 2226.52C1164.13 2216.32 1165.52 2208.23 1167.69 2203C1170.18 2196.96 1177.43 2186.75 1186.32 2172.29C1195.71 2161.96 1207.69 2150.91 1220.55 2141.43C1234.54 2131.16 1249.45 2122.75 1266.22 2118.08C1248.64 2120.48 1232.29 2127 1216.75 2135.43C1211.85 2138.11 1207.05 2140.95 1202.23 2144.04C1222.54 2104.05 1242.49 2045.49 1234.27 1967.67C1234.27 1967.67 1231.97 2019.99 1219.07 2067.76C1216.95 2060 1214.01 2052.59 1210.63 2045.45C1202.04 2028.29 1196.37 2020.77 1184.5 2006.09C1194.39 2021.91 1199.06 2029.92 1205.38 2047.61C1217.52 2083.99 1210.29 2096.91 1203 2110.68C1182.85 2148.73 1158.48 2176.12 1148.1 2198.41C1144.21 2191.17 1140.25 2183.99 1136.23 2176.83C1127.62 2161.57 1118.78 2146.47 1109.57 2131.59C1108.08 2129.17 1106.57 2126.76 1105.06 2124.36C1103.66 2120.23 1103.5 2119.97 1102.11 2114.15C1101.5 2111.53 1100.94 2108.91 1100.45 2106.25C1099.47 2100.96 1098.64 2095.63 1098.06 2090.24C1097.49 2084.87 1097.03 2079.45 1096.86 2074.03C1096.56 2068.32 1096.73 2061.97 1096.81 2057.71C1096.3 2061.83 1095.45 2068.25 1095.16 2074.01C1094.76 2079.47 1094.65 2084.95 1094.66 2090.44C1094.68 2095.93 1094.95 2101.44 1095.39 2106.93C1095.46 2107.85 1095.55 2108.76 1095.64 2109.67L1095.49 2109.43C1090.68 2102.12 1085.81 2094.85 1080.73 2087.73C1075.66 2080.6 1070.45 2073.56 1065 2066.73C1059.54 2059.89 1053.82 2053.27 1047.63 2047.12C1053.39 2053.67 1058.62 2060.64 1063.58 2067.79C1068.53 2074.95 1073.22 2082.27 1077.77 2089.68C1082.32 2097.09 1086.67 2104.63 1090.94 2112.2C1095.21 2119.77 1099.35 2127.41 1103.41 2135.11C1103.93 2136.09 1104.45 2137.08 1104.97 2138.07C1095.75 2135.6 1086.68 2133.84 1077.25 2132.37C1061.85 2130.17 1056.13 2129.75 1041.32 2128.84C1055.97 2131.13 1061.55 2132.09 1076.58 2135.72C1091.92 2139.61 1102.93 2143.53 1109.23 2146.28C1115.27 2158.01 1121.1 2169.84 1126.78 2181.73C1130.52 2189.57 1134.19 2197.45 1137.75 2205.36C1139.18 2208.55 1141.28 2211.52 1142 2214.93C1144.62 2227.33 1148.08 2281.39 1148.08 2281.39" fill="#07085B"/>
<path id="path204" d="M3231.32 1438.63C3231.53 1425.8 3242.11 1415.59 3254.93 1415.8C3267.75 1416.03 3277.97 1426.6 3277.76 1439.41C3277.53 1452.24 3266.96 1462.45 3254.15 1462.24C3241.32 1462.03 3231.09 1451.45 3231.32 1438.63ZM3208.32 1456.97L3252.72 1546.07L3300.11 1458.53C3314.17 1426.41 3291.99 1389.6 3256.96 1387.99C3256.44 1387.97 3255.92 1387.95 3255.4 1387.95C3254.88 1387.93 3254.36 1387.93 3253.84 1387.93C3218.79 1388.36 3195.36 1424.4 3208.32 1456.97Z" fill="#07085B"/>
<path id="path206" d="M840.027 2551.6C840.027 2551.6 843.879 2487.6 899.583 2493.53C899.583 2493.53 975.435 2372.64 1054.84 2543.31C1054.84 2543.31 1126.54 2504.56 1152.91 2588.83C1152.91 2588.83 1197.06 2506.57 1259.88 2533.83C1322.69 2561.08 1344.12 2635.93 1344.12 2635.93L880.508 2645.81L840.027 2551.6Z" fill="#70C0FD"/>
<path id="path210" d="M2148.53 1330.44C2155.31 1349.59 2169.2 1374.95 2196.99 1387.73C2208.71 1366.95 2222.8 1342.27 2224.12 1341.39V1304.03L2179.43 1278.95L2148.53 1330.44Z" fill="#F99893"/>
<path id="path212" d="M1649.79 2082.44C1649.79 2082.44 1634.25 2071.48 1619.4 2106.56C1604.56 2141.65 1624.51 2155.6 1624.51 2155.6C1624.51 2155.6 1650.04 2136.71 1649.79 2133.11C1649.55 2129.51 1648.63 2084.2 1648.63 2084.2L1649.79 2082.44Z" fill="white"/>
<path id="path214" d="M1675.33 2069.79C1675.33 2069.79 1662.76 2062.04 1648.63 2084.2C1643.41 2092.36 1637.99 2104.59 1632.89 2122.76C1614 2190.24 1632.89 2190.24 1632.89 2190.24L1664.61 2176.75C1664.61 2176.75 1694.97 2099.37 1693.17 2093.07C1691.37 2086.77 1675.33 2069.79 1675.33 2069.79" fill="#FAA842"/>
<path id="path216" d="M1942.12 1896.04H1414.55C1410.43 1896.04 1407.08 1899.39 1407.08 1903.51V1909.25C1407.08 1913.39 1410.43 1916.73 1414.55 1916.73H1942.12C1946.24 1916.73 1949.59 1913.39 1949.59 1909.25V1903.51C1949.59 1899.39 1946.24 1896.04 1942.12 1896.04" fill="#283F56"/>
<path id="path218" d="M1847.71 2002.88H1811.27V1906.39H1847.71V2002.88Z" fill="#283F56"/>
<path id="path220" d="M1555.21 1976.56H1543.01C1534.28 1976.56 1527.19 1969.47 1527.19 1960.72V1887.49H1571.04V1960.72C1571.04 1969.47 1563.96 1976.56 1555.21 1976.56" fill="#283F56"/>
<path id="path222" d="M1564.97 1954.63C1570.21 1960.61 1697.91 2080.81 1697.91 2080.81L1687.11 2095.67L1552.15 1962.56L1564.97 1954.63" fill="#283F56"/>
<path id="path224" d="M2724.72 2176.28H2731.87C2746.77 2176.28 2758.87 2188.37 2758.87 2203.28V2237.92H2725.57C2725.57 2237.92 2710.73 2212.28 2705.33 2217.68C2699.93 2223.08 2724.72 2176.28 2724.72 2176.28Z" fill="#FFE5B6"/>
<g id="left-wheel">
<path id="path226" d="M2050.08 2438.55C2050.08 2546.59 1962.51 2634.16 1854.48 2634.16C1746.45 2634.16 1658.88 2546.59 1658.88 2438.55C1658.88 2330.52 1746.45 2242.95 1854.48 2242.95C1962.51 2242.95 2050.08 2330.52 2050.08 2438.55Z" fill="#1A1A1A"/>
</g>
<path id="path228" d="M1942.65 2438.55C1942.65 2487.24 1903.17 2526.72 1854.48 2526.72C1805.79 2526.72 1766.31 2487.24 1766.31 2438.55C1766.31 2389.85 1805.79 2350.39 1854.48 2350.39C1903.17 2350.39 1942.65 2389.85 1942.65 2438.55" fill="#9E9DA2"/>
<g id="right-wheel">
<path id="path230" d="M2977.41 2438.55C2977.41 2546.59 2889.84 2634.16 2781.81 2634.16C2673.77 2634.16 2586.2 2546.59 2586.2 2438.55C2586.2 2330.52 2673.77 2242.95 2781.81 2242.95C2889.84 2242.95 2977.41 2330.52 2977.41 2438.55Z" fill="#1A1A1A"/>
</g>
<path id="path232" d="M2869.97 2438.55C2869.97 2487.24 2830.51 2526.72 2781.81 2526.72C2733.12 2526.72 2693.64 2487.24 2693.64 2438.55C2693.64 2389.85 2733.12 2350.39 2781.81 2350.39C2830.51 2350.39 2869.97 2389.85 2869.97 2438.55" fill="#9E9DA2"/>
<path id="path234" d="M2088.04 2409.73H1625.93C1603.45 2409.73 1585.24 2391.52 1585.24 2369.05V2327.2C1585.24 2304.72 1603.45 2286.51 1625.93 2286.51H2088.04V2409.73Z" fill="#283F56"/>
<path id="path236" d="M2176.52 2055.88H1791.68C1777.03 2055.88 1765.16 2044 1765.16 2029.35V2008.93C1765.16 1994.28 1777.03 1982.41 1791.68 1982.41H2176.52C2191.17 1982.41 2203.04 1994.28 2203.04 2008.93V2029.35C2203.04 2044 2191.17 2055.88 2176.52 2055.88Z" fill="#FAA842"/>
<path id="path238" d="M2187.72 2048.99C2187.72 2048.99 2152.69 2068.33 2124.36 2149.31C2096.01 2230.27 2102.09 2352.41 2278.2 2361.85H2548.79L2575.77 2314.4C2575.77 2314.4 2552.84 1991.4 2500.2 1848.35H2589.27C2589.27 1848.35 2616.16 2123.29 2710.61 2160.4C2719.71 2163.96 2725.57 2172.85 2725.57 2182.61V2237.03L2582.52 2421.91H2111.53C2111.53 2421.91 2000.87 2431.67 1973.88 2243.77L1654.56 2238.88C1637.05 2238.6 1624.65 2221.63 1629.79 2204.89C1639.76 2172.47 1660.04 2126.72 1696.85 2116.67C1755.25 2100.72 2187.72 2048.99 2187.72 2048.99Z" fill="#333333"/>
<path id="path240" d="M1671.83 2127.16C1672.25 2127.89 1672.71 2128.63 1673.17 2129.36H2131.96L2136.64 2118.56C2161.89 2063.25 2187.72 2048.99 2187.72 2048.99H1717.16C1677.04 2048.99 1651.32 2092.67 1671.83 2127.16Z" fill="#283F56"/>
<path id="path242" d="M1644.03 2286.51H1986.81C2023.65 2286.51 2049.51 2250.17 2037.41 2215.39C2019.15 2162.85 1976.71 2106.35 1872.21 2096.67C1737.25 2084.17 1655.64 2192.01 1623.35 2251.88C1614.91 2267.52 1626.25 2286.51 1644.03 2286.51" fill="#FAA842"/>
<path id="path244" d="M2582.52 2421.91L2687.79 2251.87C2687.79 2251.87 2741.77 2210.03 2848.39 2231.63C2914.6 2245.04 2953.75 2289.23 2973.91 2320.77C2983.25 2335.41 2972.83 2354.59 2955.47 2354.59H2793.37C2743.67 2354.59 2696.65 2377.08 2665.47 2415.77L2661.31 2420.93C2638.8 2448.85 2604.85 2465.09 2568.99 2465.09C2544.75 2465.09 2521.41 2455.84 2503.75 2439.23L2485.36 2421.91H2582.52" fill="#FAA842"/>
<path id="path246" d="M2596.56 1679.05C2596.56 1664.76 2583.49 1654.01 2569.47 1656.77C2509.77 1668.52 2447.11 1716.35 2447.11 1773.59C2447.11 1830.81 2509.77 1878.64 2569.47 1890.39C2583.49 1893.15 2596.56 1882.4 2596.56 1868.11V1679.05Z" fill="#FAA842"/>
<path id="path248" d="M2596.56 1679.56V1867.6C2636.43 1854.93 2665.31 1817.64 2665.31 1773.59C2665.31 1729.52 2636.43 1692.23 2596.56 1679.56Z" fill="white"/>
<path id="path250" d="M1910.91 1896.04H1445.76V1615.56H1910.91V1896.04Z" fill="#FAA842"/>
<path id="path252" d="M1920.8 1580.24H1435.87V1615.56H1920.8V1580.24Z" fill="#F88900"/>
<path id="path254" d="M1558.73 1952.95C1558.73 1958.25 1554.43 1962.56 1549.12 1962.56C1543.8 1962.56 1539.49 1958.25 1539.49 1952.95C1539.49 1947.63 1543.8 1943.33 1549.12 1943.33C1554.43 1943.33 1558.73 1947.63 1558.73 1952.95Z" fill="#282828"/>
<path id="path256" d="M1960.61 2181.91H1739.09C1736.53 2181.91 1734.47 2179.84 1734.47 2177.28V2173.72C1734.47 2171.16 1736.53 2169.09 1739.09 2169.09H1960.61C1963.16 2169.09 1965.24 2171.16 1965.24 2173.72V2177.28C1965.24 2179.84 1963.16 2181.91 1960.61 2181.91Z" fill="#333333"/>
<path id="path258" d="M1960.61 2214.35H1739.09C1736.53 2214.35 1734.47 2212.27 1734.47 2209.72V2206.15C1734.47 2203.6 1736.53 2201.52 1739.09 2201.52H1960.61C1963.16 2201.52 1965.24 2203.6 1965.24 2206.15V2209.72C1965.24 2212.27 1963.16 2214.35 1960.61 2214.35Z" fill="#333333"/>
<path id="path260" d="M2361.91 2192L2345 2373.61L2330.47 2399.79L2304.35 2380.89L2304.88 2187.35L2361.91 2192" fill="#FFC0BB"/>
<path id="path264" d="M2518.17 2412.13L2405.43 2412.52C2404.55 2412.52 2403.83 2411.81 2403.83 2410.93L2403.8 2402.45C2403.8 2401.57 2404.51 2400.85 2405.39 2400.84L2518.13 2400.47C2519.01 2400.47 2519.73 2401.17 2519.73 2402.05L2519.76 2410.53C2519.77 2411.41 2519.05 2412.13 2518.17 2412.13Z" fill="#DAEEF7"/>
<path id="path268" d="M2454.75 2377.8C2454 2377.36 2453.73 2376.11 2454.16 2375.16C2456.15 2370.71 2462.39 2359.87 2475.15 2362.04C2475.88 2362.17 2476.39 2363.15 2476.27 2364.16L2476.25 2364.19C2476.15 2365.17 2475.48 2365.81 2474.76 2365.69C2463.32 2363.77 2458.03 2373.33 2456.41 2377.07C2456.07 2377.87 2455.36 2378.17 2454.75 2377.8" fill="#DAEEF7"/>
<path id="path270" d="M2465.37 2381.95C2464.63 2381.49 2464.36 2380.25 2464.77 2379.31C2466.77 2374.85 2473 2364 2485.77 2366.19C2486.51 2366.31 2487.01 2367.29 2486.89 2368.29L2486.88 2368.33C2486.76 2369.31 2486.11 2369.95 2485.39 2369.84C2473.95 2367.92 2468.65 2377.48 2467.04 2381.21C2466.69 2382.01 2465.99 2382.32 2465.37 2381.95" fill="#DAEEF7"/>
<path id="path272" d="M2475.25 2385.81C2474.51 2385.36 2474.24 2384.12 2474.67 2383.17C2476.65 2378.72 2482.88 2367.87 2495.65 2370.05C2496.39 2370.17 2496.89 2371.16 2496.77 2372.16L2496.76 2372.2C2496.65 2373.17 2495.99 2373.81 2495.27 2373.69C2483.83 2371.79 2478.53 2381.35 2476.92 2385.08C2476.57 2385.87 2475.87 2386.19 2475.25 2385.81" fill="#DAEEF7"/>
<g id="g274">
<g id="g276">
<path id="path282" d="M2406.64 2385.8H2407.65V2376.97H2406.64V2385.8Z" fill="#312B28"/>
</g>
</g>
<path id="path284" d="M2410.55 2405.47L2410.53 2402.05C2410.53 2401.37 2410.09 2400.79 2409.49 2400.57C2409.53 2400.49 2409.56 2400.41 2409.6 2400.33C2411.01 2397.13 2411.28 2392.33 2406.69 2385.88C2406.68 2385.85 2406.65 2385.83 2406.64 2385.8L2407.65 2376.97C2408.23 2376.92 2408.83 2376.89 2409.45 2376.89C2417.28 2376.89 2429.72 2381.15 2437.25 2405.37L2410.55 2405.47Z" fill="#F84D64"/>
<path id="path286" d="M1960.61 2246.77H1739.09C1736.53 2246.77 1734.47 2244.71 1734.47 2242.15V2238.59C1734.47 2236.03 1736.53 2233.96 1739.09 2233.96H1960.61C1963.16 2233.96 1965.24 2236.03 1965.24 2238.59V2242.15C1965.24 2244.71 1963.16 2246.77 1960.61 2246.77Z" fill="#333333"/>
<path id="path300" d="M1835.07 1580.24H1748.6L1586.49 1896.04C1600.64 1896.04 1644.67 1896.04 1672.96 1896.04L1835.07 1580.24Z" fill="#333333"/>
<path id="path302" d="M1697.03 1694.01C1693.35 1692.12 1688.81 1693.57 1686.92 1697.27L1669.87 1730.48C1667.97 1734.16 1669.44 1738.69 1673.12 1740.59L1731.15 1770.37C1734.83 1772.27 1739.36 1770.8 1741.25 1767.12L1758.31 1733.91C1760.2 1730.23 1758.73 1725.69 1755.05 1723.8L1697.03 1694.01ZM1726.29 1779.83L1668.27 1750.04C1659.37 1745.47 1655.85 1734.52 1660.41 1725.63L1677.47 1692.4C1682.03 1683.51 1692.99 1679.99 1701.88 1684.56L1759.91 1714.35C1768.8 1718.91 1772.33 1729.87 1767.76 1738.76L1750.71 1771.97C1746.15 1780.87 1735.19 1784.39 1726.29 1779.83" fill="#FFE5B6"/>
<path id="path304" d="M2166.21 1248.16C2173.37 1263.73 2167.56 1281.2 2153.23 1287.17C2138.89 1293.16 2121.48 1285.39 2114.32 1269.81C2107.16 1254.24 2112.97 1236.79 2127.31 1230.8C2141.63 1224.81 2159.05 1232.59 2166.21 1248.16Z" fill="#FFC0BB"/>
<path id="path306" d="M2408.97 2412.13L2296.23 2412.52C2295.35 2412.52 2294.63 2411.81 2294.63 2410.93L2294.6 2402.45C2294.59 2401.57 2295.31 2400.85 2296.19 2400.84L2408.93 2400.47C2409.81 2400.47 2410.53 2401.17 2410.53 2402.05L2410.56 2410.53C2410.56 2411.41 2409.85 2412.13 2408.97 2412.13Z" fill="#DAEEF7"/>
<path id="path310" d="M2345.53 2377.8C2344.8 2377.36 2344.52 2376.11 2344.95 2375.16C2346.95 2370.71 2353.17 2359.87 2365.95 2362.04C2366.68 2362.17 2367.19 2363.15 2367.05 2364.16V2364.19C2366.93 2365.17 2366.28 2365.81 2365.56 2365.69C2354.12 2363.77 2348.83 2373.33 2347.21 2377.07C2346.87 2377.87 2346.16 2378.17 2345.53 2377.8Z" fill="#DAEEF7"/>
<path id="path312" d="M2356.16 2381.95C2355.43 2381.49 2355.15 2380.25 2355.57 2379.31C2357.56 2374.85 2363.8 2364 2376.56 2366.19C2377.31 2366.31 2377.8 2367.29 2377.68 2368.29V2368.33C2377.56 2369.31 2376.89 2369.95 2376.19 2369.84C2364.75 2367.92 2359.44 2377.48 2357.84 2381.21C2357.49 2382.01 2356.77 2382.32 2356.16 2381.95" fill="#DAEEF7"/>
<path id="path314" d="M2366.04 2385.81C2365.31 2385.36 2365.03 2384.12 2365.45 2383.17C2367.44 2378.72 2373.68 2367.87 2386.44 2370.05C2387.19 2370.17 2387.69 2371.16 2387.56 2372.16V2372.2C2387.44 2373.17 2386.77 2373.81 2386.07 2373.69C2374.63 2371.79 2369.33 2381.35 2367.72 2385.08C2367.37 2385.87 2366.67 2386.19 2366.04 2385.81" fill="#DAEEF7"/>
<path id="path316" d="M2295.99 2398.87C2295.99 2398.53 2296.01 2398.2 2296.05 2397.85C2296.01 2398.2 2295.99 2398.53 2295.99 2398.87Z" fill="#312B28"/>
<path id="path318" d="M2300.76 2405.47C2298.08 2405.47 2295.97 2402.44 2295.99 2398.87C2295.99 2398.53 2296.01 2398.2 2296.05 2397.85L2298.45 2376.97C2299.01 2376.92 2299.61 2376.89 2300.25 2376.89C2308.07 2376.89 2320.52 2381.15 2328.04 2405.37L2300.77 2405.47C2300.77 2405.47 2300.77 2405.47 2300.76 2405.47" fill="#F84D64"/>
<path id="path320" d="M2608.08 2469.67H2037.84C2024.39 2469.67 2013.47 2458.76 2013.47 2445.29V2426.52C2013.47 2413.07 2024.39 2402.15 2037.84 2402.15H2608.08C2621.55 2402.15 2632.45 2413.07 2632.45 2426.52V2445.29C2632.45 2458.76 2621.55 2469.67 2608.08 2469.67" fill="#283F56"/>
<path id="path322" d="M1749.99 2635.93H1372.11C1372.11 2635.93 1370.17 2635.35 1366.92 2634.27H1747.85C1748.56 2634.83 1749.27 2635.39 1749.99 2635.93Z" fill="#F4FCFF"/>
<path id="path328" d="M2245.83 2634.85C2245.53 2634.67 2245.23 2634.47 2244.93 2634.27H2326.45L2245.83 2634.85Z" fill="#F4FCFF"/>
<path id="path332" d="M3017.2 2635.05H2586.2C2586.2 2635.05 2585.97 2634.77 2585.59 2634.27H3016.55C3016.99 2634.79 3017.2 2635.05 3017.2 2635.05" fill="#F4FCFF"/>
<path id="path334" d="M3016.55 2634.27H2585.59C2581.75 2629.28 2562.49 2601.92 2601.53 2601.92C2609.33 2601.92 2619.44 2603.01 2632.45 2605.59C2632.45 2605.59 2607.85 2573.92 2629.61 2561.43C2665.47 2605.79 2720.32 2634.16 2781.81 2634.16C2843.63 2634.16 2898.76 2605.47 2934.6 2560.69C2983.84 2596.88 3011.99 2628.93 3016.55 2634.27Z" fill="#4E92E7" fill-opacity="0.9"/>
<path id="path340" d="M2001.77 2634.85H1887.87C1887.87 2634.85 1887.77 2634.65 1887.61 2634.27H2001.11C2001.33 2634.47 2001.55 2634.65 2001.77 2634.85" fill="#F4FCFF"/>
<g id="smoke">
<path id="path324" d="M1747.85 2634.27H1366.92C1361.08 2632.35 1350.96 2628.91 1340.15 2624.71C1336.43 2615.31 1329.93 2601.09 1319.97 2586.29C1330.48 2584.99 1344.81 2584.24 1363.81 2584.24C1366.49 2584.24 1369.24 2584.25 1372.11 2584.28C1372.11 2584.28 1290.94 2523.96 1383.45 2523.96C1394.47 2523.96 1407.93 2524.81 1424.29 2526.72C1578.15 2544.71 1592.53 2590.59 1592.53 2590.59C1592.53 2590.59 1600.85 2575.88 1626.76 2575.88C1650.28 2575.88 1688.32 2588 1747.85 2634.27" fill="#DCE9FA"/>
<path id="path326" d="M1340.15 2624.71C1307.76 2612.11 1269.11 2592.6 1319.97 2586.29C1329.93 2601.09 1336.43 2615.31 1340.15 2624.71" fill="#E2F2FF"/>
<path id="path330" d="M2326.45 2634.27H2244.93C2174.83 2588.41 2195.64 2576.71 2235.23 2576.71C2276.6 2576.71 2338.44 2589.49 2338.44 2589.49C2341.83 2583.45 2348.91 2580.97 2358.27 2580.97C2401.12 2580.97 2491.59 2633.07 2491.59 2633.07L2326.45 2634.27" fill="#DCE9FA"/>
<path id="path342" d="M2001.11 2634.27H1887.61C1887.39 2633.69 1887.01 2632.73 1886.63 2631.52C1914.09 2626.99 1939.63 2616.72 1961.96 2602.01C1972.95 2610.37 1985.91 2621 2001.11 2634.27" fill="#DCE9FA"/>
<path id="path344" d="M1886.63 2631.52C1884.79 2625.67 1882.83 2614.13 1895.81 2614.13C1900.17 2614.13 1906.2 2615.43 1914.48 2618.67C1914.48 2618.67 1892 2574.75 1912.23 2574.75C1920.41 2574.75 1935.55 2581.89 1961.96 2602.01C1939.63 2616.72 1914.09 2626.99 1886.63 2631.52" fill="#D1D1D1"/>
</g>
<g id="man-bike">
<path id="path208" d="M2224.12 1341.39C2221.81 1342.92 2180.99 1416.28 2180.99 1416.28L2126.04 1367.95L2179.43 1278.95L2224.12 1304.03V1341.39" fill="#FFC0BB"/>
<path id="path262" d="M2459.97 2174.97L2451.64 2373.61L2437.12 2399.79L2411 2380.89L2411.52 2187.35L2459.97 2174.97" fill="#FFC0BB"/>
<path id="path266" d="M2408.99 2365.39L2405.25 2397.85C2404.79 2401.85 2407.04 2405.48 2409.99 2405.47L2512.15 2405.13C2514.8 2405.12 2517.41 2403.45 2518.8 2400.33C2520.23 2397.13 2520.49 2392.33 2515.89 2385.88C2506.71 2372.97 2476.64 2369.93 2461.91 2358.93L2414.32 2359.09C2411.65 2359.11 2409.4 2361.77 2408.99 2365.39" fill="#FF5B7E"/>
<path id="path288" d="M2388.41 1924.69C2401.77 1925.72 2457.27 1948.33 2464.45 1988.41C2471.65 2028.49 2464.45 2339.88 2464.45 2339.88H2402.8C2402.8 2339.88 2353.47 2093.23 2353.47 2086.04C2353.47 2078.84 2388.41 1924.69 2388.41 1924.69" fill="#282828"/>
<path id="path290" d="M1965.01 1835.29C1966.04 1838.37 1951.47 1976.08 2091.84 1987.39C2232.2 1998.69 2313.39 2017.19 2313.39 2017.19C2313.39 2017.19 2293.87 2328.57 2294.89 2343.99C2294.89 2343.99 2343.19 2352.2 2363.75 2349.12C2363.75 2349.12 2473.71 2003.83 2441.85 1932.92C2409.99 1862 2156.16 1835.29 2156.16 1835.29H1965.01Z" fill="#333333"/>
<path id="path292" d="M2198.69 1587.71C2198.69 1587.71 2200.13 1654.73 2204.6 1660.95C2209.05 1667.15 2421.77 1748.4 2421.77 1748.4L2386.85 1787.88L2230.13 1743.11C2230.13 1743.11 2117.88 1702.84 2119.03 1699.93C2120.17 1697.03 2126.35 1655.79 2131.91 1639.64C2137.45 1623.48 2158.4 1586.97 2158.4 1586.97L2198.69 1587.71" fill="#F9B7B4"/>
<path id="path294" d="M2120.23 1353.83C2120.23 1353.83 1978.11 1405.47 1961.92 1686.01L1954.99 1845.56C1954.99 1845.56 2116.85 1914.93 2209.33 1854.81C2209.33 1854.81 2218.71 1570.05 2228.44 1465.95C2230.09 1448.39 2222.93 1431.17 2209.36 1419.92C2178.35 1394.24 2125.45 1351.41 2120.23 1353.83" fill="#FF5B7E"/>
<path id="path296" d="M2070.89 1553.16C2070.89 1553.16 2036.15 1696.79 2084.72 1736.25C2115.01 1760.87 2397.48 1809.13 2397.48 1809.13L2415.69 1765.11C2415.69 1765.11 2190.76 1684.83 2177.33 1675.53C2163.91 1666.23 2186.44 1543.44 2186.44 1543.44L2070.89 1553.16" fill="#FFC0BB"/>
<path id="path298" d="M2180.76 1405.79C2168.04 1394.49 2149.8 1391.52 2134.12 1398.13C2112.41 1407.29 2081.33 1433.33 2064.53 1506.63L2050.29 1569.87C2050.29 1569.87 2155.88 1595.79 2188.27 1594.32L2204.84 1496.55C2204.84 1496.55 2214.23 1435.45 2180.76 1405.79Z" fill="#FF3D5E"/>
<path id="path308" d="M2299.79 2365.39L2296.05 2397.85C2295.59 2401.85 2297.84 2405.48 2300.77 2405.47L2402.95 2405.13C2405.6 2405.12 2408.21 2403.45 2409.6 2400.33C2411.01 2397.13 2411.28 2392.33 2406.69 2385.88C2397.51 2372.97 2367.44 2369.93 2352.71 2358.93L2305.11 2359.09C2302.45 2359.11 2300.2 2361.77 2299.79 2365.39" fill="#FF5B7E"/>
<path id="path346" d="M2274.41 1316.53L2268.83 1338.31C2268.83 1338.31 2220.08 1298.8 2220.47 1298.03C2220.85 1297.25 2229.33 1283.19 2232.99 1284.35C2236.65 1285.51 2267.09 1297.25 2267.09 1298.03C2267.09 1298.8 2274.41 1316.53 2274.41 1316.53" fill="white"/>
<path id="path348" d="M2240.31 1301.56C2255.15 1316.01 2269.68 1319.01 2276.24 1319.59C2278.32 1312.08 2279.76 1306.65 2279.76 1306.65C2279.76 1306.65 2296.16 1301.57 2301.43 1295.73C2301.43 1295.73 2284.84 1273.04 2284.6 1262.4C2284.36 1251.76 2300.88 1187.99 2254.97 1151.85C2209.07 1115.73 2181.79 1180.53 2181.79 1180.53L2162.32 1247.61L2135.59 1288.19C2135.59 1288.19 2141.97 1324.87 2178.43 1350.67C2214.89 1376.47 2255.09 1366.61 2261.92 1363.45C2263.6 1362.68 2268.49 1346.83 2272.73 1332.07C2248.97 1323.88 2240.31 1301.56 2240.31 1301.56" fill="#FFC0BB"/>
<path id="path352" d="M2238.43 1247.57C2240.97 1245.43 2243.47 1243.53 2246.07 1241.95C2248.65 1240.36 2251.35 1239.12 2254.15 1238.32C2256.93 1237.56 2259.83 1237 2262.83 1237.07L2263.96 1237.03C2264.35 1237.01 2264.72 1237.08 2265.11 1237.09L2267.43 1237.21C2268.99 1237.31 2270.53 1237.63 2272.24 1237.67C2270.95 1236.72 2269.57 1235.84 2268.08 1235.12C2266.55 1234.59 2265.01 1233.81 2263.31 1233.63C2259.99 1232.87 2256.35 1233.15 2252.96 1234.12C2249.56 1235.09 2246.41 1236.93 2243.91 1239.27C2241.44 1241.64 2239.41 1244.44 2238.43 1247.57" fill="#333333"/>
<path id="path368" d="M2389.89 1760.55C2389.89 1760.55 2424.81 1739.29 2439.99 1739.29C2455.17 1739.29 2487.05 1748.4 2487.05 1763.59C2487.05 1778.77 2477.95 1787.88 2477.95 1787.88L2447.11 1814.48C2447.11 1814.48 2432.4 1825.83 2426.33 1819.76C2420.25 1813.68 2402.04 1821.28 2371.97 1804.65C2342.47 1788.33 2370.15 1778.77 2374.71 1774.21C2379.27 1769.65 2389.89 1760.55 2389.89 1760.55" fill="#FFC0BB"/>
<path id="path350" d="M2248.85 1260.4C2250.8 1263.75 2255.23 1264.96 2258.75 1263.09C2262.25 1261.24 2263.53 1257.01 2261.59 1253.67C2259.64 1250.32 2255.21 1249.12 2251.71 1250.97C2248.19 1252.83 2246.91 1257.05 2248.85 1260.4Z" fill="#333333"/>
<path id="path358" d="M2029.95 1235.95C2029.95 1233.36 2030.01 1231.77 2030.03 1231.49C2030.03 1231.55 2030.03 1231.57 2030.03 1231.57C2030.03 1231.57 2029.95 1233.16 2029.95 1235.95ZM2030.01 1229.47C2030.03 1218.51 2031.65 1164.33 2060.21 1121.15C2060.21 1121.17 2060.21 1121.21 2060.23 1121.24C2031.75 1164.28 2030.04 1218.23 2030.01 1229.47" fill="#CAA3BE"/>
</g>
<g id="helmet">
<path id="path354" d="M2189.25 1211.93C2189.25 1211.93 2173.13 1225.6 2169.11 1288.36C2165.99 1337.04 2125.24 1344.95 2126.05 1344.68C2126.87 1344.41 2137.51 1237.75 2139.56 1234.15C2141.61 1230.55 2155.32 1189.96 2157.47 1188.93C2159.6 1187.91 2187.35 1206.01 2188.89 1206.47C2190.43 1206.92 2189.25 1211.93 2189.25 1211.93" fill="#B66400"/>
<path id="path356" d="M2318.37 1167.35C2318.37 1167.35 2301.93 1059.59 2163.72 1065.43C2025.49 1071.27 2030.03 1231.57 2030.03 1231.57C2030.03 1231.57 2024.47 1347.73 2107.19 1347.71C2107.19 1347.71 2163.2 1351.31 2163.2 1281.43C2163.2 1213.83 2183.76 1213.83 2183.76 1213.83L2318.37 1167.35" fill="#FAA842"/>
<path id="path360" d="M2108.56 1347.61C2107.68 1347.61 2107.19 1347.59 2107.19 1347.59C2107.17 1347.59 2107.17 1347.59 2107.16 1347.59C2034.27 1347.59 2029.95 1257.32 2029.95 1235.95C2029.95 1233.16 2030.03 1231.57 2030.03 1231.57C2030.03 1231.57 2030.03 1231.55 2030.03 1231.49C2030.03 1231.47 2030.03 1231.45 2030.03 1231.45C2030.03 1231.45 2030 1230.76 2030.01 1229.47C2030.04 1218.23 2031.75 1164.28 2060.23 1121.24C2062.79 1190.48 2087.29 1257.17 2163.16 1284.01C2161.87 1344.75 2117.03 1347.61 2108.56 1347.61Z" fill="#F88900"/>
<path id="path364" d="M2183.76 1213.83C2187.95 1212.39 2293.36 1204.25 2342.87 1200.49C2351.32 1199.85 2354.29 1188.95 2347.33 1184.09L2318.37 1163.91L2183.76 1213.83Z" fill="#1A1A1A"/>
<path id="path362" d="M2120.81 1304.03C2120.81 1312.68 2113.79 1319.71 2105.13 1319.71C2096.48 1319.71 2089.47 1312.68 2089.47 1304.03C2089.47 1295.37 2096.48 1288.36 2105.13 1288.36C2113.79 1288.36 2120.81 1295.37 2120.81 1304.03Z" fill="#B66400"/>
</g>
<path id="path366" d="M2183.76 1213.83C2188.45 1212.21 2291.4 1178.12 2321.03 1168.32C2325.28 1166.91 2327.43 1162.16 2325.67 1158.03L2321.68 1148.67C2319.91 1144.51 2314.93 1142.76 2310.96 1144.92L2183.76 1213.83" fill="#283F56"/>
<path id="path370" d="M2486.61 1782.99C2486.61 1800.83 2472.15 1815.29 2454.31 1815.29C2436.47 1815.29 2422 1800.83 2422 1782.99C2422 1765.15 2436.47 1750.68 2454.31 1750.68C2472.15 1750.68 2486.61 1765.15 2486.61 1782.99Z" fill="#1A1A1A"/>
<path id="path372" d="M3940.97 2673.11H561.886C554.154 2673.11 547.886 2666.84 547.886 2659.11V2648.32C547.886 2640.6 554.154 2634.32 561.886 2634.32H3940.97C3948.71 2634.32 3954.97 2640.6 3954.97 2648.32V2659.11C3954.97 2666.84 3948.71 2673.11 3940.97 2673.11" fill="#07085B"/>
<path id="path378" d="M590.249 2634.85C590.249 2634.85 623.435 2584.69 683.879 2595.45C683.879 2595.45 717.159 2524.77 809.523 2523.96C903.139 2523.12 920.916 2588.33 920.916 2588.33C920.916 2588.33 947.583 2565.83 1008.03 2588.93C1068.47 2612.05 1089.81 2653.72 1089.81 2653.72L590.249 2634.85" fill="#07085B"/>
<path id="path380" d="M3682.93 2551.6C3682.93 2551.6 3679.08 2487.6 3623.37 2493.53C3623.37 2493.53 3547.52 2372.64 3468.12 2543.31C3468.12 2543.31 3396.41 2504.56 3370.04 2588.83C3370.04 2588.83 3325.89 2506.57 3263.08 2533.83C3200.27 2561.08 3178.84 2635.93 3178.84 2635.93L3642.45 2645.81L3682.93 2551.6Z" fill="#70C0FD"/>
<path id="path382" d="M3932.71 2634.85C3932.71 2634.85 3899.52 2584.69 3839.08 2595.45C3839.08 2595.45 3805.8 2524.77 3713.44 2523.96C3619.83 2523.12 3602.04 2588.33 3602.04 2588.33C3602.04 2588.33 3575.37 2565.83 3514.93 2588.93C3454.49 2612.05 3433.16 2653.72 3433.16 2653.72L3932.71 2634.85Z" fill="#07085B"/>
<path id="path384" d="M3572.92 2261.32C3538.12 2243.52 3508.87 2213.87 3498.4 2177.67C3488.32 2142.77 3496.13 2105.71 3504.61 2070.41C3508.32 2054.97 3512.08 2038.43 3506.05 2023.65C3502.31 2014.45 3495.13 2006.99 3488.63 1999.31C3432.39 1933.05 3419.56 1842.07 3426.68 1757.25C3428.67 1733.71 3432.19 1709.68 3443.89 1688.84C3455.6 1668.01 3476.99 1650.73 3501.8 1649.09C3540.12 1646.57 3576.63 1680.47 3613.12 1669.08C3639.28 1660.91 3652.47 1632.81 3676.17 1619.52C3696.09 1608.36 3720.71 1609.01 3743.81 1610.01C3751.09 1610.32 3758.53 1610.67 3765.27 1613.31C3780.55 1619.29 3788.33 1635.29 3793.19 1650.28C3801.03 1674.52 3804.91 1699.8 3812.77 1724.03C3820.65 1748.27 3833.23 1772.17 3854.47 1787.56C3871.51 1799.92 3892.65 1805.77 3911.87 1814.83C3959.37 1837.21 3993.95 1878.72 4019.6 1922.79C4027.28 1935.97 4034.35 1949.63 4038.27 1964.23C4050.6 2010.16 4026.79 2062.6 3983.16 2085.63C3966.93 2094.2 3948.68 2098.91 3932.52 2107.59C3895.47 2127.47 3873.89 2165.13 3852.68 2200.16C3831.47 2235.19 3805.92 2271.68 3765.97 2285.61C3711.4 2304.67 3622.53 2286.71 3572.92 2261.32" fill="#7F00FF"/>
<path id="path386" d="M3957.93 2028.96C3949.28 2027.71 3940.57 2027.07 3931.87 2026.68C3923.16 2026.32 3914.44 2026.37 3905.72 2026.64C3903.33 2026.72 3900.95 2026.83 3898.57 2026.95C3909.67 2021.65 3920.6 2015.71 3930.97 2008.47C3942.19 2000.61 3952.89 1991.17 3961.24 1979.07C3952.21 1990.4 3941.17 1998.73 3929.72 2005.49C3918.23 2012.24 3906.17 2017.44 3893.99 2021.93C3882.79 2026.03 3871.47 2029.51 3860.05 2032.69C3861.76 2029.68 3863.32 2026.56 3864.77 2023.37C3867.97 2016.28 3870.57 2008.83 3872.48 2001.13C3874.43 1993.45 3875.64 1985.56 3876.24 1977.64C3876.79 1969.71 3876.69 1961.76 3875.99 1953.95C3876.04 1961.81 3875.48 1969.65 3874.31 1977.31C3873.08 1984.95 3871.28 1992.4 3868.81 1999.47C3866.39 2006.56 3863.35 2013.29 3859.8 2019.52C3858.03 2022.64 3856.13 2025.64 3854.12 2028.48C3852.53 2030.71 3849.55 2034.83 3847.52 2036.11C3838.16 2038.57 3828.75 2040.93 3819.33 2043.33C3789.39 2051.09 3747.13 2060.97 3700.76 2100.63C3698.81 2077.44 3696.69 2050.88 3695.24 2032.29C3694 2016.47 3694.92 2000.51 3698 1985.07L3698.04 1984.83C3701.25 1968.91 3704.61 1953.01 3708.09 1937.15C3713.4 1913.08 3718.95 1889.09 3724.83 1865.21C3736.63 1815.04 3733.87 1808.49 3734.91 1797.08C3735.19 1793.99 3735.23 1790.87 3734.95 1787.77C3734.93 1787.6 3734.92 1787.45 3734.92 1787.31C3734.08 1776.91 3732.97 1766.59 3731.51 1756.35C3727.71 1730.33 3724.49 1716.57 3719.32 1696.15C3722.76 1717.2 3724.76 1731.17 3726.33 1757.13C3726.92 1767.33 3727.15 1777.56 3727.11 1787.75C3727.11 1792.84 3726.96 1797.92 3726.77 1802.99C3726.65 1805.51 3726.55 1808.04 3726.39 1810.55C3726.31 1811.8 3726.23 1813.05 3726.12 1814.29C3726.07 1815.04 3721.89 1832.97 3720.31 1837.97C3710.51 1868.8 3701.33 1899.91 3692.55 1931.21C3688.44 1945.88 3684.45 1960.6 3680.57 1975.4C3680.57 1975.4 3678.6 1982.25 3676.55 1995.28C3675.63 1992.41 3667.97 1971.25 3664.27 1962.55C3645.56 1918.56 3626.72 1880.99 3595.59 1835.85C3583.64 1818.53 3582.07 1816.87 3566.24 1796.32C3585.88 1825.2 3580.12 1816.39 3593.49 1837.93C3621.92 1884.72 3638.85 1923.68 3654.93 1967.95C3660.77 1985.49 3663.85 1994.36 3669.77 2017.48C3670.48 2020.27 3671.17 2023.05 3671.79 2025.87C3672.15 2027.44 3672.51 2029.01 3672.85 2030.59C3671.56 2052.36 3672.39 2074.23 3674.95 2095.83C3676 2104.64 3686.28 2262.84 3687.47 2320.84C3690.13 2451.17 3667.13 2598.64 3667.13 2598.64C3667.13 2598.64 3804.99 2641.57 3776.97 2589.67C3758.2 2554.87 3713.08 2240.39 3703.28 2129.85C3704.01 2129.04 3704.75 2128.21 3705.49 2127.4C3747.4 2082.04 3790.97 2067.25 3821.91 2056.39C3836.16 2051.43 3850.52 2046.55 3864.79 2041.15L3864.77 2041.16C3873.17 2039.47 3897.55 2034.97 3906.11 2033.88C3914.67 2032.8 3923.28 2031.96 3931.89 2031.51C3940.51 2031.09 3949.15 2030.92 3957.77 2031.37C3966.39 2031.87 3975.01 2032.84 3983.53 2034.84C3975.16 2032.05 3966.56 2030.27 3957.93 2028.96" fill="#07085B"/>
</g>
</g>
</g>
<defs>
<clipPath id="clip0">
<rect width="4666.67" height="2666.67" fill="white"/>
</clipPath>
</defs>
</svg>
