<svg width="1000" height="1000" viewBox="0 0 1000 1000" fill="none" xmlns="http://www.w3.org/2000/svg">
<g id="6447 1" clip-path="url(#clip0)">
<g id="g10">
<g id="g12">
<path id="path16" d="M737.073 43.4908C896.865 185.31 846.649 426.371 915.039 498.515C1003.69 592.032 1052.54 978.302 875.995 986.002C524.879 1001.31 71.1422 986.002 71.1422 986.002C71.1422 986.002 -56.4066 819.931 18.6614 543.675C93.7292 267.413 287.889 339.477 359.971 215.165C432.052 90.8531 577.281 -98.3282 737.073 43.4908Z" fill="url(#paint0_linear)"/>
<rect id="Rectangle 2" x="438" y="898" width="279" height="40" fill="#4E92E7"/>
<path id="path18" d="M884.787 985.735H704.29C703.095 983.714 695.723 971.568 682.826 957.856C689.842 945.174 694.04 929.081 694.04 911.569C694.04 897.64 691.382 884.604 686.761 873.468H712.793V865.612H683.004C673.62 848.458 659.099 837.449 642.807 837.449C636.231 837.449 629.948 839.243 624.172 842.507L628.076 835.206V814.586C628.076 810.888 626.54 807.518 624.158 806.169C623.25 805.648 622.363 805.012 621.5 804.259V798.57H616.66C611.865 791.39 607.936 780.618 604.737 768.573V764.435H603.682C595.227 730.129 592.374 687.92 592.374 687.92H569.045C572.946 703.264 576.226 724.071 578.922 746.014V747.267H579.075C581.16 764.41 582.889 782.19 584.286 798.57H578.922V815.531H585.658C587.82 843.75 588.84 864.525 588.84 864.525L587.932 866.834H578.922V882.507H560.21C559.78 882.164 559.379 881.795 559.015 881.401L556.487 881.416L558.509 811.691L545.818 816.38L545.696 882.043C545.605 882.174 545.524 882.331 545.455 882.507H531.604C531.178 882.164 530.776 881.795 530.413 881.401L528.751 881.411L532.823 818.143L517.886 816.38L517.764 881.487C517.397 881.583 517.072 881.957 516.849 882.507H510.898C464.771 878.93 463.179 832.644 470.603 801.965C478.025 771.281 487.199 763.95 487.199 763.95C487.199 763.95 374.051 783.534 358.653 789.587H352.513V794.296C346.632 801.293 343.06 813.637 341.062 823.029C339.717 829.37 342.965 835.802 347.551 835.908L352.513 836.014V842.582H381.144C369.015 849.494 359.149 862.909 353.596 879.86H352.513V883.392C350.044 892.082 348.682 901.596 348.682 911.569C348.682 952.51 371.62 985.695 399.915 985.695C402.782 985.695 405.597 985.351 408.335 984.694C408.436 985.154 408.534 985.518 408.593 985.735H371.987C356.393 968.203 346.43 963.61 340.269 963.61C333.484 963.61 331.304 969.183 331.304 969.183C331.304 969.183 327.536 951.798 287.238 944.982C282.953 944.259 279.426 943.936 276.541 943.936C252.31 943.936 273.569 966.793 273.569 966.793C272.818 966.783 272.099 966.778 271.397 966.778C266.42 966.778 262.666 967.061 259.914 967.556C256.429 960.059 251.325 952.166 244.174 947.675C241.835 946.204 239.596 945.578 237.474 945.578C224.668 945.578 216.157 968.516 216.157 968.516C212.559 951.883 205.738 947.897 200.03 947.897C194.78 947.897 190.469 951.267 190.469 951.267C181.862 924.504 173.416 916.662 166.47 916.662C156.631 916.662 149.803 932.406 149.803 932.406C149.156 932.305 148.539 932.26 147.945 932.26C135.128 932.26 134.204 954.41 134.204 954.41L143.508 985.735H78V923.135H104.521V915.733V873.999H131.041V898.231H143.138V832.265H185.014V866.592H196.645V604.659L334.367 602.755V719.079L339.483 719.175H346V618.776H355.304V589.76H368.798V505.054H388.338V589.76H401.832V618.776H411.139V710.095H422.304V487.8H428.353V458H445.898C446.125 468.676 448.357 498.208 466.098 498.208C466.102 498.208 466.102 498.208 466.105 498.208C466.105 498.208 466.234 498.218 466.468 498.218C467.23 498.218 469.112 498.092 471.27 496.99C471.948 496.748 474.015 495.828 476.188 493.469L471.043 505.878L485.435 524.193C485.435 524.193 486.249 522.071 487.443 518.994V629.028L505.125 628.356V537.996H555.373L557.629 707.852L565.144 707.175V649.844H581.429V604.745H591.201V574.45H629.351V604.745H639.123V649.844H655.407V755.679L669.366 755.007V650.041H716.027V748.793L746.138 748.267L745.67 624.935H790.802V727.254H800.109V888.808H807.554V915.733H814.997V880.729H848.963V915.733H858.267V898.231H884.787V985.735ZM279.614 840.501V871.038H295.91V840.501H279.614ZM233.05 840.501V871.038H249.347V840.501H233.05ZM764.04 822.999V839.965H773.092V822.999H764.04ZM748.904 822.999V839.965H757.956V822.999H748.904ZM672.177 831.679V839.541H712.793V831.679H672.177ZM300.104 788.339V818.876H316.399V788.339H300.104ZM258.091 788.339V818.876H274.386V788.339H258.091ZM629.211 798.57V815.531H638.263V798.57H629.211ZM779.179 792.76V809.721H788.231V792.76H779.179ZM672.177 797.751V805.613H712.793V797.751H672.177ZM779.179 762.52V779.482H788.231V762.52H779.179ZM764.04 762.52V779.482H773.092V762.52H764.04ZM352.513 767.017V774.879H402.492V767.017H352.513ZM672.177 763.824V771.685H712.793V763.824H672.177ZM509.435 762.03V769.887H550.05V762.03H509.435ZM279.614 721.868V752.41H295.91V721.868H279.614ZM233.05 721.868V752.41H249.347V721.868H233.05ZM208.009 721.868V752.41H224.305V721.868H208.009ZM748.904 732.276V749.242H757.956V732.276H748.904ZM629.211 730.305V747.267H638.263V730.305H629.211ZM612.448 730.305V747.267H621.5V730.305H612.448ZM509.435 728.097V735.959H550.05V728.097H509.435ZM352.513 721.883V729.745H402.492V721.883H352.513ZM432.243 712.091V729.057H441.296V712.091H432.243ZM672.177 712.93V720.792H712.793V712.93H672.177ZM779.179 702.037V719.003H788.231V702.037H779.179ZM748.904 702.037V719.003H757.956V702.037H748.904ZM595.685 696.171V713.137H604.737V696.171H595.685ZM233.05 672.368V702.911H249.347V672.368H233.05ZM779.179 671.797V688.764H788.231V671.797H779.179ZM672.177 679.002V686.864H712.793V679.002H672.177ZM509.435 677.208V685.065H550.05V677.208H509.435ZM352.513 676.749V684.605H402.492V676.749H352.513ZM629.211 662.041V679.002H638.263V662.041H629.211ZM578.922 662.041V679.002H587.974V662.041H578.922ZM672.177 662.041V669.897H712.793V662.041H672.177ZM469.908 652.209V669.175H478.96V652.209H469.908ZM352.513 654.179V662.041H402.492V654.179H352.513ZM779.179 641.558V658.519H788.231V641.558H779.179ZM748.904 641.558V658.519H757.956V641.558H748.904ZM300.104 623.642V654.179H316.399V623.642H300.104ZM258.091 623.642V654.179H274.386V623.642H258.091ZM233.05 623.642V654.179H249.347V623.642H233.05ZM208.009 623.642V654.179H224.305V623.642H208.009ZM352.513 631.61V639.471H402.492V631.61H352.513ZM451.074 622.267V639.234H460.13V622.267H451.074ZM432.243 622.267V639.234H441.296V622.267H432.243ZM509.435 626.314V634.176H550.05V626.314H509.435ZM622.845 615.957V632.923H631.897V615.957H622.845ZM603.396 615.957V632.923H612.448V615.957H603.396ZM509.435 609.348V617.21H550.05V609.348H509.435ZM469.908 592.326V609.293H478.96V592.326H469.908ZM432.243 592.326V609.293H441.296V592.326H432.243ZM509.435 575.42V583.282H550.05V575.42H509.435ZM469.908 562.385V579.351H478.96V562.385H469.908ZM451.074 562.385V579.351H460.13V562.385H451.074ZM509.435 558.459V566.316H550.05V558.459H509.435ZM469.908 532.444V549.41H478.96V532.444H469.908ZM432.243 532.444V549.41H441.296V532.444H432.243ZM451.074 502.508V519.469H460.13V502.508H451.074ZM432.243 502.508V519.469H441.296V502.508H432.243ZM591.41 985.735H523.537L566.789 985.281C566.789 985.281 543.094 965.54 531.869 965.54C529.418 965.54 527.563 966.48 526.676 968.769C526.676 968.769 510.479 963.924 499.642 963.924C489.273 963.924 483.822 968.36 502.185 985.735H438.32C434.339 980.708 430.944 976.681 428.067 973.513C441.97 960.255 451.147 937.464 451.147 911.569C451.147 906.335 450.774 901.232 450.061 896.301C457.343 904.572 464.303 905.299 466.517 905.299C466.989 905.299 467.244 905.264 467.244 905.264H590.607L591.927 902.798C591.693 905.673 591.571 908.604 591.571 911.569C591.571 929.208 595.832 945.411 602.942 958.133C597.242 962.868 603.686 974.867 603.686 974.867C600.277 973.892 597.63 973.478 595.587 973.478C585.362 973.478 590.404 983.846 591.41 985.735ZM272.211 985.735H266.106C265.949 985.033 265.652 983.77 265.198 982.113C268.03 983.704 270.681 985.008 272.211 985.735ZM433.71 855.86C425.294 845.164 414.429 838.399 402.492 837.54V837.126L431.189 837.762C431.852 844.432 432.704 850.444 433.71 855.86Z" fill="#4E92E7"/>
<rect id="Rectangle 1" x="624.995" y="834.002" width="71" height="83" fill="#4E92E7"/>
<g id="cloud-2">
<path id="path24" d="M304.995 228.565C306.242 220.698 311.106 214.832 316.921 214.832C317.99 214.832 319.024 215.029 320.012 215.403C322.879 206.526 329.109 200.372 336.332 200.372C338.197 200.372 339.999 200.781 341.692 201.544C345.579 192.232 352.644 186.002 360.712 186.002C370.312 186.002 378.491 194.819 381.589 207.162C383.782 205.389 386.307 204.378 388.996 204.378C397.413 204.378 404.233 214.251 404.233 226.423C404.233 227.145 404.209 227.857 404.16 228.565H304.995Z" fill="url(#paint1_linear)"/>
</g>
<path id="path26" d="M787.995 338.56C789.242 330.698 794.106 324.827 799.921 324.827C800.99 324.827 802.024 325.029 803.012 325.398C805.883 316.521 812.109 310.367 819.332 310.367C821.197 310.367 822.999 310.781 824.692 311.544C828.579 302.227 835.644 296.002 843.712 296.002C853.316 296.002 861.491 304.814 864.589 317.157C866.782 315.389 869.307 314.378 871.996 314.378C880.413 314.378 887.233 324.246 887.233 336.423C887.233 337.14 887.209 337.858 887.16 338.56H787.995Z" fill="url(#paint2_radial)"/>
<g id="cloud-4">
<path id="path28" d="M6.99487 443.56C8.24373 435.698 13.1079 429.832 18.9226 429.832C19.9899 429.832 21.0253 430.029 22.0123 430.403C24.8819 421.521 31.1098 415.372 38.332 415.372C40.199 415.372 42 415.781 43.6934 416.544C47.5814 407.232 54.6447 401.002 62.7141 401.002C72.3148 401.002 80.4918 409.819 83.5902 422.157C85.7834 420.389 88.3083 419.378 90.9974 419.378C99.4129 419.378 106.235 429.246 106.235 441.423C106.235 442.145 106.209 442.858 106.162 443.56H6.99487Z" fill="url(#paint3_linear)"/>
</g>
<path id="path30" d="M240.235 472.057L236.849 468.101C236.935 467.945 238.995 464.266 242.963 457.941L246.187 462.17C242.314 468.349 240.255 472.022 240.235 472.057Z" fill="white"/>
<path id="path32" d="M508.124 290.894C501.981 290.364 495.744 290.142 489.612 290.227L489.573 283.927C495.8 283.846 502.142 284.068 508.383 284.604L508.124 290.894ZM452.712 294.381L452.079 288.151C458.282 286.837 464.571 285.817 470.777 285.119L471.116 291.395C465.008 292.087 458.816 293.092 452.712 294.381ZM544.85 297.68C538.787 295.957 532.637 294.512 526.564 293.39L527.116 287.14C533.287 288.282 539.535 289.747 545.688 291.501L544.85 297.68ZM416.489 305.582L415.312 299.519C421.357 297.058 427.5 294.856 433.567 292.976L434.478 299.135C428.503 300.984 422.45 303.157 416.489 305.582ZM580.66 311.367C574.776 308.538 568.8 305.956 562.902 303.697L564.016 297.609C570.002 299.903 576.061 302.52 582.033 305.39L580.66 311.367ZM381.475 323.2L379.809 317.385C385.62 313.893 391.529 310.635 397.375 307.689L398.807 313.636C393.041 316.541 387.209 319.759 381.475 323.2ZM615.098 331.218C609.458 327.424 603.731 323.842 598.073 320.578L599.687 314.727C605.417 318.036 611.222 321.664 616.935 325.509L615.098 331.218ZM348.032 346.452L345.944 340.929C351.462 336.559 357.084 332.376 362.655 328.495L364.54 334.174C359.04 338.004 353.484 342.132 348.032 346.452ZM647.884 356.345C642.53 351.737 637.086 347.311 631.708 343.183L633.747 337.615C639.188 341.793 644.692 346.275 650.109 350.933L647.884 356.345ZM316.378 374.549L313.926 369.345C319.112 364.232 324.417 359.26 329.694 354.571L331.971 359.942C326.753 364.575 321.508 369.491 316.378 374.549ZM678.921 385.856C673.853 380.582 668.709 375.448 663.624 370.608L666.016 365.348C671.154 370.234 676.35 375.418 681.463 380.748L678.921 385.856ZM286.658 406.819L283.892 401.959C288.718 396.209 293.684 390.56 298.654 385.159L301.27 390.197C296.349 395.537 291.435 401.13 286.658 406.819ZM708.211 418.955C703.437 413.135 698.579 407.431 693.781 402.004L696.459 397.038C701.303 402.515 706.199 408.269 711.015 414.135L708.211 418.955ZM259.041 442.819L255.981 438.337C260.361 432.077 264.964 425.802 269.657 419.688L272.57 424.367C267.925 430.42 263.374 436.624 259.041 442.819ZM735.846 454.965C731.337 448.705 726.759 442.536 722.229 436.629L725.145 431.951C729.706 437.902 734.32 444.117 738.86 450.423L735.846 454.965Z" fill="white"/>
<path id="path34" d="M755.48 483.451C753.377 480.268 751.233 477.065 749.106 473.932L752.211 469.521C754.352 472.674 756.51 475.897 758.626 479.101L755.48 483.451Z" fill="white"/>
<path id="path36" d="M739.16 55.2502C739.153 55.2452 739.146 55.2401 739.135 55.23C739.146 55.2351 739.153 55.2452 739.16 55.2502ZM738.975 55.0784C738.964 55.0734 738.954 55.0582 738.943 55.0481C738.954 55.0582 738.964 55.0683 738.975 55.0784ZM738.458 54.6036C738.44 54.5834 738.426 54.5732 738.409 54.5581C738.423 54.5682 738.444 54.5884 738.458 54.6036ZM738.28 54.4368C738.252 54.4115 738.231 54.3913 738.203 54.3661C738.227 54.3913 738.255 54.4166 738.28 54.4368ZM738.081 54.2549C738.053 54.2297 738.021 54.1994 737.993 54.1741C738.021 54.1994 738.053 54.2297 738.081 54.2549ZM737.878 54.0679C737.84 54.0326 737.791 53.9872 737.752 53.9518C737.794 53.9922 737.836 54.0326 737.878 54.0679ZM737.609 53.8255C737.564 53.78 737.525 53.7497 737.48 53.7042C737.522 53.7446 737.567 53.7851 737.609 53.8255ZM737.389 53.6183C737.351 53.583 737.305 53.5475 737.267 53.5122C737.305 53.5475 737.351 53.583 737.389 53.6183ZM737.176 53.4263C737.138 53.3909 737.085 53.3454 737.047 53.3101C737.092 53.3505 737.134 53.3909 737.176 53.4263ZM736.967 53.2343C736.9 53.1736 736.83 53.113 736.764 53.0524C736.83 53.113 736.9 53.1736 736.967 53.2343ZM736.736 53.0271C736.68 52.9766 736.61 52.911 736.551 52.8605C736.614 52.916 736.677 52.9716 736.736 53.0271ZM736.478 52.7947C736.432 52.7493 736.387 52.7089 736.338 52.6634C736.387 52.7089 736.432 52.7493 736.478 52.7947ZM736.261 52.5977C736.212 52.5522 736.16 52.5017 736.111 52.4613C736.163 52.5068 736.212 52.5522 736.261 52.5977ZM736.048 52.4057C735.915 52.2845 735.758 52.1429 735.622 52.0166C735.765 52.148 735.908 52.2744 736.048 52.4057ZM735.559 51.9661C735.503 51.9105 735.465 51.8803 735.409 51.8247C735.458 51.8702 735.51 51.9206 735.559 51.9661ZM735.336 51.764C735.28 51.7084 735.241 51.6782 735.182 51.6226C735.234 51.6731 735.283 51.7135 735.336 51.764ZM735.119 51.5669C734.986 51.4457 734.829 51.3093 734.693 51.183C734.836 51.3143 734.976 51.4406 735.119 51.5669ZM734.63 51.1324C734.574 51.0819 734.532 51.0416 734.473 50.991C734.525 51.0365 734.578 51.087 734.63 51.1324ZM734.403 50.9303C734.358 50.8849 734.298 50.8344 734.249 50.794C734.302 50.8394 734.351 50.8849 734.403 50.9303ZM734.187 50.7384C734.12 50.6778 734.04 50.607 733.974 50.5464C734.043 50.607 734.117 50.6727 734.187 50.7384ZM733.851 50.4403C733.823 50.41 733.796 50.3898 733.768 50.3645C733.796 50.3898 733.823 50.415 733.851 50.4403ZM733.726 50.3291C733.698 50.2988 733.68 50.2837 733.649 50.2584C733.677 50.2837 733.701 50.3038 733.726 50.3291ZM733.596 50.2129C733.575 50.1927 733.551 50.1724 733.53 50.1522C733.551 50.1724 733.575 50.1927 733.596 50.2129ZM733.45 50.0816C733.439 50.0765 733.425 50.0613 733.415 50.0512C733.425 50.0613 733.439 50.0715 733.45 50.0816Z" fill="white"/>
<g id="cloud-1">
<path id="path40" d="M716.866 161.852H671.626C668.291 161.614 664.952 161.513 661.607 161.513C657.671 161.513 653.728 161.649 649.789 161.852H562.11C562.037 160.75 561.995 159.639 561.995 158.512C561.995 139.514 572.643 124.109 585.774 124.109C589.972 124.109 593.911 125.691 597.334 128.449C601.053 113.635 609.463 102.075 619.964 97.533C621.951 97.6038 623.942 97.6493 625.933 97.6493C630.148 97.6493 634.363 97.4623 638.547 97.0025C647.449 100.307 654.964 108.593 659.595 119.688C662.239 118.496 665.05 117.854 667.963 117.854C679.233 117.854 688.952 127.454 693.433 141.313C694.973 140.732 696.586 140.424 698.252 140.424C707.329 140.424 714.917 149.579 716.866 161.852Z" fill="url(#paint4_linear)"/>
</g>
<path id="path42" d="M482.365 222.792C480.357 221.301 478.45 219.624 476.676 217.744C478.754 219.012 480.668 220.72 482.365 222.792Z" fill="white"/>
<path id="path46" d="M351.626 230.618C352.785 228.89 353.917 227.127 355.024 225.318C353.917 227.132 352.785 228.89 351.626 230.618ZM355.034 225.303C355.059 225.262 355.083 225.222 355.108 225.186C355.087 225.222 355.059 225.267 355.034 225.303ZM355.125 225.156C355.143 225.126 355.16 225.095 355.181 225.065C355.16 225.095 355.143 225.131 355.125 225.156ZM355.205 225.025C355.219 225.005 355.233 224.979 355.247 224.959C355.233 224.979 355.219 225.005 355.205 225.025ZM355.31 224.848C355.317 224.843 355.321 224.833 355.328 224.823C355.324 224.833 355.317 224.843 355.31 224.848ZM355.377 224.747C355.377 224.742 355.38 224.737 355.38 224.737L355.377 224.747ZM356.655 222.595C356.662 222.579 356.669 222.569 356.676 222.559C356.672 222.564 356.662 222.584 356.655 222.595ZM356.742 222.443C356.752 222.423 356.766 222.403 356.777 222.382C356.763 222.408 356.756 222.423 356.742 222.443ZM356.805 222.337C356.829 222.296 356.85 222.261 356.871 222.221C356.85 222.261 356.829 222.296 356.805 222.337ZM356.969 222.049C356.979 222.034 356.99 222.019 357 221.998C356.986 222.024 356.983 222.029 356.969 222.049ZM357.081 221.862C357.088 221.852 357.095 221.837 357.102 221.827C357.095 221.837 357.084 221.852 357.081 221.862ZM357.203 221.655C357.206 221.645 357.21 221.635 357.217 221.629C357.213 221.635 357.206 221.645 357.203 221.655ZM357.315 221.458C357.318 221.453 357.318 221.448 357.322 221.448L357.315 221.458ZM357.531 221.084C357.538 221.074 357.545 221.059 357.552 221.048C357.545 221.064 357.542 221.069 357.531 221.084ZM358.101 220.109C358.104 220.099 358.111 220.094 358.114 220.083C358.111 220.094 358.104 220.099 358.101 220.109Z" fill="white"/>
<path id="path52" d="M286.658 406.819L283.892 401.959C288.718 396.209 293.684 390.56 298.654 385.159L301.27 390.197C296.349 395.537 291.435 401.13 286.658 406.819ZM316.378 374.549L313.926 369.345C319.112 364.232 324.417 359.26 329.694 354.571L331.971 359.942C326.753 364.575 321.508 369.491 316.378 374.549ZM348.032 346.452L345.944 340.929C351.462 336.559 357.084 332.376 362.655 328.495L364.54 334.174C359.04 338.004 353.484 342.132 348.032 346.452ZM381.475 323.2L379.809 317.385C385.62 313.893 391.529 310.635 397.375 307.689L398.807 313.636C393.041 316.541 387.209 319.759 381.475 323.2Z" fill="white"/>
<path id="path54" d="M509.151 565.918H549.767V558.061H509.151V565.918Z" fill="#4A8FE6"/>
<path id="path56" d="M207.725 653.781H224.022V623.244H207.725V653.781Z" fill="#407EDE"/>
<path id="path58" d="M207.725 752.012H224.022V721.47H207.725V752.012Z" fill="#407EDE"/>
<path id="path60" d="M232.766 653.781H249.063V623.244H232.766V653.781Z" fill="#407EDE"/>
<path id="path62" d="M257.808 653.781H274.103V623.244H257.808V653.781Z" fill="#407EDE"/>
<path id="path64" d="M257.808 818.478H274.103V787.941H257.808V818.478Z" fill="#407EDE"/>
<path id="path66" d="M232.766 702.513H249.063V671.97H232.766V702.513Z" fill="#407EDE"/>
<path id="path68" d="M232.766 870.64H249.063V840.103H232.766V870.64Z" fill="#407EDE"/>
<path id="path70" d="M232.766 752.012H249.063V721.47H232.766V752.012Z" fill="#407EDE"/>
<path id="path72" d="M279.331 752.012H295.626V721.47H279.331V752.012Z" fill="#407EDE"/>
<path id="path74" d="M279.331 870.64H295.626V840.103H279.331V870.64Z" fill="#407EDE"/>
<path id="path76" d="M299.821 653.781H316.116V623.244H299.821V653.781Z" fill="#407EDE"/>
<path id="path78" d="M431.96 519.071H441.012V502.11H431.96V519.071Z" fill="#407EDE"/>
<path id="path80" d="M450.791 519.071H459.846V502.11H450.791V519.071Z" fill="#407EDE"/>
<path id="path82" d="M431.96 549.012H441.012V532.046H431.96V549.012Z" fill="#407EDE"/>
<path id="path84" d="M469.625 549.012H478.677V532.046H469.625V549.012Z" fill="#407EDE"/>
<path id="path86" d="M450.791 578.954H459.846V561.987H450.791V578.954Z" fill="#407EDE"/>
<path id="path88" d="M469.625 578.954H478.677V561.987H469.625V578.954Z" fill="#407EDE"/>
<path id="path90" d="M431.96 608.895H441.012V591.929H431.96V608.895Z" fill="#407EDE"/>
<path id="path92" d="M469.625 608.895H478.677V591.929H469.625V608.895Z" fill="#407EDE"/>
<path id="path94" d="M431.96 638.836H441.012V621.87H431.96V638.836Z" fill="#407EDE"/>
<path id="path96" d="M450.791 638.836H459.846V621.87H450.791V638.836Z" fill="#407EDE"/>
<path id="path98" d="M469.625 668.777H478.677V651.811H469.625V668.777Z" fill="#407EDE"/>
<path id="path100" d="M431.96 728.66H441.012V711.693H431.96V728.66Z" fill="#407EDE"/>
<path id="path102" d="M578.638 678.604H587.69V661.643H578.638V678.604Z" fill="#407EDE"/>
<path id="path104" d="M628.928 678.604H637.98V661.643H628.928V678.604Z" fill="#407EDE"/>
<path id="path106" d="M603.113 632.525H612.165V615.559H603.113V632.525Z" fill="#407EDE"/>
<path id="path108" d="M748.621 658.121H757.673V641.16H748.621V658.121Z" fill="#407EDE"/>
<path id="path110" d="M778.896 658.121H787.948V641.16H778.896V658.121Z" fill="#407EDE"/>
<path id="path112" d="M778.896 688.366H787.948V671.399H778.896V688.366Z" fill="#407EDE"/>
<path id="path114" d="M748.621 718.605H757.673V701.639H748.621V718.605Z" fill="#407EDE"/>
<path id="path116" d="M778.896 718.605H787.948V701.639H778.896V718.605Z" fill="#407EDE"/>
<path id="path118" d="M748.621 748.844H757.673V731.878H748.621V748.844Z" fill="#407EDE"/>
<path id="path120" d="M763.757 779.084H772.809V762.122H763.757V779.084Z" fill="#407EDE"/>
<path id="path122" d="M778.896 779.084H787.948V762.122H778.896V779.084Z" fill="#407EDE"/>
<path id="path124" d="M778.896 809.323H787.948V792.362H778.896V809.323Z" fill="#407EDE"/>
<path id="path126" d="M748.621 839.567H757.673V822.601H748.621V839.567Z" fill="#407EDE"/>
<path id="path128" d="M763.757 839.567H772.809V822.601H763.757V839.567Z" fill="#407EDE"/>
<path id="path130" d="M622.561 632.525H631.614V615.559H622.561V632.525Z" fill="#407EDE"/>
<path id="path132" d="M595.402 712.739H604.454V695.773H595.402V712.739Z" fill="#407EDE"/>
<path id="path134" d="M578.792 746.869H578.638V745.616C578.69 746.035 578.743 746.455 578.792 746.869Z" fill="#407EDE"/>
<path id="path136" d="M612.165 746.869H621.217V729.908H612.165V746.869Z" fill="#407EDE"/>
<path id="path138" d="M628.928 746.869H637.98V729.908H628.928V746.869Z" fill="#407EDE"/>
<path id="path140" d="M604.453 768.175C604.094 766.811 603.741 765.432 603.399 764.037H604.453V768.175Z" fill="#407EDE"/>
<path id="path142" d="M585.375 815.133H578.638V798.172H584.002C584.502 804.038 584.959 809.722 585.375 815.133Z" fill="#407EDE"/>
<path id="path144" d="M621.217 803.861C619.512 802.381 617.902 800.456 616.376 798.172H621.217V803.861Z" fill="#407EDE"/>
<path id="path146" d="M628.928 815.133H637.98V798.172H628.928V815.133Z" fill="#407EDE"/>
<path id="path148" d="M581.488 882.11H578.638V866.437H587.648L581.488 882.11Z" fill="#407EDE"/>
<path id="path150" d="M299.821 818.478H316.116V787.941H299.821V818.478Z" fill="#407EDE"/>
<path id="path152" d="M352.23 639.073H402.209V631.212H352.23V639.073Z" fill="#4284E2"/>
<path id="path154" d="M509.151 616.812H549.767V608.95H509.151V616.812Z" fill="#4284E2"/>
<path id="path156" d="M509.151 633.778H549.767V625.917H509.151V633.778Z" fill="#4284E2"/>
<path id="path158" d="M509.151 684.667H549.767V676.811H509.151V684.667Z" fill="#4284E2"/>
<path id="path160" d="M671.894 669.5H712.51V661.643H671.894V669.5Z" fill="#4284E2"/>
<path id="path162" d="M671.894 686.466H712.51V678.604H671.894V686.466Z" fill="#4284E2"/>
<path id="path164" d="M671.894 720.394H712.51V712.532H671.894V720.394Z" fill="#4284E2"/>
<path id="path166" d="M671.894 771.288H712.51V763.426H671.894V771.288Z" fill="#4284E2"/>
<path id="path168" d="M671.894 805.215H712.51V797.354H671.894V805.215Z" fill="#4284E2"/>
<path id="path170" d="M671.894 839.143H712.51V831.281H671.894V839.143Z" fill="#4284E2"/>
<path id="path172" d="M712.51 873.071H686.478C685.339 870.332 684.085 867.71 682.72 865.214H712.51V873.071Z" fill="#4284E2"/>
<path id="path174" d="M509.151 735.561H549.767V727.7H509.151V735.561Z" fill="#4284E2"/>
<path id="path176" d="M509.151 769.489H549.767V761.632H509.151V769.489Z" fill="#4284E2"/>
<path id="path178" d="M352.23 661.643H402.209V653.781H352.23V661.643Z" fill="#4284E2"/>
<path id="path180" d="M352.23 684.208H402.209V676.351H352.23V684.208Z" fill="#4284E2"/>
<path id="path182" d="M352.23 729.347H402.209V721.485H352.23V729.347Z" fill="#4284E2"/>
<path id="path184" d="M352.23 774.481H402.209V766.619H352.23V774.481Z" fill="#4284E2"/>
<path id="path186" d="M352.23 793.898V789.189H358.369C358.362 789.194 358.352 789.194 358.345 789.199C356.075 790.098 354.042 791.745 352.23 793.898Z" fill="#4284E2"/>
<path id="path188" d="M380.86 842.185H352.23V835.616L402.209 836.728V837.142C401.353 837.082 400.497 837.051 399.631 837.051C393.006 837.051 386.675 838.87 380.86 842.185Z" fill="#4284E2"/>
<path id="path190" d="M352.23 882.994V879.462H353.312C352.932 880.619 352.568 881.801 352.23 882.994Z" fill="#4284E2"/>
<path id="path192" d="M509.151 582.884H549.767V575.022H509.151V582.884Z" fill="#4A8FE6"/>
<g id="left-mark">
<path id="path194" d="M225.729 511.391C225.771 506.531 228.529 502.64 231.888 502.701C235.247 502.762 237.935 506.753 237.893 511.609C237.85 516.469 235.093 520.359 231.734 520.299C228.375 520.238 225.687 516.247 225.729 511.391ZM219.728 518.379L231.458 552.064L243.77 518.818C247.416 506.622 241.564 492.712 232.388 492.156C232.253 492.151 232.116 492.146 231.979 492.141C231.843 492.141 231.706 492.141 231.571 492.141C222.388 492.358 216.296 506.056 219.728 518.379Z" fill="#FF5B7E"/>
</g>
<path id="path200" d="M228.481 881.857C240.137 882.17 251.631 877.547 261.394 868.336C269.245 860.929 276.603 850.021 277.962 834.631C281.07 799.455 267.062 800.618 263.629 786.273C260.193 771.929 270.384 765.508 265.983 739.376C263.622 725.34 256.145 719.262 244.487 696.707C232.827 674.148 218.705 662.588 208.398 671C198.093 679.413 198.506 697.501 190.842 703.528C183.179 709.556 171.402 730.58 175.895 770.565C180.387 810.546 149.997 795.636 161.889 841.892C170.607 875.809 208.748 881.326 228.481 881.857Z" fill="#70C0FD"/>
<path id="path202" d="M214.606 851.618C215.69 873.834 217.276 962.308 214.973 969.998C211.538 981.467 229.557 967.179 229.557 967.179C229.557 967.179 224.769 914.355 221.994 888.557C220.759 877.072 218.495 842.523 218.474 839.517C218.568 839.244 218.665 838.971 218.765 838.698C219.09 837.809 219.447 836.935 219.819 836.071C220.568 834.348 221.394 832.671 222.285 831.059C224.069 827.836 226.108 824.875 228.329 822.192C232.51 816.993 238.262 812.542 243.526 809.742C236.931 812.152 231.101 816.154 227.218 820.034C224.718 822.46 222.354 825.233 220.206 828.376C219.664 829.169 219.136 829.983 218.623 830.827C218.811 826.961 219.175 823.895 219.743 821.914C220.396 819.625 222.294 815.755 224.622 810.278C227.084 806.362 230.221 802.174 233.589 798.581C237.253 794.691 241.159 791.503 245.552 789.734C240.946 790.644 236.665 793.115 232.595 796.308C231.311 797.323 230.053 798.4 228.791 799.572C234.109 784.419 239.336 762.229 237.184 732.737C237.184 732.737 236.58 752.563 233.202 770.666C232.646 767.726 231.877 764.917 230.991 762.213C228.741 755.711 227.256 752.861 224.147 747.298C226.736 753.291 227.96 756.327 229.615 763.032C232.794 776.815 230.901 781.711 228.992 786.93C223.715 801.35 217.33 811.728 214.612 820.176C213.593 817.432 212.557 814.709 211.503 811.996C209.249 806.216 206.933 800.491 204.52 794.853C204.129 793.938 203.735 793.024 203.34 792.114C202.973 790.548 202.931 790.452 202.566 788.244C202.408 787.254 202.259 786.258 202.132 785.253C201.874 783.247 201.659 781.226 201.506 779.185C201.357 777.149 201.236 775.097 201.192 773.041C201.113 770.878 201.157 768.473 201.178 766.857C201.044 768.418 200.823 770.853 200.746 773.036C200.641 775.102 200.614 777.179 200.616 779.261C200.621 781.342 200.69 783.429 200.806 785.511C200.825 785.859 200.849 786.203 200.872 786.546L200.832 786.455C199.574 783.687 198.296 780.933 196.966 778.235C195.639 775.532 194.274 772.864 192.846 770.277C191.417 767.685 189.918 765.174 188.296 762.845C189.805 765.326 191.176 767.968 192.474 770.676C193.771 773.39 195 776.163 196.191 778.973C197.384 781.782 198.523 784.636 199.641 787.506C200.761 790.376 201.844 793.271 202.908 796.187C203.044 796.56 203.179 796.934 203.315 797.308C200.9 796.373 198.525 795.707 196.055 795.151C192.021 794.317 190.522 794.155 186.644 793.812C190.482 794.681 191.944 795.045 195.879 796.419C199.897 797.894 202.782 799.38 204.433 800.421C206.013 804.867 207.54 809.348 209.029 813.855C210.008 816.826 210.968 819.812 211.902 822.808C212.276 824.016 212.826 825.143 213.015 826.436C213.701 831.135 214.606 851.618 214.606 851.618Z" fill="#07085B"/>
<g id="right-mark">
<path id="path204" d="M760.261 532.263C760.317 527.403 763.086 523.532 766.446 523.613C769.802 523.699 772.48 527.706 772.425 532.561C772.365 537.422 769.596 541.292 766.24 541.211C762.88 541.13 760.201 537.124 760.261 532.263ZM754.237 539.215L765.866 572.976L778.278 539.807C781.962 527.635 776.151 513.685 766.977 513.074C766.84 513.069 766.704 513.058 766.568 513.058C766.432 513.053 766.296 513.053 766.159 513.053C756.978 513.215 750.842 526.872 754.237 539.215Z" fill="#07085B"/>
</g>
<path id="path206" d="M133.921 954.012C133.921 954.012 134.93 929.76 149.52 932.008C149.52 932.008 169.387 886.197 190.186 950.869C190.186 950.869 208.966 936.187 215.874 968.118C215.874 968.118 227.437 936.95 243.89 947.277C260.343 957.604 265.955 985.969 265.955 985.969L144.524 989.713L133.921 954.012Z" fill="#70C0FD"/>
<path id="path210" d="M476.652 491.267C478.426 498.523 482.065 508.132 489.343 512.978C492.413 505.101 496.104 495.749 496.45 495.415V481.258L484.743 471.754L476.652 491.267Z" fill="#F99893"/>
<path id="path212" d="M346.017 776.229C346.017 776.229 341.948 772.076 338.058 785.369C334.171 798.667 339.395 803.952 339.395 803.952C339.395 803.952 346.083 796.793 346.017 795.429C345.954 794.064 345.713 776.896 345.713 776.896L346.017 776.229Z" fill="white"/>
<path id="path214" d="M352.708 771.434C352.708 771.434 349.415 768.499 345.713 776.896C344.348 779.988 342.926 784.621 341.592 791.508C336.644 817.079 341.592 817.079 341.592 817.079L349.9 811.965C349.9 811.965 357.853 782.646 357.381 780.256C356.91 777.871 352.708 771.434 352.708 771.434Z" fill="#FAA842"/>
<path id="path216" d="M422.587 705.595H284.402C283.323 705.595 282.446 706.863 282.446 708.424V710.602C282.446 712.168 283.323 713.436 284.402 713.436H422.587C423.666 713.436 424.542 712.168 424.542 710.602V708.424C424.542 706.863 423.666 705.595 422.587 705.595Z" fill="#283F56"/>
<path id="path218" d="M397.857 746.081H388.313V709.516H397.857V746.081Z" fill="#283F56"/>
<path id="path220" d="M321.246 736.107H318.05C315.763 736.107 313.905 733.419 313.905 730.105V702.356H325.391V730.105C325.391 733.419 323.537 736.107 321.246 736.107Z" fill="#283F56"/>
<path id="path222" d="M323.802 727.796C325.175 730.064 358.621 775.613 358.621 775.613L355.792 781.241L320.443 730.802L323.802 727.796Z" fill="#283F56"/>
<path id="path224" d="M627.569 811.789H629.441C633.346 811.789 636.513 816.371 636.513 822.02V835.146H627.793C627.793 835.146 623.906 825.43 622.491 827.477C621.077 829.523 627.569 811.789 627.569 811.789Z" fill="#FFE5B6"/>
<g id="left-wheel">
<path id="path226" d="M447.995 931.001C447.995 961.379 423.37 986.002 392.995 986.002C362.619 986.002 337.995 961.379 337.995 931.001C337.995 900.626 362.619 876.002 392.995 876.002C423.37 876.002 447.995 900.626 447.995 931.001Z" fill="#1A1A1A"/>
</g>
<path id="path228" d="M417.19 937.093C417.19 949.848 406.849 960.19 394.095 960.19C381.341 960.19 371 949.848 371 937.093C371 924.338 381.341 914 394.095 914C406.849 914 417.19 924.338 417.19 937.093" fill="#9E9DA2"/>
<g id="right-wheel">
<path id="path230" d="M692.285 930.295C692.285 960.674 667.661 985.297 637.287 985.297C606.908 985.297 582.285 960.674 582.285 930.295C582.285 899.921 606.908 875.297 637.287 875.297C667.661 875.297 692.285 899.921 692.285 930.295Z" fill="#1A1A1A"/>
</g>
<path id="path232" d="M660.181 935.096C660.181 947.851 649.844 958.192 637.09 958.192C624.336 958.192 613.995 947.851 613.995 935.096C613.995 922.341 624.336 912.002 637.09 912.002C649.844 912.002 660.181 922.341 660.181 935.096Z" fill="#9E9DA2"/>
<path id="path234" d="M460.807 900.253H339.769C333.881 900.253 329.111 893.351 329.111 884.838V868.978C329.111 860.46 333.881 853.558 339.769 853.558H460.807V900.253Z" fill="#283F56"/>
<path id="path236" d="M483.982 766.164H383.182C379.344 766.164 376.236 761.663 376.236 756.11V748.375C376.236 742.822 379.344 738.325 383.182 738.325H483.982C487.82 738.325 490.928 742.822 490.928 748.375V756.11C490.928 761.663 487.82 766.164 483.982 766.164Z" fill="#FAA842"/>
<path id="path238" d="M486.916 763.552C486.916 763.552 477.741 770.884 470.32 801.567C462.895 832.246 464.488 878.532 510.615 882.11H581.488L588.557 864.128C588.557 864.128 582.55 741.731 568.762 687.522H592.091C592.091 687.522 599.135 791.71 623.875 805.771C626.256 807.12 627.793 810.49 627.793 814.189V834.808L590.324 904.866H466.96C466.96 904.866 437.974 908.565 430.905 837.365L347.268 835.51C342.682 835.404 339.434 828.972 340.779 822.631C343.391 810.344 348.703 793.009 358.345 789.199C373.642 783.156 486.916 763.552 486.916 763.552Z" fill="#333333"/>
<path id="path240" d="M351.79 793.175C351.902 793.453 352.021 793.731 352.143 794.009H472.311L473.536 789.916C480.151 768.958 486.916 763.552 486.916 763.552H363.664C353.156 763.552 346.419 780.104 351.79 793.175Z" fill="#283F56"/>
<path id="path242" d="M344.509 853.558H434.293C443.942 853.558 450.714 839.79 447.546 826.608C442.762 806.701 431.646 785.288 404.276 781.62C368.927 776.886 347.55 817.751 339.092 840.436C336.881 846.363 339.853 853.558 344.509 853.558Z" fill="#FAA842"/>
<path id="path244" d="M584.444 918.454L612.016 854.019C612.016 854.019 626.156 838.164 654.081 846.349C671.424 851.432 681.677 868.176 686.958 880.13C689.406 885.678 686.675 892.943 682.128 892.943H639.671C626.652 892.943 614.338 901.467 606.169 916.129L605.08 918.085C599.185 928.665 590.293 934.819 580.899 934.819C574.55 934.819 568.438 931.312 563.811 925.017L558.995 918.454H584.444Z" fill="#FAA842"/>
<path id="path246" d="M594.001 623.37C594.001 617.954 590.578 613.882 586.904 614.927C571.269 619.379 554.855 637.502 554.855 659.193C554.855 680.878 571.269 699.001 586.904 703.453C590.578 704.498 594.001 700.426 594.001 695.01V623.37Z" fill="#FAA842"/>
<path id="path248" d="M594.001 623.562V694.818C604.443 690.018 612.007 675.886 612.007 659.193C612.007 642.494 604.443 628.362 594.001 623.562Z" fill="white"/>
<path id="path250" d="M414.411 705.595H292.577V599.31H414.411V705.595Z" fill="#FAA842"/>
<path id="path252" d="M417.002 585.926H289.986V599.31H417.002V585.926Z" fill="#F88900"/>
<path id="path254" d="M322.168 727.159C322.168 729.17 321.04 730.802 319.65 730.802C318.257 730.802 317.129 729.17 317.129 727.159C317.129 725.143 318.257 723.516 319.65 723.516C321.04 723.516 322.168 725.143 322.168 727.159Z" fill="#282828"/>
<path id="path256" d="M427.431 813.921H369.409C368.738 813.921 368.197 813.138 368.197 812.168V810.819C368.197 809.849 368.738 809.065 369.409 809.065H427.431C428.098 809.065 428.642 809.849 428.642 810.819V812.168C428.642 813.138 428.098 813.921 427.431 813.921Z" fill="#333333"/>
<path id="path258" d="M427.431 826.214H369.409C368.738 826.214 368.197 825.425 368.197 824.46V823.106C368.197 822.141 368.738 821.353 369.409 821.353H427.431C428.098 821.353 428.642 822.141 428.642 823.106V824.46C428.642 825.425 428.098 826.214 427.431 826.214Z" fill="#333333"/>
<path id="path260" d="M532.54 817.745L528.111 886.566L524.305 896.484L517.463 889.324L517.603 815.982L532.54 817.745Z" fill="#FFC0BB"/>
<path id="path264" d="M573.469 901.163L543.938 901.309C543.708 901.309 543.519 901.041 543.519 900.708L543.512 897.494C543.512 897.161 543.697 896.888 543.928 896.883L573.459 896.742C573.689 896.742 573.878 897.009 573.878 897.343L573.885 900.556C573.888 900.89 573.7 901.163 573.469 901.163Z" fill="#DAEEF7"/>
<path id="path268" d="M556.856 888.152C556.661 887.986 556.591 887.511 556.703 887.152C557.223 885.464 558.857 881.357 562.199 882.18C562.392 882.231 562.524 882.6 562.493 882.984L562.489 882.994C562.461 883.368 562.287 883.61 562.098 883.565C559.102 882.837 557.715 886.46 557.293 887.874C557.202 888.178 557.017 888.294 556.856 888.152Z" fill="#DAEEF7"/>
<path id="path270" d="M559.64 889.724C559.444 889.552 559.375 889.082 559.483 888.723C560.007 887.036 561.638 882.923 564.983 883.752C565.175 883.797 565.308 884.171 565.277 884.55L565.273 884.565C565.242 884.934 565.071 885.176 564.882 885.136C561.886 884.408 560.499 888.031 560.077 889.446C559.986 889.749 559.801 889.865 559.64 889.724Z" fill="#DAEEF7"/>
<path id="path272" d="M562.228 891.189C562.032 891.017 561.962 890.547 562.074 890.188C562.594 888.501 564.225 884.388 567.571 885.217C567.763 885.262 567.896 885.636 567.864 886.015L567.861 886.03C567.833 886.399 567.658 886.642 567.47 886.596C564.473 885.874 563.087 889.496 562.664 890.911C562.574 891.209 562.388 891.33 562.228 891.189Z" fill="#DAEEF7"/>
<g id="g274">
<g id="g276">
<path id="path282" d="M544.256 891.184H544.522V887.839H544.256V891.184Z" fill="#312B28"/>
</g>
</g>
<path id="path284" d="M545.279 898.636L545.276 897.343C545.276 897.085 545.161 896.863 545.003 896.782C545.014 896.752 545.021 896.722 545.031 896.691C545.402 895.479 545.471 893.66 544.27 891.214C544.267 891.204 544.26 891.194 544.256 891.184L544.522 887.839C544.672 887.819 544.829 887.809 544.993 887.809C547.043 887.809 550.301 889.421 552.275 898.601L545.279 898.636Z" fill="#F84D64"/>
<path id="path286" d="M427.431 838.501H369.409C368.738 838.501 368.197 837.718 368.197 836.748V835.399C368.197 834.429 368.738 833.646 369.409 833.646H427.431C428.098 833.646 428.642 834.429 428.642 835.399V836.748C428.642 837.718 428.098 838.501 427.431 838.501Z" fill="#333333"/>
<path id="path300" d="M394.546 585.926H371.899L329.439 705.595C333.144 705.595 344.676 705.595 352.087 705.595L394.546 585.926Z" fill="#333333"/>
<path id="path302" d="M358.39 629.039C357.426 628.322 356.239 628.872 355.743 630.272L351.276 642.858C350.78 644.252 351.165 645.97 352.129 646.688L367.327 657.975C368.291 658.692 369.478 658.137 369.974 656.742L374.441 644.156C374.937 642.762 374.553 641.044 373.589 640.327L358.39 629.039ZM366.056 661.557L350.857 650.27C348.528 648.537 347.606 644.389 348.8 641.019L353.267 628.428C354.461 625.058 357.332 623.724 359.661 625.457L374.86 636.744C377.19 638.472 378.115 642.625 376.917 645.995L372.45 658.581C371.256 661.951 368.385 663.285 366.056 661.557Z" fill="#FFE5B6"/>
<path id="path304" d="M481.282 460.088C483.158 465.989 481.635 472.608 477.881 474.872C474.127 477.14 469.566 474.195 467.69 468.293C465.815 462.392 467.337 455.778 471.092 453.51C474.842 451.241 479.407 454.187 481.282 460.088Z" fill="#FFC0BB"/>
<path id="path306" d="M544.867 901.163L515.336 901.309C515.106 901.309 514.917 901.041 514.917 900.708L514.91 897.494C514.906 897.161 515.095 896.888 515.326 896.883L544.857 896.742C545.087 896.742 545.276 897.009 545.276 897.343L545.283 900.556C545.283 900.89 545.098 901.163 544.867 901.163Z" fill="#DAEEF7"/>
<path id="path310" d="M528.25 888.152C528.058 887.986 527.985 887.511 528.097 887.152C528.621 885.464 530.252 881.357 533.597 882.18C533.789 882.231 533.922 882.6 533.887 882.984V882.994C533.856 883.368 533.685 883.61 533.496 883.565C530.5 882.837 529.113 886.46 528.69 887.874C528.6 888.178 528.415 888.294 528.25 888.152Z" fill="#DAEEF7"/>
<path id="path312" d="M531.034 889.724C530.842 889.552 530.769 889.082 530.88 888.723C531.401 887.036 533.035 882.923 536.377 883.752C536.573 883.797 536.702 884.171 536.671 884.55V884.565C536.639 884.934 536.465 885.176 536.28 885.136C533.283 884.408 531.893 888.031 531.474 889.446C531.383 889.749 531.195 889.865 531.034 889.724Z" fill="#DAEEF7"/>
<path id="path314" d="M533.622 891.189C533.43 891.017 533.357 890.547 533.468 890.188C533.989 888.501 535.623 884.388 538.965 885.217C539.161 885.262 539.293 885.636 539.259 886.015V886.03C539.227 886.399 539.053 886.642 538.867 886.596C535.871 885.874 534.485 889.496 534.062 890.911C533.971 891.209 533.786 891.33 533.622 891.189Z" fill="#DAEEF7"/>
<path id="path316" d="M515.273 896.135C515.273 896.009 515.28 895.883 515.291 895.751C515.28 895.883 515.273 896.009 515.273 896.135Z" fill="#312B28"/>
<path id="path318" d="M516.523 898.636C515.821 898.636 515.27 897.49 515.273 896.135C515.273 896.009 515.28 895.883 515.291 895.751L515.919 887.839C516.066 887.819 516.223 887.809 516.391 887.809C518.437 887.809 521.699 889.421 523.669 898.601L516.527 898.636C516.527 898.636 516.527 898.636 516.523 898.636Z" fill="#F84D64"/>
<path id="path320" d="M597.018 922.964H447.658C444.134 922.964 441.274 918.831 441.274 913.728V906.614C441.274 901.516 444.134 897.378 447.658 897.378H597.018C600.546 897.378 603.402 901.516 603.402 906.614V913.728C603.402 918.831 600.546 922.964 597.018 922.964Z" fill="#283F56"/>
<path id="path322" d="M372.262 985.969H273.286C273.286 985.969 272.779 985.747 271.927 985.337H371.703C371.888 985.55 372.073 985.762 372.262 985.969Z" fill="#F4FCFF"/>
<path id="path328" d="M502.135 985.56C502.058 985.489 501.978 985.413 501.901 985.338H523.253L502.135 985.56Z" fill="#F4FCFF"/>
<path id="path332" d="M704.177 985.635H591.287C591.287 985.635 591.228 985.529 591.127 985.338H704.006C704.121 985.534 704.177 985.635 704.177 985.635Z" fill="#F4FCFF"/>
<path id="path334" d="M704.006 985.338H591.127C590.121 983.448 585.078 973.08 595.304 973.08C597.347 973.08 599.994 973.494 603.402 974.47C603.402 974.47 596.959 962.47 602.658 957.736C612.049 974.545 626.417 985.297 642.523 985.297C658.714 985.297 673.155 974.424 682.542 957.458C695.439 971.17 702.812 983.317 704.006 985.338Z" fill="#4E92E7" fill-opacity="0.9"/>
<path id="path340" d="M438.211 985.56H408.376C408.376 985.56 408.352 985.484 408.31 985.338H438.037C438.096 985.413 438.152 985.484 438.211 985.56Z" fill="#F4FCFF"/>
<g id="smoke">
<path id="path324" d="M371.703 985.338H271.927C270.398 984.61 267.747 983.307 264.915 981.715C263.94 978.153 262.239 972.767 259.631 967.159C262.383 966.663 266.137 966.381 271.113 966.381C271.815 966.381 272.535 966.386 273.286 966.396C273.286 966.396 252.026 943.538 276.258 943.538C279.142 943.538 282.67 943.862 286.955 944.584C327.253 951.4 331.021 968.785 331.021 968.785C331.021 968.785 333.2 963.213 339.986 963.213C346.146 963.213 356.11 967.805 371.703 985.338Z" fill="#DCE9FA"/>
<path id="path326" d="M264.914 981.715C256.432 976.94 246.309 969.548 259.631 967.159C262.239 972.767 263.94 978.153 264.914 981.715Z" fill="#E2F2FF"/>
<path id="path330" d="M523.253 985.338H501.901C483.538 967.962 488.99 963.526 499.359 963.526C510.195 963.526 526.393 968.371 526.393 968.371C527.28 966.082 529.134 965.143 531.586 965.143C542.81 965.143 566.506 984.883 566.506 984.883L523.253 985.338Z" fill="#DCE9FA"/>
<path id="path342" d="M438.037 985.338H408.31C408.251 985.12 408.153 984.757 408.052 984.297C415.246 982.579 421.934 978.688 427.783 973.116C430.661 976.284 434.055 980.31 438.037 985.338Z" fill="#DCE9FA"/>
<path id="path344" d="M408.052 984.297C407.57 982.079 407.056 977.708 410.458 977.708C411.6 977.708 413.178 978.198 415.347 979.426C415.347 979.426 409.459 962.783 414.757 962.783C416.901 962.783 420.865 965.491 427.783 973.115C421.934 978.688 415.246 982.579 408.052 984.297Z" fill="#D1D1D1"/>
</g>
<g id="man-bike">
<path id="path208" d="M496.45 495.415C495.845 495.996 485.152 523.795 485.152 523.795L470.76 505.48L484.743 471.754L496.45 481.258V495.415Z" fill="#FFC0BB"/>
<path id="path262" d="M558.226 811.294L556.043 886.566L552.24 896.484L545.398 889.325L545.534 815.982L558.226 811.294Z" fill="#FFC0BB"/>
<path id="path266" d="M544.871 883.449L543.893 895.751C543.771 897.267 544.361 898.642 545.133 898.636L571.891 898.51C572.586 898.505 573.27 897.874 573.634 896.691C574.007 895.479 574.077 893.66 572.872 891.214C570.466 886.323 562.591 885.172 558.732 881.003L546.268 881.064C545.569 881.069 544.979 882.079 544.871 883.449Z" fill="#FF5B7E"/>
<path id="path288" d="M539.482 716.453C542.982 716.842 557.517 725.411 559.399 740.599C561.285 755.787 559.399 873.783 559.399 873.783H543.251C543.251 873.783 530.329 780.317 530.329 777.593C530.329 774.865 539.482 716.453 539.482 716.453Z" fill="#282828"/>
<path id="path290" d="M428.583 682.576C428.852 683.743 425.035 735.925 461.802 740.21C498.566 744.494 519.831 751.502 519.831 751.502C519.831 751.502 514.718 869.499 514.987 875.339C514.987 875.339 527.636 878.452 533.021 877.285C533.021 877.285 561.823 746.439 553.48 719.57C545.133 692.696 478.649 682.576 478.649 682.576H428.583Z" fill="#333333"/>
<path id="path292" d="M489.79 588.755C489.79 588.755 490.167 614.154 491.337 616.509C492.503 618.858 548.22 649.648 548.22 649.648L539.074 664.609L498.025 647.643C498.025 647.643 468.623 632.384 468.923 631.282C469.223 630.181 470.84 614.554 472.297 608.435C473.749 602.311 479.236 588.478 479.236 588.478L489.79 588.755Z" fill="#F9B7B4"/>
<path id="path294" d="M469.237 500.129C469.237 500.129 432.013 519.698 427.773 626.008L425.957 686.466C425.957 686.466 468.354 712.754 492.577 689.973C492.577 689.973 495.032 582.066 497.581 542.616C498.014 535.962 496.139 529.439 492.584 525.175C484.46 515.443 470.606 499.215 469.237 500.129Z" fill="#FF5B7E"/>
<path id="path296" d="M456.315 575.664C456.315 575.664 447.214 630.09 459.937 645.046C467.871 654.372 541.857 672.663 541.857 672.663L546.627 655.979C546.627 655.979 487.711 625.558 484.195 622.036C480.678 618.51 486.58 571.981 486.58 571.981L456.315 575.664Z" fill="#FFC0BB"/>
<path id="path298" d="M485.092 519.819C481.76 515.539 476.983 514.413 472.876 516.919C467.19 520.39 459.05 530.257 454.649 558.031L450.92 581.995C450.92 581.995 478.575 591.817 487.058 591.261L491.399 554.211C491.399 554.211 493.858 531.061 485.092 519.819Z" fill="#FF3D5E"/>
<path id="path308" d="M516.269 883.449L515.291 895.751C515.169 897.267 515.759 898.642 516.527 898.636L543.289 898.51C543.984 898.505 544.668 897.874 545.031 896.691C545.402 895.479 545.471 893.66 544.27 891.214C541.864 886.323 533.989 885.172 530.13 881.003L517.662 881.064C516.967 881.069 516.377 882.079 516.269 883.449Z" fill="#FF5B7E"/>
<path id="path346" d="M509.622 485.997L508.159 494.248C508.159 494.248 495.391 479.278 495.493 478.985C495.594 478.691 497.815 473.361 498.772 473.801C499.732 474.24 507.705 478.691 507.705 478.985C507.705 479.278 509.622 485.997 509.622 485.997Z" fill="white"/>
<path id="path348" d="M500.689 480.324C504.576 485.8 508.383 486.937 510.101 487.155C510.646 484.31 511.023 482.254 511.023 482.254C511.023 482.254 515.319 480.329 516.698 478.116C516.698 478.116 512.354 469.516 512.291 465.484C512.228 461.452 516.555 437.286 504.531 423.594C492.507 409.907 485.361 434.462 485.361 434.462L480.263 459.881L473.26 475.256C473.26 475.256 474.933 489.155 484.481 498.932C494.033 508.709 504.562 504.975 506.35 503.777C506.79 503.484 508.072 497.477 509.183 491.884C502.959 488.781 500.689 480.324 500.689 480.324Z" fill="#FFC0BB"/>
<path id="path352" d="M500.197 459.866C500.864 459.052 501.517 458.335 502.198 457.734C502.875 457.132 503.581 456.663 504.314 456.359C505.044 456.071 505.802 455.859 506.588 455.884L506.884 455.869C506.986 455.864 507.084 455.89 507.185 455.895L507.792 455.94C508.201 455.975 508.606 456.097 509.053 456.112C508.714 455.753 508.355 455.42 507.964 455.147C507.562 454.945 507.16 454.652 506.713 454.581C505.844 454.293 504.89 454.399 504.003 454.768C503.113 455.137 502.289 455.834 501.632 456.718C500.986 457.617 500.455 458.679 500.197 459.866Z" fill="#333333"/>
<path id="path368" d="M539.87 654.251C539.87 654.251 549.016 646.198 552.991 646.198C556.968 646.198 565.319 649.648 565.319 655.403C565.319 661.158 562.933 664.609 562.933 664.609L554.856 674.689C554.856 674.689 551.003 678.988 549.414 676.689C547.822 674.386 543.051 677.265 535.176 670.965C527.448 664.781 534.698 661.158 535.892 659.43C537.087 657.702 539.87 654.251 539.87 654.251Z" fill="#FFC0BB"/>
<path id="path350" d="M502.928 464.726C503.438 465.995 504.597 466.454 505.519 465.747C506.438 465.045 506.773 463.443 506.263 462.175C505.753 460.907 504.594 460.452 503.675 461.154C502.753 461.856 502.418 463.458 502.928 464.726Z" fill="#333333"/>
<path id="path358" d="M445.591 455.46C445.591 454.48 445.608 453.879 445.612 453.772C445.612 453.793 445.612 453.803 445.612 453.803C445.612 453.803 445.591 454.404 445.591 455.46ZM445.608 453.004C445.612 448.851 446.038 428.323 453.518 411.958C453.518 411.968 453.518 411.983 453.522 411.993C446.062 428.303 445.615 448.745 445.608 453.004Z" fill="#CAA3BE"/>
</g>
<g id="helmet">
<path id="path354" d="M487.317 446.36C487.317 446.36 483.095 451.539 482.04 475.321C481.223 493.768 470.55 496.764 470.763 496.663C470.976 496.562 473.763 456.142 474.301 454.778C474.839 453.414 478.429 438.034 478.991 437.645C479.55 437.256 486.817 444.117 487.223 444.289C487.624 444.461 487.317 446.36 487.317 446.36Z" fill="#B66400"/>
<path id="path356" d="M521.136 429.465C521.136 429.465 516.83 388.63 480.629 390.843C444.424 393.056 445.611 453.803 445.611 453.803C445.611 453.803 444.155 497.82 465.821 497.81C465.821 497.81 480.493 499.174 480.493 472.694C480.493 447.078 485.878 447.078 485.878 447.078L521.136 429.465Z" fill="#FAA842"/>
<path id="path360" d="M466.181 497.775C465.951 497.775 465.822 497.765 465.822 497.765C465.818 497.765 465.818 497.765 465.815 497.765C446.722 497.765 445.591 463.559 445.591 455.46C445.591 454.404 445.612 453.803 445.612 453.803C445.612 453.803 445.612 453.793 445.612 453.772C445.612 453.762 445.612 453.757 445.612 453.757C445.612 453.757 445.605 453.494 445.608 453.004C445.615 448.745 446.062 428.303 453.522 411.993C454.192 438.231 460.611 463.503 480.482 473.674C480.144 496.688 468.399 497.775 466.181 497.775Z" fill="#F88900"/>
<path id="path364" d="M485.878 447.078C486.975 446.532 514.585 443.45 527.552 442.025C529.766 441.783 530.545 437.65 528.722 435.811L521.137 428.161L485.878 447.078Z" fill="#1A1A1A"/>
<path id="path362" d="M469.391 481.258C469.391 484.537 467.55 487.2 465.284 487.2C463.017 487.2 461.18 484.537 461.18 481.258C461.18 477.979 463.017 475.321 465.284 475.321C467.55 475.321 469.391 477.979 469.391 481.258Z" fill="#B66400"/>
</g>
<path id="path366" d="M485.878 447.078C487.107 446.467 514.072 433.547 521.832 429.834C522.946 429.298 523.508 427.499 523.047 425.933L522.003 422.386C521.538 420.81 520.236 420.148 519.195 420.966L485.878 447.078Z" fill="#283F56"/>
<path id="path370" d="M565.203 662.755C565.203 669.515 561.414 674.997 556.742 674.997C552.069 674.997 548.28 669.515 548.28 662.755C548.28 655.994 552.069 650.512 556.742 650.512C561.414 650.512 565.203 655.994 565.203 662.755Z" fill="#1A1A1A"/>
<path id="path372" d="M946.137 1000.06H61.0686C59.0434 1000.06 57.4016 997.681 57.4016 994.75V990.663C57.4016 987.738 59.0434 985.358 61.0686 985.358H946.137C948.162 985.358 949.804 987.738 949.804 990.663V994.75C949.804 997.681 948.162 1000.06 946.137 1000.06Z" fill="#07085B"/>
<path id="path378" d="M68.4973 985.56C68.4973 985.56 77.1894 966.552 93.0212 970.629C93.0212 970.629 101.738 943.846 125.931 943.538C150.451 943.22 155.107 967.932 155.107 967.932C155.107 967.932 162.092 959.403 177.924 968.159C193.756 976.92 199.344 992.709 199.344 992.709L68.4973 985.56Z" fill="#07085B"/>
<path id="path380" d="M878.55 954.012C878.55 954.012 877.54 929.76 862.949 932.008C862.949 932.008 843.082 886.197 822.285 950.869C822.285 950.869 803.503 936.187 796.595 968.118C796.595 968.118 785.032 936.95 768.579 947.277C752.127 957.604 746.515 985.969 746.515 985.969L867.947 989.713L878.55 954.012Z" fill="#70C0FD"/>
<path id="path382" d="M943.972 985.56C943.972 985.56 935.279 966.552 919.448 970.629C919.448 970.629 910.732 943.846 886.54 943.538C862.02 943.22 857.362 967.932 857.362 967.932C857.362 967.932 850.377 959.403 834.546 968.159C818.715 976.92 813.128 992.709 813.128 992.709L943.972 985.56Z" fill="#07085B"/>
<path id="path384" d="M849.735 844.014C840.62 837.269 832.957 826.032 830.216 812.314C827.576 799.092 829.622 785.046 831.843 771.672C832.814 765.821 833.799 759.551 832.22 753.953C831.239 750.466 829.36 747.637 827.656 744.727C812.925 719.621 809.566 685.142 811.431 653.003C811.951 644.081 812.873 634.976 815.939 627.079C819.005 619.187 824.607 612.639 831.106 612.017C841.143 611.062 850.705 623.906 860.264 619.591C867.116 616.494 870.57 605.848 876.779 600.811C881.997 596.582 888.444 596.829 894.496 597.208C896.403 597.325 898.351 597.456 900.115 598.456C904.117 600.725 906.157 606.788 907.428 612.467C909.481 621.652 910.498 631.232 912.558 640.412C914.622 649.598 917.915 658.657 923.479 664.488C927.942 669.171 933.481 671.389 938.513 674.82C950.956 683.303 960.012 699.032 966.731 715.73C968.743 720.727 970.594 725.901 971.621 731.434C974.851 748.839 968.614 768.711 957.187 777.437C952.937 780.685 948.156 782.469 943.923 785.758C934.218 793.291 928.567 807.565 923.011 820.838C917.454 834.111 910.763 847.939 900.3 853.219C886.006 860.439 862.73 853.634 849.735 844.014Z" fill="#70C0FD"/>
<path id="path386" d="M950.579 755.963C948.312 755.488 946.032 755.246 943.751 755.099C941.471 754.963 939.187 754.983 936.903 755.084C936.278 755.115 935.653 755.155 935.031 755.2C937.937 753.195 940.8 750.941 943.518 748.198C946.455 745.222 949.259 741.645 951.445 737.057C949.081 741.352 946.189 744.509 943.189 747.071C940.179 749.628 937.022 751.598 933.83 753.301C930.896 754.852 927.931 756.171 924.942 757.378C925.389 756.236 925.797 755.054 926.178 753.846C927.016 751.158 927.697 748.334 928.197 745.419C928.706 742.509 929.024 739.517 929.181 736.516C929.325 733.51 929.3 730.499 929.115 727.538C929.129 730.519 928.982 733.49 928.675 736.39C928.354 739.285 927.882 742.109 927.236 744.787C926.601 747.475 925.804 750.027 924.875 752.386C924.411 753.568 923.915 754.705 923.388 755.782C922.972 756.625 922.19 758.186 921.659 758.672C919.207 759.606 916.742 760.501 914.276 761.41C906.432 764.351 895.365 768.094 883.219 783.121C882.709 774.334 882.154 764.27 881.773 757.227C881.448 751.229 881.689 745.181 882.496 739.331L882.506 739.24C883.348 733.207 884.228 727.184 885.14 721.172C886.53 712.052 887.982 702.962 889.522 693.913C892.613 674.901 891.89 672.42 892.163 668.095C892.236 666.923 892.246 665.741 892.173 664.568C892.17 664.503 892.166 664.447 892.166 664.392C891.946 660.451 891.656 656.54 891.272 652.66C890.277 642.802 889.435 637.588 888.08 629.848C888.981 637.825 889.505 643.121 889.917 652.958C890.071 656.823 890.13 660.698 890.12 664.558C890.12 666.488 890.081 668.413 890.032 670.333C890.001 671.288 889.973 672.248 889.931 673.198C889.91 673.673 889.889 674.148 889.861 674.618C889.847 674.901 888.754 681.696 888.339 683.591C885.772 695.273 883.369 707.06 881.067 718.923C879.992 724.481 878.948 730.059 877.931 735.667C877.931 735.667 877.415 738.264 876.877 743.201C876.636 742.114 874.631 734.096 873.66 730.797C868.761 714.129 863.826 699.891 855.671 682.788C852.542 676.225 852.13 675.593 847.985 667.807C853.129 678.751 851.62 675.411 855.123 683.576C862.569 701.305 867.004 716.069 871.216 732.843C872.745 739.492 873.552 742.852 875.103 751.613C875.288 752.669 875.469 753.725 875.63 754.791C875.724 755.387 875.819 755.984 875.909 756.58C875.571 764.831 875.787 773.117 876.458 781.302C876.734 784.641 879.426 844.59 879.737 866.568C880.435 915.956 874.411 971.837 874.411 971.837C874.411 971.837 910.518 988.106 903.181 968.437C898.264 955.25 886.446 836.081 883.879 794.196C884.071 793.888 884.263 793.574 884.459 793.266C895.435 776.077 906.848 770.474 914.95 766.356C918.684 764.477 922.445 762.628 926.182 760.581L926.178 760.586C928.378 759.945 934.762 758.242 937.004 757.828C939.246 757.419 941.502 757.1 943.758 756.928C946.014 756.772 948.278 756.706 950.537 756.878C952.793 757.065 955.053 757.434 957.284 758.192C955.091 757.136 952.839 756.459 950.579 755.963Z" fill="#07085B"/>
</g>
</g>
</g>
<defs>
<linearGradient id="paint0_linear" x1="55.4949" y1="896.002" x2="688.995" y2="166.502" gradientUnits="userSpaceOnUse">
<stop stop-color="#7F00FF"/>
<stop offset="1" stop-color="#E100FF"/>
</linearGradient>
<linearGradient id="paint1_linear" x1="354.614" y1="228.565" x2="354.614" y2="186.002" gradientUnits="userSpaceOnUse">
<stop stop-color="#E3C8FB"/>
<stop offset="1" stop-color="#F4E8FE"/>
</linearGradient>
<radialGradient id="paint2_radial" cx="0" cy="0" r="1" gradientUnits="userSpaceOnUse" gradientTransform="translate(824.495 334.502) rotate(-62.387) scale(36.6777 85.5276)">
<stop stop-color="#E3C8FB"/>
<stop offset="1" stop-color="#F4E8FE"/>
</radialGradient>
<linearGradient id="paint3_linear" x1="56.6147" y1="443.56" x2="56.6147" y2="401.002" gradientUnits="userSpaceOnUse">
<stop stop-color="#E3C8FB"/>
<stop offset="1" stop-color="#F4E8FE"/>
</linearGradient>
<linearGradient id="paint4_linear" x1="639.43" y1="161.852" x2="639.43" y2="97.0025" gradientUnits="userSpaceOnUse">
<stop stop-color="#E3C8FB"/>
<stop offset="0.963542" stop-color="#F4E8FE"/>
</linearGradient>
<clipPath id="clip0">
<rect width="1000" height="1000" fill="white"/>
</clipPath>
</defs>
</svg>
