<svg width="2000" height="2000" viewBox="0 0 2000 2000" fill="none" xmlns="http://www.w3.org/2000/svg">
<g id="6447 1" clip-path="url(#clip0)">
<g id="g10">
<g id="g12">
<path id="path16" d="M1484.15 100.982C1803.73 384.62 1703.3 866.741 1840.08 1011.03C2017.38 1198.07 2115.09 1970.6 1761.99 1986.01C1059.76 2016.62 152.284 1986.01 152.284 1986.01C152.284 1986.01 -102.813 1653.86 47.3228 1101.35C197.458 548.827 585.778 692.955 729.941 444.331C874.105 195.706 1164.56 -182.656 1484.15 100.982" fill="#C388FF"/>
<path id="path18" d="M1785.02 1970.67H1424.02C1421.63 1966.63 1406.89 1942.34 1381.09 1914.91C1395.13 1889.55 1403.52 1857.36 1403.52 1822.34C1403.52 1794.48 1398.21 1768.41 1388.97 1746.14H1441.03V1730.42H1381.45C1362.68 1696.12 1333.64 1674.1 1301.06 1674.1C1287.91 1674.1 1275.34 1677.69 1263.79 1684.21L1271.6 1669.61V1628.37C1271.6 1620.98 1268.52 1614.24 1263.76 1611.54C1261.94 1610.5 1260.17 1609.22 1258.44 1607.72V1596.34H1248.76C1239.17 1581.98 1231.32 1560.44 1224.92 1536.35V1528.07H1222.81C1205.9 1459.46 1200.19 1375.04 1200.19 1375.04H1153.53C1161.34 1405.73 1167.89 1447.34 1173.29 1491.23V1493.73H1173.59C1177.76 1528.02 1181.22 1563.58 1184.02 1596.34H1173.29V1630.26H1186.76C1191.08 1686.7 1193.12 1728.25 1193.12 1728.25L1191.31 1732.87H1173.29V1764.21H1135.86C1135 1763.53 1134.2 1762.79 1133.47 1762L1128.42 1762.03L1132.46 1622.58L1107.08 1631.96L1106.83 1763.28C1106.65 1763.55 1106.49 1763.86 1106.35 1764.21H1078.65C1077.8 1763.53 1077 1762.79 1076.27 1762L1072.94 1762.02L1081.09 1635.49L1051.22 1631.96L1050.97 1762.17C1050.24 1762.37 1049.59 1763.11 1049.14 1764.21H1037.24C944.986 1757.06 941.801 1664.49 956.65 1603.13C971.492 1541.76 989.841 1527.1 989.841 1527.1C989.841 1527.1 763.545 1566.27 732.749 1578.37H720.47V1587.79C708.708 1601.79 701.563 1626.47 697.567 1645.26C694.878 1657.94 701.374 1670.8 710.545 1671.02L720.47 1671.23V1684.36H777.731C753.473 1698.19 733.741 1725.02 722.635 1758.92H720.47V1765.98C715.532 1783.36 712.808 1802.39 712.808 1822.34C712.808 1904.22 758.683 1970.59 815.273 1970.59C821.008 1970.59 826.637 1969.9 832.113 1968.59C832.316 1969.51 832.511 1970.24 832.63 1970.67H759.417C728.23 1935.61 708.303 1926.42 695.982 1926.42C682.411 1926.42 678.052 1937.57 678.052 1937.57C678.052 1937.57 670.516 1902.79 589.92 1889.16C581.349 1887.72 574.295 1887.07 568.526 1887.07C520.062 1887.07 562.582 1932.79 562.582 1932.79C561.08 1932.77 559.641 1932.76 558.237 1932.76C548.284 1932.76 540.775 1933.32 535.272 1934.31C528.301 1919.32 518.093 1903.53 503.791 1894.55C499.113 1891.61 494.635 1890.36 490.391 1890.36C464.779 1890.36 447.757 1936.23 447.757 1936.23C440.561 1902.97 426.92 1894.99 415.503 1894.99C405.002 1894.99 396.382 1901.73 396.382 1901.73C379.168 1848.21 362.276 1832.52 348.384 1832.52C328.705 1832.52 315.05 1864.01 315.05 1864.01C313.756 1863.81 312.521 1863.72 311.333 1863.72C285.699 1863.72 283.851 1908.02 283.851 1908.02L302.459 1970.67H171.443V1845.47H224.485V1830.67V1747.2H277.526V1795.66H301.72V1663.73H385.471V1732.38H408.734V1208.52L684.178 1204.71V1437.36L694.41 1437.55H707.444V1236.75H726.051V1178.72H753.04V1009.31H792.119V1178.72H819.108V1236.75H837.722V1419.39H860.052V974.799H872.149V915.2H907.24C907.694 936.552 912.158 995.616 947.64 995.616C947.647 995.616 947.647 995.616 947.654 995.616C947.654 995.616 947.912 995.636 948.38 995.636C949.903 995.636 953.667 995.383 957.984 993.18C959.339 992.695 963.474 990.856 967.818 986.137L957.53 1010.95L986.314 1047.59C986.314 1047.59 987.941 1043.34 990.33 1037.19V1257.26L1025.69 1255.91V1075.19H1126.19L1130.7 1414.9L1145.73 1413.55V1298.89H1178.3V1208.69H1197.84V1148.1H1274.15V1208.69H1293.69V1298.89H1326.26V1510.56L1354.18 1509.21V1299.28H1447.5V1496.78L1507.72 1495.73L1506.78 1249.07H1597.05V1453.71H1615.66V1776.82H1630.55V1830.67H1645.44V1760.66H1713.37V1830.67H1731.98V1795.66H1785.02V1970.67V1970.67ZM574.672 1680.2V1741.28H607.263V1680.2H574.672ZM481.543 1680.2V1741.28H514.137V1680.2H481.543ZM1543.52 1645.2V1679.13H1561.63V1645.2H1543.52ZM1513.25 1645.2V1679.13H1531.36V1645.2H1513.25ZM1359.8 1662.56V1678.28H1441.03V1662.56H1359.8ZM615.651 1575.88V1636.95H648.242V1575.88H615.651ZM531.626 1575.88V1636.95H564.216V1575.88H531.626ZM1273.87 1596.34V1630.26H1291.97V1596.34H1273.87ZM1573.8 1584.72V1618.64H1591.91V1584.72H1573.8ZM1359.8 1594.7V1610.43H1441.03V1594.7H1359.8V1594.7ZM1573.8 1524.24V1558.16H1591.91V1524.24H1573.8ZM1543.52 1524.24V1558.16H1561.63V1524.24H1543.52ZM720.47 1533.23V1548.96H820.428V1533.23H720.47ZM1359.8 1526.85V1542.57H1441.03V1526.85H1359.8ZM1034.31 1523.26V1538.97H1115.54V1523.26H1034.31ZM574.672 1442.94V1504.02H607.263V1442.94H574.672V1442.94ZM481.543 1442.94V1504.02H514.137V1442.94H481.543ZM431.46 1442.94V1504.02H464.054V1442.94H431.46ZM1513.25 1463.75V1497.68H1531.36V1463.75H1513.25ZM1273.87 1459.81V1493.73H1291.97V1459.81H1273.87ZM1240.34 1459.81V1493.73H1258.44V1459.81H1240.34ZM1034.31 1455.39V1471.12H1115.54V1455.39H1034.31ZM720.47 1442.97V1458.69H820.428V1442.97H720.47ZM879.93 1423.38V1457.31H898.035V1423.38H879.93ZM1359.8 1425.06V1440.78H1441.03V1425.06H1359.8ZM1573.8 1403.27V1437.21H1591.91V1403.27H1573.8ZM1513.25 1403.27V1437.21H1531.36V1403.27H1513.25ZM1206.81 1391.54V1425.47H1224.92V1391.54H1206.81ZM481.543 1343.94V1405.02H514.137V1343.94H481.543ZM1573.8 1342.79V1376.73H1591.91V1342.79H1573.8ZM1359.8 1357.2V1372.93H1441.03V1357.2H1359.8ZM1034.31 1353.62V1369.33H1115.54V1353.62H1034.31ZM720.47 1352.7V1368.41H820.428V1352.7H720.47ZM1273.87 1323.28V1357.2H1291.97V1323.28H1273.87ZM1173.29 1323.28V1357.2H1191.39V1323.28H1173.29ZM1359.8 1323.28V1338.99H1441.03V1323.28H1359.8ZM955.26 1303.62V1337.55H973.364V1303.62H955.26ZM720.47 1307.56V1323.28H820.428V1307.56H720.47ZM1573.8 1282.32V1316.24H1591.91V1282.32H1573.8ZM1513.25 1282.32V1316.24H1531.36V1282.32H1513.25ZM615.651 1246.48V1307.56H648.242V1246.48H615.651ZM531.626 1246.48V1307.56H564.216V1246.48H531.626ZM481.543 1246.48V1307.56H514.137V1246.48H481.543ZM431.46 1246.48V1307.56H464.054V1246.48H431.46ZM720.47 1262.42V1278.14H820.428V1262.42H720.47ZM917.592 1243.73V1277.67H935.703V1243.73H917.592ZM879.93 1243.73V1277.67H898.035V1243.73H879.93ZM1034.31 1251.83V1267.55H1115.54V1251.83H1034.31ZM1261.13 1231.11V1265.05H1279.24V1231.11H1261.13ZM1222.24 1231.11V1265.05H1240.34V1231.11H1222.24ZM1034.31 1217.9V1233.62H1115.54V1217.9H1034.31ZM955.26 1183.85V1217.78H973.364V1183.85H955.26ZM879.93 1183.85V1217.78H898.035V1183.85H879.93ZM1034.31 1150.04V1165.76H1115.54V1150.04H1034.31ZM955.26 1123.97V1157.9H973.364V1123.97H955.26ZM917.592 1123.97V1157.9H935.703V1123.97H917.592ZM1034.31 1116.12V1131.83H1115.54V1116.12H1034.31ZM955.26 1064.09V1098.02H973.364V1064.09H955.26ZM879.93 1064.09V1098.02H898.035V1064.09H879.93ZM917.592 1004.21V1038.14H935.703V1004.21H917.592ZM879.93 1004.21V1038.14H898.035V1004.21H879.93ZM1198.26 1970.67H1062.52L1149.02 1969.76C1149.02 1969.76 1101.63 1930.28 1079.18 1930.28C1074.28 1930.28 1070.57 1932.16 1068.8 1936.74C1068.8 1936.74 1036.4 1927.05 1014.73 1927.05C993.99 1927.05 983.087 1935.92 1019.81 1970.67H892.084C884.121 1960.62 877.332 1952.56 871.577 1946.23C899.383 1919.71 917.738 1874.13 917.738 1822.34C917.738 1811.87 916.991 1801.66 915.566 1791.8C930.129 1808.34 944.05 1809.8 948.478 1809.8C949.421 1809.8 949.931 1809.73 949.931 1809.73H1196.66L1199.3 1804.8C1198.83 1810.55 1198.59 1816.41 1198.59 1822.34C1198.59 1857.62 1207.11 1890.02 1221.33 1915.47C1209.93 1924.93 1222.81 1948.93 1222.81 1948.93C1216 1946.98 1210.7 1946.16 1206.62 1946.16C1186.17 1946.16 1196.25 1966.89 1198.26 1970.67V1970.67ZM559.865 1970.67H547.655C547.341 1969.27 546.747 1966.74 545.839 1963.43C551.504 1966.61 556.805 1969.22 559.865 1970.67ZM882.864 1710.92C866.031 1689.53 844.302 1676 820.428 1674.28V1673.45L877.821 1674.72C879.148 1688.06 880.852 1700.09 882.864 1710.92" fill="#4E92E7"/>
<g id="cloud-2">
<path id="path24" d="M840.69 515.586C843.184 499.852 852.914 488.12 864.543 488.12C866.68 488.12 868.748 488.515 870.725 489.262C876.459 471.508 888.92 459.2 903.364 459.2C907.094 459.2 910.698 460.018 914.085 461.544C921.859 442.921 935.989 430.461 952.124 430.461C971.325 430.461 987.683 448.094 993.878 472.781C998.265 469.234 1003.31 467.213 1008.69 467.213C1025.53 467.213 1039.17 486.958 1039.17 511.301C1039.17 512.746 1039.12 514.171 1039.02 515.586H840.69" fill="white"/>
</g>
<path id="path26" d="M1462.5 652.752C1464.99 637.028 1474.72 625.286 1486.35 625.286C1488.49 625.286 1490.56 625.69 1492.54 626.428C1498.28 608.673 1510.73 596.366 1525.17 596.366C1528.9 596.366 1532.51 597.194 1535.9 598.72C1543.67 580.086 1557.8 567.637 1573.93 567.637C1593.14 567.637 1609.49 585.26 1615.69 609.947C1620.08 606.41 1625.13 604.389 1630.5 604.389C1647.34 604.389 1660.98 624.124 1660.98 648.477C1660.98 649.912 1660.93 651.347 1660.83 652.752H1462.5" fill="white"/>
<g id="cloud-4">
<path id="path28" d="M143.969 1046.85C146.466 1031.12 156.195 1019.39 167.824 1019.39C169.959 1019.39 172.03 1019.79 174.004 1020.53C179.743 1002.77 192.199 990.472 206.643 990.472C210.377 990.472 213.979 991.29 217.366 992.816C225.142 974.193 239.268 961.733 255.407 961.733C274.609 961.733 290.963 979.367 297.159 1004.04C301.546 1000.51 306.596 998.485 311.974 998.485C328.805 998.485 342.448 1018.22 342.448 1042.57C342.448 1044.02 342.397 1045.44 342.303 1046.85H143.969" fill="white"/>
</g>
<path id="path30" d="M496.481 944.11L489.709 936.198C489.88 935.885 494.001 928.528 501.936 915.877L508.385 924.335C500.638 936.693 496.521 944.039 496.481 944.11" fill="white"/>
<path id="path32" d="M1032.26 581.784C1019.97 580.723 1007.5 580.278 995.233 580.45L995.157 567.849C1007.61 567.687 1020.29 568.132 1032.78 569.203L1032.26 581.784V581.784ZM921.433 588.756L920.169 576.297C932.574 573.67 945.153 571.628 957.565 570.234L958.243 582.784C946.026 584.169 933.643 586.18 921.433 588.756V588.756ZM1105.71 595.355C1093.58 591.909 1081.28 589.019 1069.14 586.776L1070.24 574.276C1082.58 576.56 1095.08 579.49 1107.39 582.997L1105.71 595.355V595.355ZM848.988 611.159L846.634 599.033C858.725 594.112 871.011 589.706 883.143 585.947L884.966 598.265C873.016 601.964 860.911 606.309 848.988 611.159ZM1177.33 622.73C1165.56 617.071 1153.61 611.907 1141.81 607.39L1144.04 595.214C1156.01 599.801 1168.13 605.036 1180.08 610.775L1177.33 622.73V622.73ZM778.96 646.396L775.628 634.765C787.251 627.782 799.069 621.264 810.761 615.373L813.625 627.267C802.093 633.077 790.429 639.514 778.96 646.396ZM1246.21 662.432C1234.93 654.843 1223.47 647.679 1212.16 641.151L1215.38 629.449C1226.85 636.068 1238.45 643.324 1249.88 651.014L1246.21 662.432V662.432ZM712.075 692.899L707.898 681.854C718.934 673.113 730.179 664.746 741.32 656.986L745.091 668.344C734.09 676.003 722.978 684.259 712.075 692.899ZM1311.78 712.685C1301.07 703.469 1290.18 694.617 1279.43 686.361L1283.5 675.225C1294.39 683.582 1305.39 692.545 1316.23 701.862L1311.78 712.685ZM648.766 749.093L643.862 738.685C654.235 728.459 664.844 718.515 675.398 709.138L679.952 719.879C669.517 729.146 659.026 738.978 648.766 749.093ZM1373.85 771.708C1363.72 761.158 1353.43 750.892 1343.26 741.211L1348.04 730.692C1358.32 740.463 1368.71 750.831 1378.94 761.492L1373.85 771.708ZM589.326 813.634L583.794 803.913C593.447 792.413 603.379 781.116 613.318 770.314L618.55 780.388C608.708 791.069 598.881 802.256 589.326 813.634ZM1432.43 837.906C1422.88 826.265 1413.17 814.857 1403.57 804.004L1408.93 794.07C1418.62 805.024 1428.41 816.534 1438.04 828.266L1432.43 837.906ZM534.091 885.632L527.973 876.669C536.731 864.149 545.937 851.598 555.325 839.371L561.15 848.729C551.86 860.834 542.759 873.243 534.091 885.632ZM1487.7 909.925C1478.68 897.405 1469.53 885.066 1460.47 873.254L1466.3 863.896C1475.42 875.8 1484.65 888.229 1493.73 900.84L1487.7 909.925Z" fill="white"/>
<path id="path34" d="M1526.97 966.897C1522.76 960.531 1518.48 954.124 1514.22 947.859L1520.43 939.037C1524.71 945.343 1529.03 951.79 1533.26 958.197L1526.97 966.897" fill="white"/>
<path id="path36" d="M1494.33 110.496C1494.32 110.486 1494.3 110.475 1494.28 110.455C1494.3 110.465 1494.32 110.486 1494.33 110.496ZM1493.96 110.152C1493.94 110.142 1493.92 110.112 1493.9 110.091C1493.92 110.112 1493.94 110.132 1493.96 110.152ZM1492.93 109.202C1492.89 109.162 1492.86 109.142 1492.83 109.111C1492.86 109.132 1492.9 109.172 1492.93 109.202ZM1492.57 108.869C1492.51 108.818 1492.47 108.778 1492.42 108.727C1492.46 108.778 1492.52 108.828 1492.57 108.869ZM1492.17 108.505C1492.12 108.454 1492.05 108.394 1492 108.343C1492.05 108.394 1492.12 108.454 1492.17 108.505ZM1491.77 108.131C1491.69 108.06 1491.59 107.969 1491.51 107.899C1491.6 107.98 1491.68 108.06 1491.77 108.131ZM1491.23 107.646C1491.14 107.555 1491.06 107.494 1490.97 107.404C1491.05 107.484 1491.14 107.565 1491.23 107.646ZM1490.79 107.232C1490.71 107.161 1490.62 107.09 1490.54 107.019C1490.62 107.09 1490.71 107.161 1490.79 107.232ZM1490.36 106.848C1490.29 106.777 1490.18 106.686 1490.1 106.615C1490.19 106.696 1490.28 106.777 1490.36 106.848ZM1489.94 106.464C1489.81 106.342 1489.67 106.221 1489.54 106.1C1489.67 106.221 1489.81 106.342 1489.94 106.464ZM1489.48 106.049C1489.37 105.948 1489.23 105.817 1489.11 105.716C1489.24 105.827 1489.36 105.938 1489.48 106.049ZM1488.97 105.585C1488.87 105.494 1488.78 105.413 1488.69 105.322C1488.78 105.413 1488.87 105.494 1488.97 105.585ZM1488.53 105.19C1488.43 105.1 1488.33 104.999 1488.23 104.918C1488.34 105.009 1488.43 105.1 1488.53 105.19ZM1488.11 104.807C1487.84 104.564 1487.53 104.281 1487.25 104.028C1487.54 104.291 1487.83 104.544 1488.11 104.807ZM1487.13 103.927C1487.02 103.816 1486.94 103.756 1486.83 103.645C1486.93 103.735 1487.03 103.836 1487.13 103.927ZM1486.68 103.523C1486.57 103.412 1486.49 103.351 1486.37 103.24C1486.48 103.341 1486.58 103.422 1486.68 103.523ZM1486.25 103.129C1485.98 102.886 1485.67 102.614 1485.4 102.361C1485.68 102.624 1485.96 102.876 1486.25 103.129ZM1485.27 102.26C1485.16 102.159 1485.07 102.078 1484.96 101.977C1485.06 102.068 1485.17 102.169 1485.27 102.26ZM1484.82 101.856C1484.73 101.765 1484.61 101.664 1484.51 101.583C1484.61 101.674 1484.71 101.765 1484.82 101.856ZM1484.38 101.472C1484.25 101.351 1484.09 101.209 1483.96 101.088C1484.1 101.209 1484.24 101.341 1484.38 101.472ZM1483.71 100.876C1483.66 100.815 1483.6 100.775 1483.55 100.724C1483.6 100.775 1483.66 100.825 1483.71 100.876ZM1483.46 100.653C1483.41 100.593 1483.37 100.562 1483.31 100.512C1483.36 100.562 1483.41 100.603 1483.46 100.653ZM1483.2 100.421C1483.16 100.381 1483.11 100.34 1483.07 100.3C1483.11 100.34 1483.16 100.381 1483.2 100.421ZM1482.91 100.158C1482.89 100.148 1482.86 100.118 1482.84 100.097C1482.86 100.118 1482.89 100.138 1482.91 100.158Z" fill="white"/>
<g id="cloud-1">
<path id="path40" d="M1437.5 284.292H1347.02C1340.35 283.817 1333.68 283.615 1326.98 283.615C1319.11 283.615 1311.23 283.888 1303.35 284.292H1127.99C1127.84 282.089 1127.76 279.866 1127.76 277.612C1127.76 239.618 1149.06 208.807 1175.32 208.807C1183.71 208.807 1191.59 211.97 1198.44 217.488C1205.88 187.86 1222.7 164.739 1243.7 155.655C1247.67 155.796 1251.65 155.887 1255.64 155.887C1264.07 155.887 1272.5 155.513 1280.86 154.594C1298.67 161.202 1313.7 177.775 1322.96 199.965C1328.25 197.581 1333.87 196.297 1339.7 196.297C1362.24 196.297 1381.67 215.497 1390.64 243.215C1393.72 242.053 1396.94 241.436 1400.27 241.436C1418.43 241.436 1433.61 259.747 1437.5 284.292" fill="white"/>
</g>
<path id="path42" d="M980.74 445.578C976.724 442.597 972.911 439.242 969.362 435.483C973.518 438.02 977.346 441.435 980.74 445.578Z" fill="white"/>
<path id="path46" d="M719.262 461.231C721.581 457.775 723.844 454.248 726.058 450.631C723.844 454.258 721.581 457.775 719.262 461.231ZM726.079 450.6C726.128 450.52 726.177 450.439 726.225 450.368C726.184 450.439 726.128 450.53 726.079 450.6ZM726.26 450.307C726.295 450.247 726.33 450.186 726.372 450.125C726.33 450.186 726.295 450.257 726.26 450.307ZM726.421 450.045C726.449 450.004 726.477 449.954 726.505 449.913C726.477 449.954 726.449 450.004 726.421 450.045ZM726.631 449.691C726.645 449.681 726.652 449.661 726.665 449.64C726.658 449.661 726.645 449.681 726.631 449.691ZM726.763 449.489C726.763 449.479 726.77 449.469 726.77 449.469L726.763 449.489ZM729.32 445.184C729.334 445.154 729.348 445.134 729.362 445.113C729.355 445.124 729.334 445.164 729.32 445.184ZM729.494 444.881C729.515 444.841 729.543 444.8 729.564 444.76C729.536 444.81 729.522 444.841 729.494 444.881ZM729.62 444.669C729.669 444.588 729.711 444.517 729.753 444.436C729.711 444.517 729.669 444.588 729.62 444.669ZM729.948 444.093C729.969 444.063 729.99 444.032 730.011 443.992C729.983 444.042 729.976 444.052 729.948 444.093ZM730.172 443.719C730.186 443.699 730.2 443.668 730.214 443.648C730.2 443.668 730.179 443.699 730.172 443.719ZM730.416 443.305C730.423 443.284 730.43 443.264 730.444 443.254C730.437 443.264 730.423 443.284 730.416 443.305ZM730.64 442.911C730.647 442.9 730.647 442.89 730.654 442.89L730.64 442.911ZM731.073 442.163C731.087 442.143 731.101 442.112 731.115 442.092C731.101 442.122 731.094 442.132 731.073 442.163ZM732.211 440.212C732.218 440.192 732.232 440.182 732.239 440.162C732.232 440.182 732.218 440.192 732.211 440.212Z" fill="white"/>
<path id="path52" d="M589.326 813.634L583.794 803.913C593.447 792.413 603.379 781.116 613.318 770.314L618.55 780.388C608.708 791.069 598.881 802.256 589.326 813.634ZM648.765 749.093L643.862 738.685C654.234 728.459 664.844 718.515 675.398 709.138L679.952 719.879C669.517 729.146 659.026 738.978 648.765 749.093ZM712.074 692.899L707.898 681.854C718.933 673.113 730.179 664.746 741.319 656.986L745.091 668.344C734.09 676.003 722.978 684.259 712.074 692.899ZM778.96 646.396L775.628 634.765C787.25 627.782 799.069 621.264 810.761 615.373L813.625 627.267C802.093 633.077 790.429 639.514 778.96 646.396Z" fill="white"/>
<path id="path54" d="M1034.31 1131.83H1115.54V1116.12H1034.31V1131.83Z" fill="#4A8FE6"/>
<path id="path56" d="M431.46 1307.56H464.053V1246.48H431.46V1307.56Z" fill="#407EDE"/>
<path id="path58" d="M431.46 1504.02H464.053V1442.93H431.46V1504.02Z" fill="#407EDE"/>
<path id="path60" d="M481.543 1307.56H514.136V1246.48H481.543V1307.56Z" fill="#407EDE"/>
<path id="path62" d="M531.626 1307.56H564.216V1246.48H531.626V1307.56Z" fill="#407EDE"/>
<path id="path64" d="M531.626 1636.95H564.216V1575.88H531.626V1636.95Z" fill="#407EDE"/>
<path id="path66" d="M481.543 1405.02H514.136V1343.94H481.543V1405.02Z" fill="#407EDE"/>
<path id="path68" d="M481.543 1741.28H514.136V1680.2H481.543V1741.28Z" fill="#407EDE"/>
<path id="path70" d="M481.543 1504.02H514.136V1442.93H481.543V1504.02Z" fill="#407EDE"/>
<path id="path72" d="M574.672 1504.02H607.262V1442.93H574.672V1504.02Z" fill="#407EDE"/>
<path id="path74" d="M574.672 1741.28H607.262V1680.2H574.672V1741.28Z" fill="#407EDE"/>
<path id="path76" d="M615.651 1307.56H648.242V1246.48H615.651V1307.56Z" fill="#407EDE"/>
<path id="path78" d="M879.931 1038.14H898.035V1004.22H879.931V1038.14Z" fill="#407EDE"/>
<path id="path80" d="M917.592 1038.14H935.703V1004.22H917.592V1038.14Z" fill="#407EDE"/>
<path id="path82" d="M879.931 1098.02H898.035V1064.09H879.931V1098.02Z" fill="#407EDE"/>
<path id="path84" d="M955.26 1098.02H973.364V1064.09H955.26V1098.02Z" fill="#407EDE"/>
<path id="path86" d="M917.592 1157.9H935.703V1123.97H917.592V1157.9Z" fill="#407EDE"/>
<path id="path88" d="M955.26 1157.9H973.364V1123.97H955.26V1157.9Z" fill="#407EDE"/>
<path id="path90" d="M879.931 1217.78H898.035V1183.85H879.931V1217.78Z" fill="#407EDE"/>
<path id="path92" d="M955.26 1217.78H973.364V1183.85H955.26V1217.78Z" fill="#407EDE"/>
<path id="path94" d="M879.931 1277.67H898.035V1243.73H879.931V1277.67Z" fill="#407EDE"/>
<path id="path96" d="M917.592 1277.67H935.703V1243.73H917.592V1277.67Z" fill="#407EDE"/>
<path id="path98" d="M955.26 1337.55H973.364V1303.62H955.26V1337.55Z" fill="#407EDE"/>
<path id="path100" d="M879.931 1457.31H898.035V1423.38H879.931V1457.31Z" fill="#407EDE"/>
<path id="path102" d="M1173.29 1357.2H1191.39V1323.28H1173.29V1357.2Z" fill="#407EDE"/>
<path id="path104" d="M1273.87 1357.2H1291.97V1323.28H1273.87V1357.2Z" fill="#407EDE"/>
<path id="path106" d="M1222.24 1265.05H1240.34V1231.11H1222.24V1265.05Z" fill="#407EDE"/>
<path id="path108" d="M1513.25 1316.24H1531.36V1282.32H1513.25V1316.24Z" fill="#407EDE"/>
<path id="path110" d="M1573.8 1316.24H1591.91V1282.32H1573.8V1316.24Z" fill="#407EDE"/>
<path id="path112" d="M1573.8 1376.73H1591.91V1342.79H1573.8V1376.73Z" fill="#407EDE"/>
<path id="path114" d="M1513.25 1437.21H1531.36V1403.27H1513.25V1437.21Z" fill="#407EDE"/>
<path id="path116" d="M1573.8 1437.21H1591.91V1403.27H1573.8V1437.21Z" fill="#407EDE"/>
<path id="path118" d="M1513.25 1497.68H1531.36V1463.75H1513.25V1497.68Z" fill="#407EDE"/>
<path id="path120" d="M1543.52 1558.16H1561.63V1524.24H1543.52V1558.16Z" fill="#407EDE"/>
<path id="path122" d="M1573.8 1558.16H1591.91V1524.24H1573.8V1558.16Z" fill="#407EDE"/>
<path id="path124" d="M1573.8 1618.64H1591.91V1584.72H1573.8V1618.64Z" fill="#407EDE"/>
<path id="path126" d="M1513.25 1679.13H1531.36V1645.2H1513.25V1679.13Z" fill="#407EDE"/>
<path id="path128" d="M1543.52 1679.13H1561.63V1645.2H1543.52V1679.13Z" fill="#407EDE"/>
<path id="path130" d="M1261.13 1265.05H1279.24V1231.11H1261.13V1265.05Z" fill="#407EDE"/>
<path id="path132" d="M1206.81 1425.47H1224.92V1391.54H1206.81V1425.47Z" fill="#407EDE"/>
<path id="path134" d="M1173.59 1493.73H1173.29V1491.23C1173.39 1492.07 1173.5 1492.9 1173.59 1493.73Z" fill="#407EDE"/>
<path id="path136" d="M1240.34 1493.73H1258.44V1459.81H1240.34V1493.73Z" fill="#407EDE"/>
<path id="path138" d="M1273.87 1493.73H1291.97V1459.81H1273.87V1493.73Z" fill="#407EDE"/>
<path id="path140" d="M1224.92 1536.35C1224.2 1533.62 1223.49 1530.86 1222.81 1528.07H1224.92V1536.35Z" fill="#407EDE"/>
<path id="path142" d="M1186.76 1630.26H1173.29V1596.34H1184.01C1185.01 1608.07 1185.93 1619.44 1186.76 1630.26" fill="#407EDE"/>
<path id="path144" d="M1258.44 1607.72C1255.03 1604.76 1251.81 1600.91 1248.76 1596.34H1258.44V1607.72Z" fill="#407EDE"/>
<path id="path146" d="M1273.87 1630.26H1291.97V1596.34H1273.87V1630.26Z" fill="#407EDE"/>
<path id="path148" d="M1178.99 1764.21H1173.29V1732.87H1191.31L1178.99 1764.21Z" fill="#407EDE"/>
<path id="path150" d="M615.651 1636.95H648.242V1575.88H615.651V1636.95Z" fill="#407EDE"/>
<path id="path152" d="M720.47 1278.14H820.427V1262.42H720.47V1278.14Z" fill="#4284E2"/>
<path id="path154" d="M1034.31 1233.62H1115.54V1217.9H1034.31V1233.62Z" fill="#4284E2"/>
<path id="path156" d="M1034.31 1267.55H1115.54V1251.83H1034.31V1267.55Z" fill="#4284E2"/>
<path id="path158" d="M1034.31 1369.33H1115.54V1353.62H1034.31V1369.33Z" fill="#4284E2"/>
<path id="path160" d="M1359.8 1338.99H1441.03V1323.28H1359.8V1338.99Z" fill="#4284E2"/>
<path id="path162" d="M1359.8 1372.93H1441.03V1357.2H1359.8V1372.93Z" fill="#4284E2"/>
<path id="path164" d="M1359.8 1440.78H1441.03V1425.06H1359.8V1440.78Z" fill="#4284E2"/>
<path id="path166" d="M1359.8 1542.57H1441.03V1526.85H1359.8V1542.57Z" fill="#4284E2"/>
<path id="path168" d="M1359.8 1610.43H1441.03V1594.7H1359.8V1610.43Z" fill="#4284E2"/>
<path id="path170" d="M1359.8 1678.28H1441.03V1662.56H1359.8V1678.28Z" fill="#4284E2"/>
<path id="path172" d="M1441.03 1746.14H1388.97C1386.69 1740.66 1384.18 1735.42 1381.45 1730.42H1441.03V1746.14Z" fill="#4284E2"/>
<path id="path174" d="M1034.31 1471.12H1115.54V1455.39H1034.31V1471.12Z" fill="#4284E2"/>
<path id="path176" d="M1034.31 1538.97H1115.54V1523.26H1034.31V1538.97Z" fill="#4284E2"/>
<path id="path178" d="M720.47 1323.28H820.427V1307.56H720.47V1323.28Z" fill="#4284E2"/>
<path id="path180" d="M720.47 1368.41H820.427V1352.7H720.47V1368.41Z" fill="#4284E2"/>
<path id="path182" d="M720.47 1458.69H820.427V1442.97H720.47V1458.69Z" fill="#4284E2"/>
<path id="path184" d="M720.47 1548.96H820.427V1533.23H720.47V1548.96Z" fill="#4284E2"/>
<path id="path186" d="M720.47 1587.79V1578.37H732.749C732.735 1578.38 732.714 1578.38 732.7 1578.39C728.16 1580.19 724.095 1583.49 720.47 1587.79" fill="#4284E2"/>
<path id="path188" d="M777.73 1684.36H720.47V1671.23L820.427 1673.45V1674.28C818.716 1674.16 817.005 1674.1 815.273 1674.1C802.023 1674.1 789.36 1677.74 777.73 1684.36" fill="#4284E2"/>
<path id="path190" d="M720.47 1765.98V1758.92H722.635C721.874 1761.23 721.147 1763.6 720.47 1765.98Z" fill="#4284E2"/>
<path id="path192" d="M1034.31 1165.76H1115.54V1150.04H1034.31V1165.76Z" fill="#4A8FE6"/>
<path id="path194" d="M467.468 1022.78C467.552 1013.06 473.068 1005.28 479.785 1005.4C486.503 1005.52 491.881 1013.5 491.796 1023.21C491.711 1032.93 486.197 1040.71 479.479 1040.59C472.761 1040.47 467.383 1032.49 467.468 1022.78ZM455.466 1036.75L478.926 1104.12L503.551 1037.63C510.841 1013.24 499.139 985.42 480.787 984.308C480.515 984.298 480.243 984.288 479.969 984.278C479.696 984.278 479.423 984.278 479.151 984.278C460.786 984.712 448.603 1012.11 455.466 1036.75" fill="#FF5B7E"/>
<path id="path200" d="M472.973 1763.71C496.285 1764.34 519.272 1755.09 538.799 1736.67C554.5 1721.85 569.217 1700.04 571.934 1669.26C578.15 1598.91 550.135 1601.23 543.269 1572.54C536.396 1543.85 556.777 1531.01 547.977 1478.75C543.255 1450.68 528.301 1438.52 504.984 1393.41C481.665 1348.29 453.42 1325.17 432.807 1342C412.195 1358.82 413.022 1395 397.695 1407.05C382.368 1419.11 358.814 1461.15 367.799 1541.13C376.784 1621.09 316.004 1591.27 339.788 1683.78C357.225 1751.61 433.507 1762.65 472.973 1763.71" fill="#7F00FF"/>
<path id="path202" d="M445.223 1703.23C447.39 1747.66 450.563 1924.61 445.956 1939.99C439.086 1962.93 475.124 1934.35 475.124 1934.35C475.124 1934.35 465.548 1828.7 459.998 1777.11C457.529 1754.14 453 1685.04 452.958 1679.03C453.147 1678.48 453.34 1677.94 453.541 1677.39C454.19 1675.61 454.904 1673.87 455.649 1672.14C457.147 1668.69 458.798 1665.34 460.58 1662.11C464.147 1655.67 468.226 1649.74 472.668 1644.38C481.03 1633.98 492.535 1625.08 503.062 1619.48C489.872 1624.3 478.213 1632.3 470.447 1640.06C465.446 1644.91 460.718 1650.46 456.423 1656.75C455.338 1658.33 454.282 1659.96 453.256 1661.65C453.633 1653.92 454.36 1647.78 455.496 1643.82C456.803 1639.25 460.598 1631.5 465.255 1620.55C470.179 1612.72 476.453 1604.34 483.189 1597.16C490.516 1589.38 498.328 1583 507.114 1579.46C497.903 1581.28 489.341 1586.22 481.2 1592.61C478.633 1594.64 476.116 1596.79 473.592 1599.14C484.229 1568.83 494.682 1524.45 490.378 1465.47C490.378 1465.47 489.17 1505.12 482.414 1541.33C481.302 1535.45 479.764 1529.83 477.992 1524.42C473.492 1511.42 470.522 1505.72 464.304 1494.59C469.482 1506.58 471.931 1512.65 475.24 1526.06C481.599 1553.63 477.813 1563.42 473.994 1573.86C463.44 1602.7 450.671 1623.45 445.235 1640.35C443.197 1634.86 441.124 1629.41 439.016 1623.99C434.508 1612.43 429.876 1600.98 425.051 1589.7C424.269 1587.87 423.481 1586.04 422.69 1584.22C421.956 1581.09 421.873 1580.9 421.141 1576.48C420.826 1574.5 420.529 1572.51 420.274 1570.5C419.758 1566.49 419.327 1562.45 419.022 1558.36C418.725 1554.29 418.482 1550.19 418.394 1546.08C418.236 1541.75 418.324 1536.94 418.367 1533.71C418.099 1536.83 417.657 1541.7 417.502 1546.07C417.293 1550.2 417.238 1554.35 417.242 1558.52C417.253 1562.68 417.391 1566.85 417.623 1571.02C417.659 1571.71 417.708 1572.4 417.754 1573.09L417.675 1572.91C415.158 1567.37 412.602 1561.86 409.943 1556.46C407.288 1551.06 404.559 1545.72 401.702 1540.55C398.845 1535.37 395.846 1530.34 392.603 1525.69C395.621 1530.65 398.362 1535.93 400.958 1541.35C403.552 1546.77 406.01 1552.32 408.391 1557.94C410.777 1563.56 413.056 1569.27 415.293 1575.01C417.532 1580.75 419.699 1586.54 421.826 1592.37C422.099 1593.12 422.368 1593.86 422.641 1594.61C417.81 1592.74 413.06 1591.41 408.12 1590.3C400.053 1588.63 397.055 1588.31 389.299 1587.62C396.974 1589.36 399.899 1590.08 407.768 1592.83C415.804 1595.78 421.574 1598.75 424.875 1600.84C428.036 1609.73 431.091 1618.69 434.069 1627.71C436.027 1633.65 437.947 1639.62 439.815 1645.61C440.563 1648.03 441.662 1650.28 442.039 1652.87C443.412 1662.26 445.223 1703.23 445.223 1703.23" fill="#07085B"/>
<path id="path204" d="M1536.53 1064.52C1536.64 1054.8 1542.18 1047.06 1548.9 1047.22C1555.61 1047.39 1560.97 1055.41 1560.86 1065.12C1560.74 1074.84 1555.2 1082.58 1548.49 1082.42C1541.77 1082.26 1536.41 1074.24 1536.53 1064.52ZM1524.48 1078.43L1547.74 1145.95L1572.57 1079.61C1579.93 1055.27 1568.31 1027.37 1549.96 1026.14C1549.69 1026.13 1549.42 1026.11 1549.15 1026.11C1548.87 1026.1 1548.6 1026.1 1548.33 1026.1C1529.97 1026.43 1517.69 1053.74 1524.48 1078.43Z" fill="#07085B"/>
<path id="path206" d="M283.852 1908.02C283.852 1908.02 285.869 1859.52 315.05 1864.01C315.05 1864.01 354.785 1772.39 396.382 1901.73C396.382 1901.73 433.942 1872.37 447.757 1936.23C447.757 1936.23 470.885 1873.89 503.791 1894.55C536.697 1915.2 547.921 1971.93 547.921 1971.93L305.058 1979.42L283.852 1908.02Z" fill="#70C0FD"/>
<path id="path210" d="M969.313 982.529C972.862 997.04 980.14 1016.26 994.696 1025.95C1000.84 1010.2 1008.22 991.493 1008.91 990.826V962.511L985.497 943.504L969.313 982.529Z" fill="#F99893"/>
<path id="path212" d="M708.044 1552.45C708.044 1552.45 699.907 1544.15 692.126 1570.73C684.352 1597.33 694.801 1607.9 694.801 1607.9C694.801 1607.9 708.177 1593.58 708.044 1590.85C707.918 1588.12 707.436 1553.79 707.436 1553.79L708.044 1552.45Z" fill="white"/>
<path id="path214" d="M721.427 1542.86C721.427 1542.86 714.84 1536.99 707.437 1553.79C704.706 1559.97 701.863 1569.24 699.195 1583.01C689.297 1634.15 699.195 1634.15 699.195 1634.15L715.811 1623.93C715.811 1623.93 731.715 1565.29 730.772 1560.51C729.829 1555.74 721.427 1542.86 721.427 1542.86" fill="#FAA842"/>
<path id="path216" d="M861.183 1411.18H584.814C582.655 1411.18 580.902 1413.72 580.902 1416.84V1421.2C580.902 1424.33 582.655 1426.87 584.814 1426.87H861.183C863.342 1426.87 865.095 1424.33 865.095 1421.2V1416.84C865.095 1413.72 863.342 1411.18 861.183 1411.18" fill="#283F56"/>
<path id="path218" d="M811.725 1492.16H792.636V1419.03H811.725V1492.16Z" fill="#283F56"/>
<path id="path220" d="M658.502 1472.21H652.111C647.536 1472.21 643.82 1466.83 643.82 1460.2V1404.71H666.793V1460.2C666.793 1466.83 663.084 1472.21 658.502 1472.21" fill="#283F56"/>
<path id="path222" d="M663.615 1455.59C666.36 1460.12 733.252 1551.22 733.252 1551.22L727.594 1562.48L656.896 1461.6L663.615 1455.59" fill="#283F56"/>
<path id="path224" d="M1271.15 1623.57H1274.89C1282.7 1623.57 1289.04 1632.74 1289.04 1644.04V1670.29H1271.6C1271.6 1670.29 1263.82 1650.86 1260.99 1654.95C1258.16 1659.04 1271.15 1623.57 1271.15 1623.57Z" fill="#FFE5B6"/>
<g id="left-wheel">
<path id="path226" d="M917.738 1822.34C917.738 1904.22 871.863 1970.59 815.273 1970.59C758.683 1970.59 712.808 1904.22 712.808 1822.34C712.808 1740.47 758.683 1674.1 815.273 1674.1C871.863 1674.1 917.738 1740.47 917.738 1822.34Z" fill="#1A1A1A"/>
</g>
<path id="path228" d="M861.462 1822.34C861.462 1859.24 840.781 1889.16 815.273 1889.16C789.765 1889.16 769.083 1859.24 769.083 1822.34C769.083 1785.43 789.765 1755.52 815.273 1755.52C840.781 1755.52 861.462 1785.43 861.462 1822.34" fill="#9E9DA2"/>
<g id="right-wheel">
<path id="path230" d="M1403.52 1822.34C1403.52 1904.22 1357.65 1970.59 1301.06 1970.59C1244.46 1970.59 1198.58 1904.22 1198.58 1822.34C1198.58 1740.47 1244.46 1674.1 1301.06 1674.1C1357.65 1674.1 1403.52 1740.47 1403.52 1822.34Z" fill="#1A1A1A"/>
</g>
<path id="path232" d="M1347.24 1822.34C1347.24 1859.24 1326.57 1889.16 1301.06 1889.16C1275.55 1889.16 1254.87 1859.24 1254.87 1822.34C1254.87 1785.43 1275.55 1755.52 1301.06 1755.52C1326.57 1755.52 1347.24 1785.43 1347.24 1822.34" fill="#9E9DA2"/>
<path id="path234" d="M937.624 1800.5H695.549C683.773 1800.5 674.231 1786.7 674.231 1769.67V1737.95C674.231 1720.91 683.773 1707.11 695.549 1707.11H937.624V1800.5Z" fill="#283F56"/>
<path id="path236" d="M983.974 1532.32H782.375C774.699 1532.32 768.482 1523.32 768.482 1512.22V1496.74C768.482 1485.64 774.699 1476.65 782.375 1476.65H983.974C991.65 1476.65 997.866 1485.64 997.866 1496.74V1512.22C997.866 1523.32 991.65 1532.32 983.974 1532.32Z" fill="#FAA842"/>
<path id="path238" d="M989.841 1527.1C989.841 1527.1 971.493 1541.76 956.65 1603.13C941.801 1664.49 944.986 1757.06 1037.24 1764.21H1178.99L1193.12 1728.25C1193.12 1728.25 1181.11 1483.46 1153.53 1375.04H1200.19C1200.19 1375.04 1214.28 1583.42 1263.76 1611.54C1268.52 1614.24 1271.6 1620.98 1271.6 1628.37V1669.61L1196.66 1809.73H949.931C949.931 1809.73 891.958 1817.12 877.821 1674.72L710.545 1671.02C701.374 1670.8 694.879 1657.94 697.568 1645.26C702.792 1620.68 713.416 1586.01 732.701 1578.39C763.294 1566.31 989.841 1527.1 989.841 1527.1Z" fill="#333333"/>
<path id="path240" d="M719.59 1586.35C719.814 1586.9 720.051 1587.46 720.296 1588.01H960.631L963.083 1579.83C976.312 1537.91 989.841 1527.1 989.841 1527.1H743.338C722.321 1527.1 708.848 1560.2 719.59 1586.35Z" fill="#283F56"/>
<path id="path242" d="M705.027 1707.11H884.596C903.895 1707.11 917.438 1679.57 911.103 1653.21C901.534 1613.4 879.302 1570.57 824.563 1563.24C753.864 1553.77 711.111 1635.5 694.194 1680.87C689.773 1692.72 695.717 1707.11 705.027 1707.11" fill="#FAA842"/>
<path id="path244" d="M1196.66 1809.73L1251.8 1680.86C1251.8 1680.86 1280.08 1649.15 1335.93 1665.52C1370.62 1675.68 1391.12 1709.17 1401.69 1733.08C1406.58 1744.18 1401.12 1758.71 1392.03 1758.71H1307.11C1281.07 1758.71 1256.45 1775.75 1240.11 1805.08L1237.93 1808.99C1226.14 1830.15 1208.36 1842.46 1189.57 1842.46C1176.87 1842.46 1164.65 1835.44 1155.39 1822.85L1145.76 1809.73H1196.66" fill="#FAA842"/>
<path id="path246" d="M1204.01 1246.74C1204.01 1235.9 1197.17 1227.76 1189.82 1229.85C1158.55 1238.75 1125.72 1275 1125.72 1318.38C1125.72 1361.75 1158.55 1398 1189.82 1406.9C1197.17 1408.99 1204.01 1400.85 1204.01 1390.01V1246.74Z" fill="#FAA842"/>
<path id="path248" d="M1204.01 1247.12V1389.63C1224.9 1380.03 1240.02 1351.77 1240.02 1318.38C1240.02 1284.98 1224.9 1256.72 1204.01 1247.12Z" fill="white"/>
<path id="path250" d="M844.832 1411.18H601.165V1198.62H844.832V1411.18Z" fill="#FAA842"/>
<path id="path252" d="M850.015 1171.85H595.982V1198.62H850.015V1171.85Z" fill="#F88900"/>
<path id="path254" d="M660.346 1454.31C660.346 1458.34 658.09 1461.6 655.311 1461.6C652.524 1461.6 650.268 1458.34 650.268 1454.31C650.268 1450.28 652.524 1447.03 655.311 1447.03C658.09 1447.03 660.346 1450.28 660.346 1454.31Z" fill="#282828"/>
<path id="path256" d="M870.871 1627.84H754.828C753.487 1627.84 752.404 1626.27 752.404 1624.33V1621.63C752.404 1619.69 753.487 1618.13 754.828 1618.13H870.871C872.205 1618.13 873.295 1619.69 873.295 1621.63V1624.33C873.295 1626.27 872.205 1627.84 870.871 1627.84Z" fill="#333333"/>
<path id="path258" d="M870.871 1652.42H754.828C753.487 1652.42 752.404 1650.85 752.404 1648.92V1646.21C752.404 1644.28 753.487 1642.7 754.828 1642.7H870.871C872.205 1642.7 873.295 1644.28 873.295 1646.21V1648.92C873.295 1650.85 872.205 1652.42 870.871 1652.42Z" fill="#333333"/>
<path id="path260" d="M1081.09 1635.49L1072.23 1773.13L1064.62 1792.96L1050.94 1778.64L1051.22 1631.96L1081.09 1635.49" fill="#FFC0BB"/>
<path id="path264" d="M1162.95 1802.32L1103.89 1802.61C1103.43 1802.61 1103.05 1802.08 1103.05 1801.41L1103.03 1794.98C1103.03 1794.32 1103.4 1793.77 1103.87 1793.76L1162.93 1793.48C1163.39 1793.48 1163.77 1794.01 1163.77 1794.68L1163.78 1801.11C1163.79 1801.77 1163.41 1802.32 1162.95 1802.32Z" fill="#DAEEF7"/>
<path id="path268" d="M1129.72 1776.3C1129.33 1775.97 1129.19 1775.02 1129.42 1774.3C1130.46 1770.92 1133.72 1762.71 1140.41 1764.36C1140.79 1764.46 1141.06 1765.19 1141 1765.96L1140.99 1765.98C1140.93 1766.73 1140.58 1767.22 1140.21 1767.12C1134.21 1765.67 1131.44 1772.91 1130.6 1775.74C1130.41 1776.35 1130.04 1776.58 1129.72 1776.3" fill="#DAEEF7"/>
<path id="path270" d="M1135.29 1779.44C1134.9 1779.1 1134.76 1778.16 1134.98 1777.44C1136.02 1774.07 1139.29 1765.84 1145.98 1767.5C1146.36 1767.59 1146.63 1768.34 1146.56 1769.1L1146.56 1769.13C1146.49 1769.86 1146.15 1770.35 1145.77 1770.27C1139.78 1768.81 1137.01 1776.06 1136.16 1778.89C1135.98 1779.49 1135.61 1779.73 1135.29 1779.44" fill="#DAEEF7"/>
<path id="path272" d="M1140.47 1782.37C1140.07 1782.03 1139.93 1781.09 1140.16 1780.37C1141.2 1777 1144.46 1768.77 1151.15 1770.43C1151.54 1770.52 1151.8 1771.27 1151.74 1772.03L1151.73 1772.06C1151.68 1772.79 1151.33 1773.28 1150.95 1773.19C1144.96 1771.74 1142.18 1778.99 1141.34 1781.82C1141.16 1782.41 1140.79 1782.66 1140.47 1782.37" fill="#DAEEF7"/>
<g id="g274">
<g id="g276">
<path id="path282" d="M1104.52 1782.36H1105.05V1775.67H1104.52V1782.36Z" fill="#312B28"/>
</g>
</g>
<path id="path284" d="M1106.57 1797.27L1106.56 1794.68C1106.56 1794.17 1106.33 1793.72 1106.02 1793.56C1106.04 1793.5 1106.05 1793.44 1106.07 1793.38C1106.81 1790.95 1106.95 1787.31 1104.55 1782.42C1104.54 1782.4 1104.53 1782.38 1104.52 1782.36L1105.05 1775.67C1105.35 1775.63 1105.67 1775.61 1106 1775.61C1110.1 1775.61 1116.61 1778.84 1120.56 1797.2L1106.57 1797.27Z" fill="#F84D64"/>
<path id="path286" d="M870.871 1677H754.828C753.487 1677 752.404 1675.43 752.404 1673.49V1670.79C752.404 1668.85 753.487 1667.29 754.828 1667.29H870.871C872.205 1667.29 873.295 1668.85 873.295 1670.79V1673.49C873.295 1675.43 872.205 1677 870.871 1677Z" fill="#333333"/>
<path id="path300" d="M805.103 1171.85H759.807L674.888 1411.18C682.298 1411.18 705.362 1411.18 720.183 1411.18L805.103 1171.85Z" fill="#333333"/>
<path id="path302" d="M732.791 1258.07C730.863 1256.64 728.488 1257.74 727.496 1260.54L718.563 1285.71C717.571 1288.5 718.34 1291.94 720.267 1293.37L750.665 1315.95C752.592 1317.38 754.967 1316.27 755.959 1313.48L764.892 1288.31C765.884 1285.52 765.116 1282.08 763.188 1280.65L732.791 1258.07ZM748.122 1323.11L717.725 1300.53C713.066 1297.07 711.222 1288.77 713.611 1282.03L722.544 1256.85C724.933 1250.11 730.674 1247.44 735.333 1250.91L765.731 1273.48C770.389 1276.94 772.24 1285.25 769.845 1291.99L760.911 1317.16C758.522 1323.9 752.781 1326.57 748.122 1323.11" fill="#FFE5B6"/>
<path id="path304" d="M978.575 920.171C982.326 931.974 979.28 945.212 971.772 949.739C964.263 954.276 955.141 948.385 951.391 936.582C947.64 924.779 950.685 911.552 958.194 907.015C965.695 902.477 974.824 908.369 978.575 920.171Z" fill="#FFC0BB"/>
<path id="path306" d="M1105.74 1802.32L1046.68 1802.61C1046.22 1802.61 1045.84 1802.08 1045.84 1801.41L1045.83 1794.98C1045.82 1794.32 1046.2 1793.77 1046.66 1793.76L1105.72 1793.48C1106.18 1793.48 1106.56 1794.01 1106.56 1794.68L1106.58 1801.11C1106.58 1801.77 1106.21 1802.32 1105.74 1802.32Z" fill="#DAEEF7"/>
<path id="path310" d="M1072.51 1776.3C1072.13 1775.97 1071.98 1775.02 1072.2 1774.3C1073.25 1770.92 1076.51 1762.71 1083.2 1764.36C1083.59 1764.46 1083.85 1765.19 1083.78 1765.96V1765.98C1083.72 1766.73 1083.38 1767.22 1083 1767.12C1077.01 1765.67 1074.24 1772.91 1073.39 1775.74C1073.21 1776.35 1072.84 1776.58 1072.51 1776.3Z" fill="#DAEEF7"/>
<path id="path312" d="M1078.08 1779.44C1077.69 1779.1 1077.55 1778.16 1077.77 1777.44C1078.81 1774.07 1082.08 1765.84 1088.77 1767.5C1089.16 1767.59 1089.41 1768.34 1089.35 1769.1V1769.13C1089.29 1769.86 1088.94 1770.35 1088.57 1770.27C1082.58 1768.81 1079.8 1776.06 1078.96 1778.89C1078.78 1779.49 1078.4 1779.73 1078.08 1779.44" fill="#DAEEF7"/>
<path id="path314" d="M1083.25 1782.37C1082.87 1782.03 1082.72 1781.09 1082.95 1780.37C1083.99 1777 1087.26 1768.77 1093.94 1770.43C1094.33 1770.52 1094.6 1771.27 1094.53 1772.03V1772.06C1094.46 1772.79 1094.12 1773.28 1093.75 1773.19C1087.75 1771.74 1084.98 1778.99 1084.13 1781.82C1083.95 1782.41 1083.58 1782.66 1083.25 1782.37" fill="#DAEEF7"/>
<path id="path316" d="M1046.56 1792.27C1046.56 1792.01 1046.57 1791.76 1046.59 1791.5C1046.57 1791.76 1046.56 1792.01 1046.56 1792.27Z" fill="#312B28"/>
<path id="path318" d="M1049.06 1797.27C1047.65 1797.27 1046.55 1794.97 1046.56 1792.27C1046.56 1792.01 1046.57 1791.76 1046.59 1791.5L1047.85 1775.67C1048.14 1775.63 1048.46 1775.61 1048.79 1775.61C1052.88 1775.61 1059.41 1778.84 1063.35 1797.2L1049.06 1797.27C1049.06 1797.27 1049.06 1797.27 1049.06 1797.27" fill="#F84D64"/>
<path id="path320" d="M1210.05 1845.92H911.327C904.279 1845.92 898.559 1837.66 898.559 1827.45V1813.22C898.559 1803.03 904.279 1794.75 911.327 1794.75H1210.05C1217.1 1794.75 1222.82 1803.03 1222.82 1813.22V1827.45C1222.82 1837.66 1217.1 1845.92 1210.05 1845.92" fill="#283F56"/>
<path id="path322" d="M760.534 1971.93H562.581C562.581 1971.93 561.569 1971.49 559.864 1970.67H759.416C759.787 1971.09 760.157 1971.52 760.534 1971.93Z" fill="#F4FCFF"/>
<path id="path328" d="M1020.28 1971.11C1020.13 1970.97 1019.97 1970.82 1019.81 1970.67H1062.52L1020.28 1971.11Z" fill="#F4FCFF"/>
<path id="path332" d="M1424.36 1971.27H1198.58C1198.58 1971.27 1198.47 1971.05 1198.26 1970.67H1424.02C1424.25 1971.06 1424.36 1971.27 1424.36 1971.27" fill="#F4FCFF"/>
<path id="path334" d="M1424.02 1970.67H1198.26C1196.25 1966.89 1186.17 1946.16 1206.62 1946.16C1210.7 1946.16 1216 1946.98 1222.81 1948.93C1222.81 1948.93 1209.93 1924.93 1221.33 1915.47C1240.11 1949.09 1268.84 1970.59 1301.06 1970.59C1333.44 1970.59 1362.32 1948.84 1381.09 1914.91C1406.89 1942.34 1421.63 1966.63 1424.02 1970.67Z" fill="#4E92E7" fill-opacity="0.9"/>
<path id="path340" d="M892.433 1971.11H832.763C832.763 1971.11 832.714 1970.96 832.63 1970.67H892.083C892.202 1970.82 892.314 1970.96 892.433 1971.11" fill="#F4FCFF"/>
<g id="smoke">
<path id="path324" d="M759.417 1970.67H559.865C556.805 1969.22 551.504 1966.61 545.839 1963.43C543.891 1956.3 540.489 1945.53 535.271 1934.31C540.775 1933.32 548.284 1932.76 558.237 1932.76C559.641 1932.76 561.08 1932.77 562.582 1932.79C562.582 1932.79 520.062 1887.07 568.526 1887.07C574.295 1887.07 581.349 1887.72 589.92 1889.16C670.516 1902.79 678.052 1937.57 678.052 1937.57C678.052 1937.57 682.411 1926.42 695.982 1926.42C708.303 1926.42 728.23 1935.61 759.417 1970.67" fill="#DCE9FA"/>
<path id="path326" d="M545.839 1963.43C528.873 1953.88 508.629 1939.09 535.271 1934.31C540.489 1945.53 543.89 1956.3 545.839 1963.43" fill="#E2F2FF"/>
<path id="path330" d="M1062.52 1970.67H1019.81C983.087 1935.92 993.99 1927.05 1014.73 1927.05C1036.4 1927.05 1068.8 1936.74 1068.8 1936.74C1070.57 1932.16 1074.28 1930.28 1079.18 1930.28C1101.63 1930.28 1149.02 1969.76 1149.02 1969.76L1062.52 1970.67" fill="#DCE9FA"/>
<path id="path342" d="M892.084 1970.67H832.63C832.511 1970.24 832.316 1969.51 832.113 1968.59C846.502 1965.15 859.877 1957.37 871.577 1946.23C877.332 1952.56 884.121 1960.62 892.084 1970.67" fill="#DCE9FA"/>
<path id="path344" d="M832.113 1968.59C831.149 1964.15 830.123 1955.41 836.926 1955.41C839.21 1955.41 842.367 1956.39 846.704 1958.85C846.704 1958.85 834.928 1925.56 845.524 1925.56C849.812 1925.56 857.74 1930.98 871.577 1946.23C859.877 1957.37 846.502 1965.15 832.113 1968.59" fill="#D1D1D1"/>
</g>
<g id="man-bike">
<path id="path208" d="M1008.91 990.826C1007.7 991.988 986.314 1047.59 986.314 1047.59L957.53 1010.95L985.497 943.504L1008.91 962.511V990.826" fill="#FFC0BB"/>
<path id="path262" d="M1132.46 1622.58L1128.1 1773.13L1120.49 1792.96L1106.81 1778.64L1107.08 1631.96L1132.46 1622.58" fill="#FFC0BB"/>
<path id="path266" d="M1105.75 1766.89L1103.8 1791.5C1103.55 1794.53 1104.73 1797.28 1106.28 1797.27L1159.79 1797.02C1161.18 1797.01 1162.55 1795.74 1163.28 1793.38C1164.02 1790.95 1164.16 1787.31 1161.75 1782.42C1156.94 1772.64 1141.19 1770.34 1133.47 1762L1108.55 1762.12C1107.15 1762.13 1105.97 1764.15 1105.75 1766.89" fill="#FF5B7E"/>
<path id="path288" d="M1094.97 1432.9C1101.97 1433.68 1131.04 1450.82 1134.81 1481.19C1138.58 1511.57 1134.81 1747.56 1134.81 1747.56H1102.51C1102.51 1747.56 1076.67 1560.63 1076.67 1555.18C1076.67 1549.72 1094.97 1432.9 1094.97 1432.9" fill="#282828"/>
<path id="path290" d="M873.176 1365.15C873.714 1367.48 866.08 1471.85 939.615 1480.41C1013.14 1488.98 1055.67 1503 1055.67 1503C1055.67 1503 1045.45 1738.99 1045.98 1750.67C1045.98 1750.67 1071.28 1756.9 1082.05 1754.56C1082.05 1754.56 1139.66 1492.87 1122.97 1439.14C1106.28 1385.39 973.309 1365.15 973.309 1365.15H873.176Z" fill="#333333"/>
<path id="path292" d="M995.589 1177.51C995.589 1177.51 996.344 1228.3 998.684 1233.01C1001.02 1237.71 1112.45 1299.29 1112.45 1299.29L1094.16 1329.21L1012.06 1295.28C1012.06 1295.28 953.255 1264.76 953.856 1262.56C954.457 1260.36 957.691 1229.1 960.603 1216.87C963.509 1204.62 974.482 1176.95 974.482 1176.95L995.589 1177.51" fill="#F9B7B4"/>
<path id="path294" d="M954.485 1000.25C954.485 1000.25 880.035 1039.39 871.556 1252.01L867.924 1372.93C867.924 1372.93 952.718 1425.5 1001.16 1379.94C1001.16 1379.94 1006.07 1164.13 1011.17 1085.23C1012.04 1071.92 1008.29 1058.87 1001.18 1050.34C984.931 1030.88 957.223 998.425 954.485 1000.25" fill="#FF5B7E"/>
<path id="path296" d="M928.641 1151.32C928.641 1151.32 910.439 1260.18 935.884 1290.09C951.753 1308.74 1099.72 1345.32 1099.72 1345.32L1109.26 1311.95C1109.26 1311.95 991.433 1251.11 984.4 1244.07C977.366 1237.01 989.17 1143.96 989.17 1143.96L928.641 1151.32" fill="#FFC0BB"/>
<path id="path298" d="M986.195 1039.63C979.531 1031.07 969.976 1028.82 961.762 1033.83C950.391 1040.77 934.11 1060.51 925.309 1116.06L917.85 1163.99C917.85 1163.99 973.161 1183.63 990.127 1182.52L998.809 1108.42C998.809 1108.42 1003.73 1062.12 986.195 1039.63Z" fill="#FF3D5E"/>
<path id="path308" d="M1048.55 1766.89L1046.59 1791.5C1046.35 1794.53 1047.53 1797.28 1049.06 1797.27L1102.59 1797.02C1103.98 1797.01 1105.35 1795.74 1106.07 1793.38C1106.81 1790.95 1106.95 1787.31 1104.55 1782.42C1099.74 1772.64 1083.99 1770.34 1076.27 1762L1051.33 1762.12C1049.94 1762.13 1048.76 1764.15 1048.55 1766.89" fill="#FF5B7E"/>
<path id="path346" d="M1035.26 971.99L1032.33 988.491C1032.33 988.491 1006.79 958.55 1007 957.964C1007.2 957.378 1011.64 946.717 1013.55 947.596C1015.47 948.476 1031.42 957.378 1031.42 957.964C1031.42 958.55 1035.26 971.99 1035.26 971.99" fill="white"/>
<path id="path348" d="M1017.39 960.642C1025.16 971.596 1032.78 973.87 1036.21 974.304C1037.3 968.615 1038.06 964.502 1038.06 964.502C1038.06 964.502 1046.65 960.652 1049.41 956.226C1049.41 956.226 1040.72 939.027 1040.59 930.964C1040.47 922.9 1049.12 874.567 1025.07 847.183C1001.02 819.808 986.733 868.919 986.733 868.919L976.536 919.757L962.531 950.507C962.531 950.507 965.877 978.306 984.973 997.859C1004.08 1017.41 1025.13 1009.94 1028.71 1007.55C1029.59 1006.96 1032.15 994.949 1034.38 983.762C1021.93 977.558 1017.39 960.642 1017.39 960.642" fill="#FFC0BB"/>
<path id="path352" d="M1016.4 919.727C1017.74 918.1 1019.04 916.665 1020.41 915.462C1021.76 914.26 1023.17 913.32 1024.64 912.714C1026.1 912.138 1027.61 911.714 1029.19 911.764L1029.78 911.734C1029.98 911.724 1030.18 911.774 1030.38 911.784L1031.59 911.875C1032.41 911.946 1033.22 912.188 1034.12 912.219C1033.44 911.501 1032.72 910.834 1031.94 910.289C1031.13 909.885 1030.33 909.298 1029.44 909.157C1027.7 908.581 1025.79 908.793 1024.02 909.531C1022.24 910.269 1020.59 911.663 1019.27 913.431C1017.98 915.23 1016.92 917.352 1016.4 919.727" fill="#333333"/>
<path id="path368" d="M1095.75 1308.5C1095.75 1308.5 1114.04 1292.39 1121.99 1292.39C1129.95 1292.39 1146.65 1299.29 1146.65 1310.8C1146.65 1322.31 1141.88 1329.21 1141.88 1329.21L1125.72 1349.37C1125.72 1349.37 1118.02 1357.97 1114.84 1353.37C1111.65 1348.77 1102.11 1354.53 1086.36 1341.93C1070.91 1329.56 1085.41 1322.31 1087.79 1318.86C1090.18 1315.4 1095.75 1308.5 1095.75 1308.5" fill="#FFC0BB"/>
<path id="path350" d="M1021.87 929.448C1022.89 931.984 1025.2 932.904 1027.05 931.489C1028.89 930.084 1029.56 926.881 1028.54 924.345C1027.52 921.808 1025.2 920.899 1023.36 922.304C1021.52 923.708 1020.85 926.911 1021.87 929.448Z" fill="#333333"/>
<path id="path358" d="M907.191 910.915C907.191 908.955 907.226 907.752 907.233 907.54C907.233 907.58 907.233 907.601 907.233 907.601C907.233 907.601 907.191 908.803 907.191 910.915ZM907.226 906.004C907.233 897.698 908.085 856.641 923.047 823.911C923.047 823.931 923.047 823.961 923.054 823.981C908.134 856.601 907.24 897.485 907.226 906.004" fill="#CAA3BE"/>
</g>
<g id="helmet">
<path id="path354" d="M990.644 892.716C990.644 892.716 982.199 903.074 980.09 950.638C978.456 987.531 957.111 993.524 957.537 993.322C957.963 993.119 963.536 912.279 964.612 909.551C965.688 906.822 972.868 876.063 973.992 875.285C975.11 874.507 989.645 888.229 990.455 888.573C991.258 888.916 990.644 892.716 990.644 892.716" fill="#B66400"/>
<path id="path356" d="M1058.28 858.925C1058.28 858.925 1049.67 777.256 977.268 781.682C904.858 786.108 907.233 907.601 907.233 907.601C907.233 907.601 904.32 995.636 947.653 995.615C947.653 995.615 976.995 998.344 976.995 945.383C976.995 894.151 987.766 894.151 987.766 894.151L1058.28 858.925" fill="#FAA842"/>
<path id="path360" d="M948.373 995.545C947.912 995.545 947.654 995.525 947.654 995.525C947.647 995.525 947.647 995.525 947.64 995.525C909.454 995.525 907.191 927.113 907.191 910.915C907.191 908.803 907.233 907.601 907.233 907.601C907.233 907.601 907.233 907.58 907.233 907.54C907.233 907.52 907.233 907.51 907.233 907.51C907.233 907.51 907.219 906.984 907.226 906.004C907.24 897.485 908.134 856.6 923.054 823.981C924.395 876.457 937.232 927.002 976.975 947.344C976.298 993.372 952.808 995.545 948.373 995.545Z" fill="#F88900"/>
<path id="path364" d="M987.767 894.151C989.96 893.06 1045.18 886.895 1071.11 884.046C1075.54 883.561 1077.1 875.295 1073.45 871.617L1058.28 856.318L987.767 894.151Z" fill="#1A1A1A"/>
<path id="path362" d="M954.792 962.511C954.792 969.069 951.111 974.395 946.578 974.395C942.045 974.395 938.371 969.069 938.371 962.511C938.371 955.953 942.045 950.638 946.578 950.638C951.111 950.638 954.792 955.953 954.792 962.511Z" fill="#B66400"/>
</g>
<path id="path366" d="M987.767 894.151C990.225 892.928 1044.15 867.09 1059.67 859.662C1061.9 858.591 1063.03 854.994 1062.1 851.861L1060.02 844.768C1059.09 841.615 1056.48 840.291 1054.4 841.928L987.767 894.151" fill="#283F56"/>
<path id="path370" d="M1146.42 1325.5C1146.42 1339.03 1138.84 1349.99 1129.49 1349.99C1120.15 1349.99 1112.57 1339.03 1112.57 1325.5C1112.57 1311.98 1120.15 1301.02 1129.49 1301.02C1138.84 1301.02 1146.42 1311.98 1146.42 1325.5Z" fill="#1A1A1A"/>
<path id="path372" d="M1908.28 2000.11H138.147C134.097 2000.11 130.813 1995.36 130.813 1989.5V1981.32C130.813 1975.47 134.097 1970.71 138.147 1970.71H1908.28C1912.33 1970.71 1915.62 1975.47 1915.62 1981.32V1989.5C1915.62 1995.36 1912.33 2000.11 1908.28 2000.11" fill="#07085B"/>
<path id="path378" d="M153.005 1971.11C153.005 1971.11 170.389 1933.1 202.053 1941.25C202.053 1941.25 219.486 1887.69 267.871 1887.07C316.912 1886.43 326.225 1935.86 326.225 1935.86C326.225 1935.86 340.194 1918.8 371.858 1936.31C403.522 1953.84 414.698 1985.41 414.698 1985.41L153.005 1971.11" fill="#07085B"/>
<path id="path380" d="M1773.11 1908.02C1773.11 1908.02 1771.09 1859.52 1741.91 1864.01C1741.91 1864.01 1702.17 1772.39 1660.58 1901.73C1660.58 1901.73 1623.02 1872.37 1609.2 1936.23C1609.2 1936.23 1586.07 1873.89 1553.17 1894.55C1520.26 1915.2 1509.04 1971.93 1509.04 1971.93L1751.9 1979.42L1773.11 1908.02Z" fill="#70C0FD"/>
<path id="path382" d="M1903.95 1971.11C1903.95 1971.11 1886.57 1933.1 1854.91 1941.25C1854.91 1941.25 1837.47 1887.69 1789.09 1887.07C1740.05 1886.43 1730.73 1935.86 1730.73 1935.86C1730.73 1935.86 1716.76 1918.8 1685.1 1936.31C1653.44 1953.84 1642.27 1985.41 1642.27 1985.41L1903.95 1971.11Z" fill="#07085B"/>
<path id="path384" d="M1715.48 1688.02C1697.25 1674.53 1681.92 1652.06 1676.44 1624.62C1671.16 1598.18 1675.25 1570.09 1679.7 1543.34C1681.64 1531.64 1683.61 1519.1 1680.45 1507.9C1678.49 1500.93 1674.73 1495.27 1671.32 1489.45C1641.86 1439.24 1635.14 1370.28 1638.87 1306C1639.91 1288.16 1641.76 1269.95 1647.89 1254.15C1654.02 1238.37 1665.22 1225.27 1678.22 1224.03C1698.3 1222.12 1717.42 1247.81 1736.54 1239.18C1750.24 1232.98 1757.15 1211.69 1769.57 1201.62C1780 1193.16 1792.9 1193.65 1805 1194.41C1808.82 1194.64 1812.71 1194.91 1816.24 1196.91C1824.24 1201.44 1828.32 1213.57 1830.87 1224.93C1834.97 1243.3 1837.01 1262.46 1841.13 1280.82C1845.25 1299.19 1851.84 1317.31 1862.97 1328.97C1871.89 1338.34 1882.97 1342.77 1893.04 1349.64C1917.92 1366.6 1936.03 1398.06 1949.47 1431.46C1953.5 1441.45 1957.2 1451.8 1959.25 1462.86C1965.71 1497.67 1953.24 1537.42 1930.38 1554.87C1921.88 1561.37 1912.32 1564.93 1903.86 1571.51C1884.45 1586.58 1873.14 1615.12 1862.03 1641.67C1850.92 1668.22 1837.54 1695.87 1816.61 1706.43C1788.02 1720.87 1741.47 1707.26 1715.48 1688.02" fill="#7F00FF"/>
<path id="path386" d="M1917.17 1511.92C1912.64 1510.97 1908.07 1510.49 1903.51 1510.19C1898.95 1509.92 1894.38 1509.96 1889.82 1510.16C1888.57 1510.22 1887.32 1510.31 1886.07 1510.4C1891.88 1506.38 1897.61 1501.88 1903.05 1496.39C1908.92 1490.44 1914.53 1483.28 1918.9 1474.11C1914.17 1482.7 1908.39 1489.01 1902.39 1494.14C1896.37 1499.25 1890.05 1503.19 1883.67 1506.6C1877.8 1509.7 1871.87 1512.34 1865.89 1514.75C1866.79 1512.47 1867.61 1510.1 1868.37 1507.69C1870.04 1502.31 1871.4 1496.66 1872.4 1490.83C1873.42 1485.01 1874.06 1479.03 1874.37 1473.03C1874.66 1467.02 1874.61 1460.99 1874.24 1455.07C1874.27 1461.03 1873.98 1466.97 1873.36 1472.78C1872.72 1478.57 1871.77 1484.21 1870.48 1489.57C1869.21 1494.95 1867.62 1500.05 1865.76 1504.77C1864.83 1507.13 1863.84 1509.41 1862.79 1511.56C1861.95 1513.25 1860.39 1516.37 1859.33 1517.34C1854.42 1519.21 1849.49 1521 1844.56 1522.82C1828.87 1528.7 1806.74 1536.18 1782.45 1566.24C1781.43 1548.66 1780.32 1528.53 1779.56 1514.45C1778.91 1502.45 1779.39 1490.36 1781 1478.66L1781.02 1478.47C1782.71 1466.41 1784.47 1454.36 1786.29 1442.34C1789.07 1424.1 1791.97 1405.92 1795.06 1387.82C1801.24 1349.8 1799.79 1344.84 1800.34 1336.19C1800.48 1333.84 1800.5 1331.48 1800.36 1329.13C1800.35 1329 1800.34 1328.89 1800.34 1328.78C1799.9 1320.9 1799.32 1313.08 1798.55 1305.31C1796.56 1285.6 1794.88 1275.17 1792.17 1259.69C1793.97 1275.65 1795.02 1286.24 1795.84 1305.91C1796.15 1313.64 1796.27 1321.39 1796.25 1329.11C1796.25 1332.97 1796.17 1336.82 1796.07 1340.66C1796.01 1342.57 1795.96 1344.49 1795.87 1346.39C1795.83 1347.34 1795.79 1348.29 1795.73 1349.23C1795.7 1349.8 1793.52 1363.39 1792.69 1367.18C1787.55 1390.54 1782.75 1414.12 1778.15 1437.84C1775.99 1448.96 1773.91 1460.11 1771.87 1471.33C1771.87 1471.33 1770.84 1476.52 1769.76 1486.4C1769.28 1484.22 1765.27 1468.19 1763.33 1461.59C1753.53 1428.25 1743.66 1399.78 1727.35 1365.57C1721.09 1352.44 1720.27 1351.18 1711.98 1335.61C1722.27 1357.5 1719.25 1350.82 1726.26 1367.15C1741.15 1402.61 1750.02 1432.13 1758.44 1465.68C1761.5 1478.98 1763.11 1485.7 1766.22 1503.22C1766.59 1505.33 1766.95 1507.45 1767.27 1509.58C1767.46 1510.77 1767.65 1511.96 1767.83 1513.15C1767.15 1529.66 1767.58 1546.23 1768.93 1562.6C1769.48 1569.28 1774.86 1689.17 1775.48 1733.13C1776.88 1831.91 1764.83 1943.67 1764.83 1943.67C1764.83 1943.67 1837.05 1976.21 1822.37 1936.87C1812.54 1910.49 1788.9 1672.16 1783.77 1588.39C1784.15 1587.77 1784.54 1587.14 1784.93 1586.53C1806.88 1552.15 1829.71 1540.94 1845.91 1532.71C1853.38 1528.95 1860.9 1525.25 1868.37 1521.16L1868.37 1521.17C1872.77 1519.88 1885.53 1516.48 1890.02 1515.65C1894.5 1514.83 1899.01 1514.2 1903.53 1513.85C1908.04 1513.54 1912.57 1513.41 1917.08 1513.75C1921.6 1514.13 1926.12 1514.86 1930.58 1516.38C1926.19 1514.27 1921.69 1512.91 1917.17 1511.92" fill="#07085B"/>
</g>
</g>
</g>
<defs>
<clipPath id="clip0">
<rect width="2000" height="2000" fill="white"/>
</clipPath>
</defs>
</svg>
